<svg width="22" height="27" viewBox="0 0 22 27" fill="none" xmlns="http://www.w3.org/2000/svg">
<path d="M4.63159 6.36842C4.63159 8.05743 5.30255 9.67726 6.49686 10.8716C7.69117 12.0659 9.311 12.7368 11 12.7368C12.689 12.7368 14.3089 12.0659 15.5032 10.8716C16.6975 9.67726 17.3684 8.05743 17.3684 6.36842C17.3684 4.67941 16.6975 3.05958 15.5032 1.86527C14.3089 0.670957 12.689 0 11 0C9.311 0 7.69117 0.670957 6.49686 1.86527C5.30255 3.05958 4.63159 4.67941 4.63159 6.36842Z" fill="#4A569C"/>
<path d="M11 14.4737C8.08356 14.4767 5.28745 15.6367 3.22521 17.6989C1.16297 19.7611 0.0030651 22.5572 0 25.4737C0 25.6272 0.0609962 25.7745 0.16957 25.8831C0.278144 25.9916 0.425401 26.0526 0.578947 26.0526H21.4211C21.5746 26.0526 21.7219 25.9916 21.8304 25.8831C21.939 25.7745 22 25.6272 22 25.4737C21.9969 22.5572 20.837 19.7611 18.7748 17.6989C16.7126 15.6367 13.9164 14.4767 11 14.4737Z" fill="#4A569C"/>
</svg>
