<svg width="23" height="23" viewBox="0 0 23 23" fill="none" xmlns="http://www.w3.org/2000/svg">
<path d="M3.42634 6.88827L16.9999 2.00015" stroke="white" stroke-width="2" stroke-linecap="round" stroke-linejoin="round"/>
<path d="M8.11719 2.03991C7.78239 2.15943 7.50872 2.40697 7.35632 2.72814C7.20391 3.04931 7.18523 3.41785 7.30439 3.75278L7.75627 5.01626L12.5873 3.34999L12.1354 2.08652C12.0152 1.75268 11.7676 1.48012 11.4468 1.32855C11.126 1.17698 10.7582 1.15878 10.424 1.27793L8.11719 2.03991Z" stroke="white" stroke-width="2" stroke-linecap="round" stroke-linejoin="round"/>
<path d="M15.8866 8H18L16.885 19.9627C16.8599 20.246 16.7217 20.5101 16.4981 20.7023C16.2744 20.8945 15.9816 21.0008 15.678 21H7.03701C6.73421 20.9997 6.44258 20.8929 6.21989 20.7008C5.99721 20.5087 5.85971 20.2453 5.83465 19.9627L5 10.5449" stroke="white" stroke-width="2" stroke-linecap="round" stroke-linejoin="round"/>
</svg>
