<svg width="23" height="23" viewBox="0 0 23 23" fill="none" xmlns="http://www.w3.org/2000/svg">
<g clip-path="url(#clip0_406_53)">
<path d="M9.97144 18.86H3.00798C2.37836 18.86 1.87012 18.3517 1.87012 17.7221V2.92986C1.87012 2.30024 2.37836 1.79199 3.00798 1.79199H13.5117C13.8075 1.79199 14.0958 1.90578 14.3081 2.11818L16.5839 4.30289C16.8039 4.51529 16.9252 4.81113 16.9252 5.11457V10.916" stroke="white" stroke-width="2" stroke-linecap="round" stroke-linejoin="round"/>
<path d="M20.7281 15.2982L15.6994 20.1867C15.5854 20.2975 15.4435 20.3752 15.2888 20.4113L12.1812 21.1383L12.9905 18.1166C13.0314 17.9642 13.1127 17.8256 13.2258 17.7156L18.2912 12.7915C18.9765 12.1253 20.0698 12.133 20.7457 12.8089C21.4352 13.4984 21.4272 14.6186 20.7281 15.2982Z" stroke="white" stroke-width="2" stroke-linecap="round" stroke-linejoin="round"/>
<path d="M5.99023 5.59912H11.251" stroke="white" stroke-width="2" stroke-linecap="round" stroke-linejoin="round"/>
<path d="M5.99023 9.28418H12.8039" stroke="white" stroke-width="2" stroke-linecap="round" stroke-linejoin="round"/>
</g>
<defs>
<clipPath id="clip0_406_53">
<rect width="23" height="23" fill="white"/>
</clipPath>
</defs>
</svg>
