<svg width="24" height="24" viewBox="0 0 24 24" fill="none" xmlns="http://www.w3.org/2000/svg">
<path d="M12.0036 5.30104e-07C9.14679 -0.000848216 6.3834 1.01752 4.21033 2.87199C2.03725 4.72645 0.597063 7.29535 0.148724 10.1168C-0.299614 12.9382 0.273315 15.8269 1.76449 18.2637C3.25566 20.7004 5.56725 22.5252 8.28359 23.41H8.56359C8.81903 23.4225 9.06953 23.3366 9.26359 23.17C9.38034 23.0683 9.47316 22.9421 9.5354 22.8003C9.59764 22.6585 9.62775 22.5048 9.62359 22.35V22.14V21.05C9.61555 20.9851 9.59459 20.9225 9.56196 20.8658C9.52933 20.8091 9.48568 20.7595 9.43359 20.72C9.37667 20.6745 9.31048 20.6419 9.23966 20.6246C9.16884 20.6073 9.09509 20.6058 9.02359 20.62C6.33359 21.2 5.76359 19.52 5.73359 19.41C5.39533 18.5198 4.79134 17.7552 4.00359 17.22L3.85359 17.11C3.97167 17.053 4.10294 17.0288 4.23359 17.04C4.48282 17.0775 4.71834 17.178 4.91785 17.332C5.11735 17.486 5.27422 17.6884 5.37359 17.92C5.76044 18.5936 6.39347 19.0909 7.1395 19.3072C7.88553 19.5236 8.68639 19.4421 9.37359 19.08C9.44785 19.047 9.51352 18.9974 9.56554 18.935C9.61756 18.8725 9.65453 18.799 9.67359 18.72C9.71413 18.261 9.91195 17.83 10.2336 17.5C10.3077 17.4361 10.3615 17.3517 10.3882 17.2575C10.4148 17.1633 10.4132 17.0633 10.3836 16.97C10.3563 16.8765 10.3017 16.7933 10.2269 16.731C10.1521 16.6686 10.0605 16.63 9.96359 16.62C7.59359 16.35 5.16359 15.52 5.16359 11.43C5.14633 10.4015 5.52595 9.4059 6.22359 8.65C6.28665 8.58095 6.32863 8.49529 6.34458 8.40315C6.36052 8.31101 6.34977 8.21623 6.31359 8.13C6.03664 7.34994 6.04017 6.49774 6.32359 5.72C7.24703 5.88502 8.11383 6.28058 8.84359 6.87C8.90432 6.91152 8.97378 6.93852 9.0466 6.94892C9.11943 6.95933 9.19367 6.95285 9.26359 6.93C10.1574 6.69162 11.0785 6.5706 12.0036 6.57C12.9323 6.5656 13.8573 6.68669 14.7536 6.93C14.8219 6.95277 14.8945 6.9592 14.9657 6.94878C15.0369 6.93836 15.1047 6.91138 15.1636 6.87C15.8924 6.27909 16.7596 5.88334 17.6836 5.72C17.9583 6.48956 17.9583 7.33044 17.6836 8.1C17.6474 8.18693 17.6376 8.28258 17.6554 8.37504C17.6732 8.4675 17.7178 8.55269 17.7836 8.62C18.4704 9.36988 18.8459 10.3532 18.8336 11.37C18.8336 15.47 16.4036 16.29 14.0236 16.55C13.9267 16.56 13.835 16.5986 13.7602 16.661C13.6854 16.7233 13.6309 16.8065 13.6036 16.9C13.5748 16.9918 13.5736 17.0901 13.6003 17.1826C13.627 17.2751 13.6803 17.3576 13.7536 17.42C13.9748 17.6509 14.1437 17.9267 14.249 18.2286C14.3542 18.5306 14.3933 18.8516 14.3636 19.17V22.35C14.3614 22.5055 14.3933 22.6595 14.4573 22.8012C14.5212 22.9429 14.6156 23.0688 14.7336 23.17C14.8825 23.2835 15.0563 23.3599 15.2407 23.393C15.425 23.426 15.6145 23.4147 15.7936 23.36C18.4788 22.4462 20.7535 20.6108 22.2142 18.1794C23.6749 15.748 24.2271 12.8778 23.7728 10.078C23.3186 7.27815 21.8873 4.72975 19.7328 2.88487C17.5783 1.04 14.84 0.0179339 12.0036 5.30104e-07Z" fill="#BDBEC3"/>
</svg>
