<svg width="28" height="28" viewBox="0 0 28 28" fill="none" xmlns="http://www.w3.org/2000/svg">
<path d="M7.58864 6.42192C7.8978 6.42192 8.1943 6.29908 8.41291 6.08043C8.63152 5.86177 8.75433 5.56522 8.75433 5.25599V4.67303C8.75433 4.51842 8.81574 4.37014 8.92504 4.26081C9.03435 4.15149 9.1826 4.09007 9.33718 4.09007L15.7485 4.09007C15.826 4.08852 15.903 4.10245 15.9751 4.13105C16.0472 4.15965 16.1128 4.20235 16.1682 4.25664C16.2235 4.31093 16.2675 4.37572 16.2975 4.44722C16.3275 4.51871 16.343 4.59549 16.343 4.67303L16.343 23.3278C16.343 23.4824 16.2816 23.6307 16.1723 23.74C16.063 23.8494 15.9147 23.9108 15.7601 23.9108L9.34883 23.9108C9.19426 23.9108 9.04601 23.8494 8.9367 23.74C8.8274 23.6307 8.76599 23.4824 8.76599 23.3278V22.1619C8.76599 21.8527 8.64318 21.5561 8.42457 21.3375C8.20596 21.1188 7.90946 20.996 7.6003 20.996C7.29114 20.996 6.99464 21.1188 6.77603 21.3375C6.55742 21.5561 6.43461 21.8527 6.43461 22.1619V25.0767C6.43461 25.3859 6.55742 25.6825 6.77603 25.9011C6.99464 26.1198 7.29114 26.2426 7.6003 26.2426L16.343 26.2426V27.4086C16.3428 27.4951 16.3615 27.5806 16.3977 27.6591C16.4339 27.7376 16.4869 27.8073 16.5528 27.8633C16.6207 27.918 16.6995 27.9577 16.7839 27.9798C16.8682 28.0019 16.9564 28.0059 17.0424 27.9915L27.5336 25.6597C27.6672 25.6324 27.7871 25.5592 27.8723 25.4526C27.9575 25.3461 28.0026 25.2131 27.9999 25.0767L27.9999 2.92414C28.0026 2.78776 27.9575 2.65474 27.8723 2.54822C27.7871 2.4417 27.6672 2.36844 27.5336 2.34118L17.0424 0.00933456C16.957 -0.00597954 16.8693 -0.0024128 16.7854 0.0197849C16.7015 0.0419807 16.6235 0.0822697 16.5569 0.137823C16.4902 0.193375 16.4365 0.262846 16.3996 0.341358C16.3626 0.41987 16.3433 0.50552 16.343 0.592297V1.75822L7.6003 1.75822C7.29114 1.75822 6.99464 1.88106 6.77603 2.09971C6.55742 2.31837 6.43461 2.61492 6.43461 2.92414V5.25599C6.43459 5.56321 6.55581 5.85801 6.7719 6.07633C6.988 6.29465 7.28151 6.41885 7.58864 6.42192ZM19.2455 13.4175C19.2456 13.0721 19.3478 12.7344 19.5394 12.4471C19.7311 12.1597 20.0035 11.9356 20.3223 11.8028C20.6411 11.6701 20.9921 11.6348 21.3309 11.7014C21.6698 11.7679 21.9814 11.9333 22.2264 12.1768C22.4714 12.4202 22.6388 12.7307 22.7076 13.0692C22.7764 13.4077 22.7434 13.7589 22.6128 14.0787C22.4823 14.3985 22.26 14.6724 21.974 14.866C21.688 15.0595 21.3511 15.164 21.0057 15.1664C20.7751 15.1679 20.5465 15.1238 20.333 15.0366C20.1195 14.9494 19.9254 14.8208 19.7618 14.6583C19.5982 14.4957 19.4684 14.3024 19.3798 14.0894C19.2912 13.8765 19.2455 13.6481 19.2455 13.4175Z" fill="white"/>
<path d="M1.78344 15.1663L6.58608 15.1663V17.2067C6.58664 17.4176 6.6444 17.6244 6.7532 17.8051C6.862 17.9858 7.01776 18.1336 7.2039 18.2327C7.38618 18.3263 7.58991 18.3702 7.79456 18.36C7.99921 18.3498 8.19755 18.2858 8.36959 18.1744L14.0465 14.3852C14.2052 14.2785 14.3352 14.1345 14.4251 13.9657C14.515 13.7969 14.562 13.6087 14.562 13.4174C14.562 13.2262 14.515 13.0379 14.4251 12.8692C14.3352 12.7004 14.2052 12.5564 14.0465 12.4497L8.36959 8.66047C8.19414 8.54186 7.9897 8.47329 7.77822 8.46213C7.56674 8.45097 7.35622 8.49764 7.16927 8.59713C6.98231 8.69662 6.82598 8.84517 6.71708 9.02682C6.60817 9.20848 6.55079 9.41638 6.55111 9.62819L6.55111 11.6686L1.74847 11.6686C1.28473 11.6686 0.83998 11.8528 0.512066 12.1808C0.184152 12.5088 -6.96182e-05 12.9536 -6.96182e-05 13.4174C-6.96182e-05 13.8813 0.184152 14.3261 0.512066 14.6541C0.83998 14.9821 1.28473 15.1663 1.74847 15.1663H1.78344Z" fill="white"/>
</svg>
