<svg width="80" height="80" viewBox="0 0 80 80" fill="none" xmlns="http://www.w3.org/2000/svg">
<g clip-path="url(#clip0_278_536)">
<path d="M1.16016 10.1602C1.16016 5.1896 5.18959 1.16016 10.1602 1.16016H69.8401C74.8107 1.16016 78.8402 5.18959 78.8402 10.1602V69.8401C78.8402 74.8107 74.8107 78.8402 69.8402 78.8402H10.1602C5.1896 78.8402 1.16016 74.8107 1.16016 69.8402V10.1602Z" fill="#111427" stroke="#111427" stroke-width="2"/>
<path d="M26.6125 0.160156H13.9043C13.4663 0.329176 13.0266 0.499631 12.5857 0.670513L12.5761 0.674232C9.44162 1.88908 6.24032 3.12901 3.00439 4.13408C1.99213 4.44849 1.04663 4.8062 0.160156 5.2034V9.66331C1.35038 8.98358 2.67767 8.40732 4.18613 7.93878C7.5635 6.88977 10.8812 5.60391 13.9863 4.40043L14.0158 4.38897C15.5453 3.79617 17.0209 3.22435 18.4492 2.70006C21.1883 1.69464 23.861 0.817279 26.6125 0.160156Z" fill="#4900EB"/>
<path d="M50.6016 79.8401C50.6018 79.8399 50.602 79.8395 50.602 79.8393C52.0792 77.1246 53.6246 74.4243 55.1708 71.7225C55.937 70.3835 56.7035 69.0441 57.4578 67.7095C59.3124 64.4282 60.2544 60.5377 61.1632 56.7841C61.3116 56.171 61.4592 55.5616 61.6096 54.9591C63.0629 49.141 63.2526 42.9579 62.8948 36.5456C62.8372 35.514 62.8331 34.4658 62.8293 33.4303C62.8285 33.1754 62.8275 32.9204 62.8257 32.6708C62.8165 31.3831 62.7853 30.1136 62.6305 28.8408C62.3291 26.3599 61.3994 23.9962 60.059 21.3387C59.2339 19.7032 58.4624 18.2028 57.3559 16.8072C56.2236 15.3791 54.8021 14.1317 52.726 12.8295C52.1006 12.4372 51.5532 12.1384 51.1034 11.9355C50.8478 11.8203 50.6673 11.7556 50.547 11.7181L50.394 11.6704L50.2354 11.6478C48.9614 11.466 47.7044 11.2142 46.3815 10.9493C45.52 10.7767 44.6304 10.5986 43.6899 10.4305C41.4454 10.0294 39.0366 9.71662 36.8223 9.98237C34.9463 10.2075 33.1692 10.5569 31.4732 10.8904L31.3479 10.9151C29.5934 11.26 27.9197 11.5854 26.1671 11.7858C21.9526 12.2676 18.2126 13.4121 14.5133 14.77C13.3475 15.1979 12.1493 15.6623 10.9449 16.1291L10.9354 16.1328C8.44608 17.0976 5.91899 18.0762 3.36704 18.8688C2.19361 19.2333 1.13064 19.67 0.160156 20.1694V24.8329C1.38887 23.9341 2.8132 23.2126 4.54875 22.6735C7.24219 21.8369 9.88572 20.8124 12.3459 19.8589L12.3751 19.8475C13.5895 19.3769 14.7568 18.9245 15.8861 18.51C19.4533 17.2006 22.856 16.1743 26.6197 15.744C28.5539 15.5228 30.3776 15.1661 32.1164 14.8243L32.1853 14.8107C33.9198 14.4697 35.5703 14.1452 37.297 13.938C38.8864 13.7473 40.7999 13.9611 42.9892 14.3524C43.7485 14.4881 44.5678 14.6513 45.4076 14.8186C46.7558 15.0872 48.1568 15.3662 49.4464 15.5588L49.4584 15.5641L49.4657 15.5674C49.7024 15.6742 50.0857 15.8762 50.6091 16.2045C52.3882 17.3204 53.4404 18.2813 54.2342 19.2825C55.0539 20.3162 55.6611 21.4662 56.5019 23.1329C57.7644 25.6358 58.4562 27.5161 58.6758 29.3214C58.8016 30.3583 58.8329 31.4395 58.8419 32.6993C58.8437 32.9407 58.8445 33.1883 58.8455 33.4447V33.4672C58.8491 34.4809 58.8532 35.6237 58.917 36.7675C59.264 42.9875 59.0608 48.7233 57.7443 53.9937C57.5802 54.6515 57.4234 55.2949 57.27 55.924C56.3457 59.7182 55.5481 62.9914 53.9896 65.7491C53.2412 67.073 52.48 68.4031 51.7129 69.7437L51.7079 69.7525C50.1669 72.4452 48.602 75.1797 47.1026 77.935C46.7552 78.5734 46.4144 79.2085 46.0787 79.8401H50.6016Z" fill="#4900EB"/>
<path d="M57.6064 79.8402C57.876 79.337 58.1485 78.832 58.4242 78.3254C60.3112 74.858 62.2811 71.4158 64.2241 68.0204L64.2289 68.0121L64.2346 68.0017L64.2448 67.9844L64.2462 67.9816C65.2069 66.3027 66.1611 64.6354 67.0993 62.9753C69.0879 59.457 70.1288 55.2312 71.2993 50.4121L71.2999 50.4097C71.4897 49.6279 71.6829 48.8323 71.8831 48.0309C73.5598 41.3177 73.8144 34.0309 73.3755 26.1671C73.2958 24.7398 73.2907 23.3116 73.2861 22.0311V22.0301V22.0064C73.2849 21.6835 73.2837 21.3704 73.2815 21.0652C73.2701 19.4739 73.2309 18.0867 73.0684 16.7493C72.7811 14.3863 71.8783 11.9537 70.2772 8.77938C69.2196 6.68286 68.4328 5.18798 67.3625 3.83813C66.3961 2.61942 65.1478 1.45978 63.1601 0.160156H69.4397C69.812 0.551959 70.1582 0.95159 70.4843 1.36287C71.8415 3.07459 72.7925 4.91984 73.8343 6.98511C75.5133 10.314 76.654 13.2301 77.0233 16.2686C77.2145 17.8423 77.2539 19.4175 77.2655 21.0367C77.2677 21.3465 77.2689 21.6628 77.2699 21.9805L77.2701 21.9923C77.2747 23.295 77.2798 24.6293 77.3533 25.9452C77.8029 34.0012 77.5619 41.7354 75.7482 48.9964C75.5516 49.7839 75.3611 50.5679 75.1707 51.3526L75.1339 51.5036C74.006 56.1485 72.8546 60.8895 70.5678 64.9356C69.6226 66.6079 68.6622 68.2862 67.7013 69.9652L67.6868 69.9907C65.8125 73.266 63.9362 76.5446 62.1361 79.8402H57.6064Z" fill="#4900EB"/>
<path d="M38.2591 79.84C39.396 77.7414 40.5603 75.6564 41.7489 73.5791L41.7533 73.5718C42.3041 72.6092 42.8559 71.6449 43.3993 70.6836C44.7664 68.2649 45.4489 65.4536 46.0845 62.8355L46.1186 62.6954C46.2277 62.2461 46.3359 61.8004 46.4477 61.353C47.5751 56.8388 48.3994 50.7833 47.761 45.0643C47.1257 39.3747 44.9875 33.63 39.7994 30.3758C39.3344 30.0842 38.9169 29.8553 38.5627 29.6956C38.3601 29.6041 38.2088 29.5492 38.0986 29.5149L37.9456 29.4673L37.7872 29.4446C36.8791 29.3151 36.003 29.1394 35.0652 28.9514L35.0646 28.9512C34.4419 28.8263 33.7921 28.696 33.0877 28.5701C31.4618 28.2797 29.6563 28.0404 27.9727 28.2424C26.5994 28.4071 25.3004 28.6627 24.0823 28.9022L23.9853 28.9213C22.7182 29.1703 21.5325 29.4006 20.2945 29.542C17.1934 29.8966 14.45 30.7382 11.7647 31.7238C10.9197 32.034 10.0521 32.3702 9.18567 32.7061L9.17607 32.7099C7.37861 33.4065 5.57449 34.1049 3.75601 34.6698C2.36924 35.1005 1.18757 35.6674 0.160156 36.3385V41.6292C1.38813 40.1731 2.82374 39.1311 4.93775 38.4745C6.89774 37.8658 8.81836 37.1214 10.587 36.4357L10.6158 36.4245C11.4922 36.0849 12.3289 35.7606 13.1375 35.464C15.6907 34.5268 18.0967 33.8033 20.7471 33.5003C22.1668 33.3379 23.5024 33.0764 24.7538 32.8304L24.7942 32.8224C26.051 32.5754 27.2237 32.3449 28.4474 32.1979C29.5059 32.071 30.8164 32.2113 32.3869 32.4919C32.91 32.5856 33.4897 32.7009 34.0905 32.8204C35.0472 33.0109 36.0576 33.2119 36.9787 33.3523C37.1263 33.423 37.3616 33.5495 37.6825 33.7509C41.3892 36.0759 43.2282 40.3695 43.8015 45.5063C44.3716 50.6132 43.6354 56.1716 42.5824 60.3875C42.468 60.8457 42.3577 61.3001 42.2499 61.7437L42.2487 61.7482L42.2477 61.7526L42.2471 61.755C41.571 64.5386 40.9993 66.833 39.931 68.7232C39.3924 69.6762 38.8444 70.6338 38.2912 71.6005C36.7325 74.3241 35.2118 77.0667 33.7377 79.84H38.2591Z" fill="#4900EB"/>
<path d="M26.5565 79.8401C26.7006 79.5692 26.8464 79.2977 26.9948 79.025C27.6639 77.7953 28.3649 76.5704 29.0728 75.3332L29.0746 75.3302C29.4242 74.7195 29.7756 74.1053 30.1218 73.493C31.0395 71.8689 31.4931 69.9996 31.8895 68.3664L31.9204 68.2389C31.9897 67.9536 32.0578 67.6732 32.128 67.3921C32.8298 64.5826 32.9128 61.6336 32.7463 58.649C32.7218 58.21 32.7198 57.7586 32.718 57.2807C32.7176 57.1644 32.7172 57.0458 32.7164 56.9295C32.7122 56.3331 32.6979 55.7014 32.6192 55.0552C32.2417 51.9481 30.3166 48.6571 27.591 46.9476C26.384 46.1906 24.9129 45.7781 23.5642 45.5733C22.1961 45.3655 20.7905 45.347 19.6148 45.4881C18.716 45.596 17.8687 45.7625 17.1012 45.9135L17.0315 45.9273C16.2249 46.0859 15.5002 46.2261 14.748 46.3121C12.6983 46.5464 10.8964 47.102 9.16878 47.736C8.57269 47.9549 7.99637 48.1784 7.42651 48.3996C6.33287 48.8239 5.26308 49.239 4.12326 49.593C2.41241 50.1244 1.15473 50.9649 0.160156 51.9607V59.1595C0.329818 58.8594 0.492988 58.5651 0.648746 58.2845L0.650065 58.2821C2.17554 55.5331 3.0429 54.1003 5.30497 53.3977C6.57061 53.0047 7.87671 52.4987 9.0443 52.0467L9.04583 52.0461L9.04776 52.0453C9.58022 51.8391 10.0838 51.6441 10.5416 51.476C12.1371 50.8904 13.6017 50.4531 15.2006 50.2702C16.1344 50.1635 17.009 49.992 17.8 49.8364L17.8125 49.834C18.6192 49.6752 19.3403 49.5336 20.0895 49.4438C20.8889 49.3477 21.9331 49.3553 22.9662 49.5121C24.0185 49.672 24.9002 49.9627 25.4741 50.3226C27.095 51.3394 28.4189 53.5156 28.6645 55.5359C28.7143 55.9459 28.7284 56.3895 28.7326 56.958C28.7332 57.0662 28.7336 57.1773 28.7342 57.295V57.3156V57.316C28.7358 57.7735 28.7378 58.3197 28.7685 58.8709C28.9244 61.6633 28.8276 64.165 28.2629 66.4266C28.1892 66.7212 28.1183 67.0132 28.0497 67.2957L28.0492 67.2975L28.049 67.2987C27.6145 69.0875 27.2721 70.4381 26.6534 71.5327C26.3149 72.1313 25.9707 72.733 25.6219 73.3426L25.6159 73.3531L25.6151 73.3543L25.6099 73.3635C24.9072 74.5916 24.1867 75.8505 23.4954 77.1206C22.9925 78.0449 22.52 78.9523 22.0618 79.8401H26.5565Z" fill="#4900EB"/>
<path d="M14.6828 79.8398C14.8957 79.4265 15.1026 79.0269 15.3229 78.6219C15.5924 78.1267 15.8758 77.6313 16.1695 77.1181L16.1712 77.1151L16.1734 77.1114L16.174 77.1102C16.317 76.8604 16.4625 76.6062 16.6061 76.352C17.0789 75.5156 17.3155 74.5241 17.4801 73.8347C17.5054 73.7283 17.5291 73.6291 17.5517 73.5389C17.8818 72.217 17.9122 70.867 17.8402 69.5772C17.8321 69.4312 17.8311 69.2748 17.8304 69.0726L17.8303 69.0665C17.8302 69.0205 17.83 68.9717 17.8296 68.9232C17.8278 68.6687 17.8219 68.3525 17.781 68.0161C17.6907 67.2733 17.4186 66.6305 17.1337 66.0655C16.5489 64.9064 15.6625 64.0349 14.5462 63.5191C13.4534 63.0142 12.2603 62.9044 11.107 63.0429C10.6912 63.0927 10.3031 63.169 9.99231 63.2301L9.95323 63.2379C9.61526 63.3044 9.35971 63.3532 9.10219 63.3825C8.12286 63.4944 7.27919 63.7588 6.52645 64.0351C6.29251 64.1209 6.05476 64.2132 5.83174 64.2996L5.82307 64.3028C5.34414 64.4885 4.91789 64.6528 4.49728 64.7835C2.43968 65.4227 1.59592 66.95 1.01321 68.0049L0.979904 68.0651L0.946907 68.1247C0.881077 68.2434 0.818158 68.3567 0.753531 68.4711C0.642666 68.6673 0.531967 68.8635 0.421692 69.0591L0.419272 69.0633C0.332681 69.2169 0.24634 69.3699 0.160156 69.5224V77.2062C0.466446 76.7401 0.775113 76.267 1.08141 75.7881C2.08818 74.214 3.00025 72.5969 3.87657 71.0431L4.03581 70.7609C4.0979 70.6509 4.15989 70.5411 4.22188 70.4314C4.27129 70.3439 4.31927 70.2581 4.36509 70.1756C4.38644 70.1372 4.40734 70.0995 4.42768 70.0629L4.42855 70.0613L4.42889 70.0607L4.43051 70.0579C4.76321 69.4583 4.94002 69.1571 5.13472 68.9352C5.27332 68.7772 5.41266 68.6709 5.67901 68.5882C6.24141 68.4135 6.78471 68.2029 7.23785 68.0272L7.26283 68.0177C7.49504 67.9276 7.70185 67.8476 7.89924 67.7751C8.51986 67.5474 9.02619 67.4012 9.55475 67.3408C9.98908 67.2912 10.3904 67.2123 10.7109 67.1492L10.7217 67.147C11.0649 67.0796 11.3212 67.0297 11.5817 66.9984C12.1788 66.9267 12.5974 67.0073 12.8755 67.1358C13.1301 67.2536 13.3739 67.4579 13.5766 67.8599C13.7835 68.2701 13.8179 68.4294 13.8261 68.4968C13.8383 68.597 13.8441 68.725 13.8457 68.9519C13.846 68.9942 13.8462 69.038 13.8464 69.087L13.8464 69.1037C13.8471 69.2886 13.848 69.5406 13.8624 69.7991C13.9236 70.8969 13.8797 71.7995 13.6864 72.5734C13.6654 72.6576 13.6455 72.7379 13.6265 72.8146C13.614 72.865 13.602 72.9138 13.5903 72.961L13.5895 72.9644C13.4067 73.7052 13.3144 74.0791 13.1377 74.3917C12.9988 74.6377 12.8571 74.8853 12.7117 75.1393L12.7068 75.1476C12.4182 75.652 12.1152 76.1815 11.8235 76.7175C11.5572 77.207 11.3119 77.6837 11.08 78.134L11.0796 78.1349L11.079 78.1358L11.0788 78.1364L11.0743 78.1452C10.7686 78.739 10.4862 79.287 10.1759 79.836C10.1752 79.8372 10.1745 79.8386 10.1738 79.8398H14.6828Z" fill="#4900EB"/>
</g>
<defs>
<clipPath id="clip0_278_536">
<rect width="80" height="80" fill="white"/>
</clipPath>
</defs>
</svg>
