<svg width="23" height="23" viewBox="0 0 23 23" fill="none" xmlns="http://www.w3.org/2000/svg">
<path d="M16.7665 5.27515C16.5125 5.27515 16.269 5.17424 16.0894 4.99464C15.9098 4.81503 15.8089 4.57143 15.8089 4.31742V3.83856C15.8089 3.71156 15.7585 3.58976 15.6687 3.49995C15.5789 3.41015 15.4572 3.3597 15.3302 3.3597L10.0638 3.3597C10.0001 3.35843 9.93679 3.36987 9.87759 3.39336C9.8184 3.41686 9.76448 3.45193 9.71901 3.49652C9.67353 3.54112 9.63741 3.59434 9.61275 3.65307C9.58809 3.7118 9.5754 3.77486 9.57541 3.83856L9.57541 19.1621C9.57541 19.2891 9.62585 19.4109 9.71564 19.5007C9.80542 19.5906 9.9272 19.641 10.0542 19.641H15.3206C15.4476 19.641 15.5694 19.5906 15.6591 19.5007C15.7489 19.4109 15.7994 19.2891 15.7994 19.1621V18.2044C15.7994 17.9504 15.9002 17.7068 16.0798 17.5272C16.2594 17.3476 16.5029 17.2467 16.7569 17.2467C17.0108 17.2467 17.2544 17.3476 17.434 17.5272C17.6135 17.7068 17.7144 17.9504 17.7144 18.2044V20.5987C17.7144 20.8527 17.6135 21.0963 17.434 21.2759C17.2544 21.4555 17.0108 21.5564 16.7569 21.5564L9.57541 21.5564V22.5142C9.57557 22.5852 9.56023 22.6555 9.53047 22.72C9.5007 22.7845 9.45722 22.8417 9.40306 22.8877C9.34726 22.9326 9.28257 22.9653 9.21325 22.9834C9.14394 23.0016 9.07156 23.0049 9.00089 22.993L0.38311 21.0776C0.273341 21.0552 0.174896 20.995 0.104913 20.9075C0.0349291 20.82 -0.00216138 20.7108 9.73996e-05 20.5987L9.73996e-05 2.40198C-0.00216138 2.28995 0.0349291 2.18067 0.104913 2.09318C0.174896 2.00568 0.273341 1.9455 0.38311 1.92311L9.00089 0.00766563C9.07104 -0.00491333 9.14309 -0.00198364 9.21199 0.0162506C9.28088 0.034483 9.34495 0.0675774 9.3997 0.113211C9.45445 0.158844 9.49855 0.215908 9.5289 0.280399C9.55926 0.344893 9.57513 0.415249 9.57541 0.486528L9.57541 1.44425L16.7569 1.44425C17.0108 1.44425 17.2544 1.54515 17.434 1.72476C17.6135 1.90437 17.7144 2.14797 17.7144 2.40198V4.31742C17.7144 4.56978 17.6149 4.81194 17.4374 4.99127C17.2599 5.17061 17.0188 5.27262 16.7665 5.27515ZM7.19116 11.0215C7.19115 10.7378 7.10715 10.4604 6.94975 10.2244C6.79234 9.98834 6.56859 9.8042 6.3067 9.6952C6.04481 9.58619 5.75651 9.55719 5.47816 9.61185C5.19981 9.66651 4.94387 9.80238 4.74263 10.0023C4.54138 10.2023 4.40384 10.4574 4.34734 10.7354C4.29084 11.0134 4.31792 11.302 4.42517 11.5646C4.53241 11.8273 4.71501 12.0523 4.94995 12.2113C5.18488 12.3703 5.46163 12.4562 5.74529 12.4581C5.93471 12.4593 6.12251 12.4231 6.29787 12.3515C6.47324 12.2799 6.63271 12.1742 6.7671 12.0407C6.90148 11.9072 7.00814 11.7484 7.08092 11.5735C7.1537 11.3985 7.19116 11.211 7.19116 11.0215Z" fill="white"/>
<path d="M21.535 12.4581L17.59 12.4581V14.1341C17.5895 14.3074 17.5421 14.4772 17.4527 14.6257C17.3633 14.7741 17.2354 14.8955 17.0825 14.9769C16.9328 15.0538 16.7654 15.0899 16.5973 15.0814C16.4292 15.073 16.2663 15.0205 16.125 14.929L11.4618 11.8164C11.3314 11.7288 11.2246 11.6105 11.1508 11.4718C11.077 11.3332 11.0383 11.1786 11.0383 11.0215C11.0383 10.8644 11.077 10.7098 11.1508 10.5711C11.2246 10.4325 11.3314 10.3142 11.4618 10.2266L16.125 7.11398C16.2691 7.01655 16.437 6.96022 16.6107 6.95106C16.7844 6.94189 16.9574 6.98023 17.1109 7.06195C17.2645 7.14367 17.3929 7.2657 17.4824 7.41491C17.5718 7.56413 17.619 7.7349 17.6187 7.90889V9.58491H21.5637C21.9447 9.58491 22.31 9.73626 22.5794 10.0057C22.8487 10.2751 23 10.6405 23 11.0215C23 11.4025 22.8487 11.7679 22.5794 12.0373C22.31 12.3067 21.9447 12.4581 21.5637 12.4581H21.535Z" fill="white"/>
</svg>
