<svg width="23" height="23" viewBox="0 0 23 23" fill="none" xmlns="http://www.w3.org/2000/svg">
    <g clip-path="url(#clip0_406_104)">
        <path d="M5.33388 14.7945L21.3866 1.54004" stroke="#DADADA" stroke-width="2" stroke-linecap="round" stroke-linejoin="round"/>
        <path d="M9.07713 16.4002L15.63 19.208C15.7529 19.2607 15.8856 19.2864 16.0192 19.2834C16.1528 19.2804 16.2842 19.2489 16.4046 19.1908C16.525 19.1328 16.6315 19.0496 16.7171 18.9469C16.8026 18.8443 16.8652 18.7244 16.9005 18.5955L21.545 2.03266C21.57 1.94415 21.5683 1.85025 21.5402 1.76268C21.5121 1.67512 21.4589 1.59776 21.3871 1.54027C21.3153 1.48277 21.2282 1.44769 21.1366 1.43941C21.0451 1.43112 20.9531 1.44999 20.8721 1.49366L1.93013 11.6822C1.775 11.7658 1.6466 11.8915 1.55966 12.0448C1.47272 12.1981 1.43077 12.3728 1.43863 12.5488C1.44649 12.7249 1.50383 12.8952 1.60408 13.0401C1.70433 13.1851 1.84342 13.2988 2.00538 13.3683L5.33038 14.7945" stroke="#DADADA" stroke-width="2" stroke-linecap="round" stroke-linejoin="round"/>
        <path d="M5.33388 14.7944L7.60888 21.0944C7.65324 21.2176 7.73108 21.326 7.83363 21.4074C7.93619 21.4889 8.05941 21.5401 8.18946 21.5553C8.31951 21.5706 8.45124 21.5493 8.56986 21.4939C8.68849 21.4384 8.78931 21.351 8.861 21.2414L11.3889 17.3914" stroke="#DADADA" stroke-width="2" stroke-linecap="round" stroke-linejoin="round"/>
        <path d="M21.3866 1.54004L9.07712 16.3993L8.27562 21.5627" stroke="#DADADA" stroke-width="2" stroke-linecap="round" stroke-linejoin="round"/>
    </g>
    <defs>
    <clipPath id="clip0_406_104">
        <rect width="23" height="23" fill="white"/>
    </clipPath>
    </defs>
</svg>