<svg width="420" height="420" viewBox="0 0 420 420" fill="none" xmlns="http://www.w3.org/2000/svg">
<path d="M298.2 190.739C294.674 183.664 283.691 185.319 280.705 193.679C281.083 193.12 282.521 193.807 297.616 190.596C297.729 190.571 297.846 190.579 297.954 190.62C298.062 190.661 298.156 190.733 298.223 190.827C298.22 190.797 298.212 190.767 298.2 190.739Z" fill="#5B2EAA"/>
<path d="M298.263 190.85L298.225 190.819C298.158 190.725 298.064 190.654 297.956 190.612C297.848 190.571 297.731 190.563 297.618 190.588C281.658 193.985 280.657 192.967 280.625 193.916C279.983 196.362 280.272 198.959 281.436 201.203C282.6 203.448 284.556 205.18 286.925 206.065C289.289 206.807 291.848 206.608 294.068 205.508C296.288 204.409 297.997 202.494 298.838 200.164C299.395 198.656 299.631 197.05 299.532 195.446C299.432 193.843 299 192.277 298.263 190.85Z" fill="white"/>
<path d="M265.831 196.176C264.547 196.409 265.091 198.366 266.37 198.133L277.147 196.169C278.431 195.936 277.887 193.979 276.608 194.212L265.831 196.176Z" fill="#5B2EAA"/>
<path d="M248.674 240.37C240.931 217.841 225.794 200.581 202.705 196.041C195.423 194.396 187.839 194.668 180.694 196.831L181.238 199.668C181.482 200.947 179.523 201.491 179.279 200.21L178.773 197.564C174.804 199.189 171.36 201.869 168.806 205.315C167.841 206.624 167.063 208.062 166.496 209.586C166.939 209.483 179.726 206.684 185.65 205.262C185.797 205.225 185.951 205.246 186.082 205.32C186.214 205.395 186.311 205.517 186.354 205.661C186.81 207.841 187.509 209.962 188.002 212.136C188.037 212.284 188.013 212.44 187.934 212.571C187.856 212.702 187.73 212.797 187.582 212.837C186.85 213.018 182.347 211.51 178.689 212.453C176.068 213.129 172.853 215.55 174.006 218.658C174.756 220.674 177.187 221.323 179.046 221.808C182.948 222.663 186.893 223.314 190.863 223.759C190.957 223.787 191.043 223.837 191.112 223.907C191.181 223.976 191.232 224.062 191.26 224.156C191.337 224.446 191.425 224.731 191.507 225.021C194.904 225.5 198.177 226.624 201.151 228.333C203.268 229.594 205.074 231.317 206.432 233.373C210.065 232 213.958 231.462 217.827 231.798C222.41 232.374 226.666 234.479 229.904 237.775C234.263 242.303 237.307 247.933 238.709 254.06C241.964 249.78 244.91 245.24 247.783 240.717C247.834 240.635 247.906 240.568 247.99 240.523C248.075 240.477 248.17 240.454 248.266 240.456C248.362 240.458 248.456 240.484 248.539 240.532C248.622 240.579 248.691 240.647 248.741 240.729C248.734 240.607 248.712 240.486 248.674 240.37Z" fill="white"/>
<path d="M135.208 318.196C130.25 308.745 128.174 298.047 129.238 287.427C123.761 284.98 118.276 282.557 112.843 280.312L112.818 280.298C112.513 280.186 112.259 279.968 112.101 279.685C111.943 279.401 111.892 279.07 111.957 278.752C112.038 278.505 112.183 278.284 112.377 278.111C112.113 276.931 100.617 226.479 100.367 225.372C100.329 225.226 100.349 225.07 100.423 224.939C100.498 224.807 100.621 224.71 100.766 224.669C107.01 223.287 148.016 213.851 148.455 213.749C135.67 201.445 112.306 200.403 99.2712 215.219C99.6534 216.817 99.9579 218.159 100.34 219.87C100.624 221.145 98.6601 221.684 98.3829 220.41L97.6458 217.186C94.1328 221.853 91.5836 227.172 90.1467 232.833C83.5175 232.804 77.0097 234.612 71.3454 238.056C48.0018 252.546 33.0624 287.927 39.9567 315.67C40.7451 319.119 42.2554 322.362 44.3881 325.186C46.5208 328.009 49.2275 330.349 52.3299 332.05C58.8777 335.687 66.6351 338.35 74.0901 336.181C80.4966 334.074 85.9572 329.78 89.5146 324.051C93.9099 317.331 95.7978 309.542 97.3203 301.76C99.2649 322.921 119.238 347.724 141.721 346.819C147.718 346.658 153.493 344.517 158.145 340.729C148.371 334.82 140.618 328.425 135.208 318.196Z" fill="white"/>
<path d="M80.7576 360.553C70.7614 352.705 58.4164 348.447 45.7076 348.464C32.9989 348.48 20.6649 352.77 10.689 360.644C10.269 360.967 10.6386 361.635 11.0922 361.618H80.4699C80.5925 361.613 80.7104 361.569 80.8059 361.492C80.8782 361.435 80.9357 361.361 80.9736 361.277C81.0115 361.193 81.0288 361.102 81.0238 361.01C81.0189 360.918 80.9919 360.828 80.9452 360.749C80.8985 360.669 80.8356 360.602 80.7576 360.553Z" fill="#5B2EAA"/>
<path d="M326.374 247.523C322.432 229.318 309.819 218.515 297.394 216.653C283.93 214.641 271.217 221.983 262.357 231.512C257.906 236.358 254.02 241.693 250.774 247.416C250.536 246.521 249.018 241.015 248.743 240.712C248.694 240.63 248.625 240.561 248.542 240.512C248.459 240.464 248.364 240.438 248.268 240.437C248.172 240.436 248.077 240.459 247.992 240.505C247.907 240.551 247.836 240.618 247.785 240.7C244.912 245.232 241.966 249.763 238.711 254.043C240.614 261.217 240.92 267.198 242.317 275.806C244.352 288.355 252.149 291.167 257.517 288.326C257.529 288.174 257.579 288.027 257.661 287.899C257.743 287.771 257.855 287.664 257.987 287.589C262.051 285.247 264.001 280.82 265.635 276.618C265.711 276.362 265.883 276.144 266.116 276.012C266.349 275.88 266.623 275.843 266.883 275.908C267.011 275.944 267.132 276.004 267.237 276.086C267.343 276.168 267.431 276.27 267.497 276.386C267.563 276.502 267.605 276.63 267.622 276.762C267.638 276.895 267.628 277.029 267.592 277.158C265.866 281.599 263.76 286.072 259.749 288.83C275.608 300.365 282.586 310.67 292.165 329.553C295.462 325.88 298.292 321.814 300.592 317.446C301.199 316.287 302.952 317.316 302.345 318.471C299.834 323.232 296.717 327.647 293.072 331.607C292.968 331.732 292.83 331.825 292.675 331.875C292.52 331.924 292.353 331.928 292.196 331.886C288.157 336.356 283.599 340.33 278.62 343.722C271.534 348.211 262.303 349.52 253.84 349.406C241.097 349.234 229.152 345.824 219.643 337.117C210.41 328.193 204.16 316.634 201.749 304.021C200.637 297.754 200.059 291.404 200.023 285.039C188.88 289.124 174.163 294.378 162.828 297.769C162.023 298.009 157.798 299.239 157.139 299.372C156.551 299.407 155.963 299.26 155.459 298.952C154.503 298.553 129.599 287.58 129.232 287.416C128.372 295.402 129.342 303.478 132.069 311.032C134.796 318.586 139.207 325.42 144.969 331.015C149.703 335.291 154.905 339.019 160.476 342.128C172.152 349.045 181.896 354.012 193.389 356.895C214.555 362.036 236.613 362.3 257.897 357.668C268.479 355.292 278.365 350.493 286.776 343.646C305.482 328.822 318.757 308.225 324.532 285.067C327.61 272.956 329.043 259.85 326.374 247.523ZM168.454 306.743C168.713 306.678 168.988 306.716 169.22 306.848C169.453 306.98 169.626 307.196 169.703 307.453L175.583 322.522C175.653 322.782 175.618 323.059 175.485 323.293C175.352 323.527 175.132 323.699 174.873 323.772C174.614 323.835 174.34 323.797 174.108 323.665C173.876 323.533 173.704 323.317 173.626 323.062L167.746 307.992C167.676 307.734 167.711 307.459 167.843 307.227C167.975 306.994 168.194 306.823 168.451 306.751L168.454 306.743ZM156.349 324.578L159.05 307.453C159.122 307.193 159.294 306.973 159.528 306.84C159.762 306.708 160.039 306.672 160.299 306.743C160.554 306.822 160.769 306.995 160.901 307.227C161.032 307.459 161.07 307.733 161.007 307.992L158.308 325.118C158.273 325.247 158.213 325.367 158.131 325.473C158.049 325.578 157.947 325.666 157.831 325.732C157.715 325.798 157.587 325.84 157.455 325.857C157.322 325.873 157.188 325.863 157.059 325.828C156.805 325.75 156.589 325.579 156.457 325.348C156.325 325.118 156.285 324.845 156.347 324.586L156.349 324.578ZM141.412 315.93C141.859 315.475 148.972 308.261 152.088 305.109C153.008 304.179 154.442 305.615 153.525 306.545L142.846 317.365C141.924 318.305 140.49 316.869 141.41 315.939L141.412 315.93Z" fill="#9C74E1"/>
<path d="M195.737 267.042C195.202 268.606 194.535 270.12 193.742 271.57C193.065 272.807 191.997 273.784 190.704 274.347C189.411 274.91 187.968 275.027 186.602 274.68C185.433 274.188 184.45 273.34 183.792 272.256C183.135 271.172 182.836 269.908 182.939 268.645C183.091 266.689 183.345 264.743 183.7 262.813C176.629 266.072 173.926 270.285 169.247 269.978C167.938 269.878 166.71 269.307 165.789 268.37C164.869 267.434 164.319 266.196 164.241 264.886C161.24 265.755 114.114 279.424 113.335 279.64C113.189 279.679 113.034 279.659 112.903 279.584C112.771 279.51 112.675 279.386 112.634 279.241L112.377 278.111C112.35 278.139 112.325 278.17 112.3 278.2C112.148 278.354 112.038 278.546 111.981 278.755C111.924 278.964 111.921 279.184 111.974 279.395C112.026 279.606 112.131 279.799 112.279 279.958C112.427 280.116 112.614 280.234 112.82 280.3L112.846 280.314C122.161 284.161 150.927 297.066 155.476 298.964C155.98 299.273 156.568 299.42 157.156 299.384C157.8 299.256 161.881 298.07 162.845 297.782C174.008 294.443 189.095 289.071 200.04 285.052C199.817 277.964 199.437 272.918 195.737 267.042Z" fill="#D5C4F2"/>
<path d="M191.264 224.152C191.237 224.057 191.187 223.971 191.117 223.902C191.048 223.832 190.961 223.782 190.867 223.755C186.896 223.314 182.952 222.663 179.05 221.804C177.187 221.323 174.756 220.674 174.01 218.654C172.857 215.546 176.072 213.125 178.693 212.449C181.56 212.005 184.487 212.136 187.303 212.833C187.4 212.857 187.502 212.856 187.598 212.829C187.695 212.803 187.782 212.752 187.853 212.681C187.924 212.611 187.975 212.523 188.002 212.427C188.029 212.33 188.031 212.229 188.007 212.132C187.513 209.958 186.814 207.837 186.358 205.657C186.315 205.513 186.218 205.391 186.087 205.316C185.956 205.242 185.801 205.221 185.655 205.258C179.733 206.678 107.003 223.278 100.762 224.664C100.618 224.708 100.496 224.805 100.422 224.936C100.348 225.067 100.327 225.222 100.363 225.368C101.224 228.873 112.543 278.861 112.629 279.237C112.671 279.382 112.767 279.505 112.898 279.58C113.03 279.655 113.185 279.675 113.331 279.636C114.11 279.426 161.236 265.751 164.237 264.881C164.006 261.269 167.511 257.08 169.888 254.306C168.521 254.048 167.246 253.433 166.193 252.524C165.14 251.615 164.345 250.444 163.89 249.129C163.65 247.638 163.979 246.111 164.812 244.85C165.645 243.59 166.92 242.688 168.386 242.323C169.535 240.515 170.696 238.705 171.746 236.836L160.86 229.608C159.774 228.887 160.793 227.13 161.885 227.854C161.885 227.854 170.157 233.426 173.611 235.639C173.836 235.782 173.999 236.005 174.066 236.263C174.134 236.52 174.101 236.794 173.974 237.029C173.021 238.787 171.958 240.496 170.881 242.189C173.882 242.533 176.121 243.644 180.417 243.159C184.425 242.668 188.321 241.504 191.942 239.717C192.765 239.243 195.079 237.901 195.413 237.703C194.46 234.709 192.079 227.161 191.264 224.152ZM154.066 229.001C151.616 238.361 148.877 247.645 146.103 256.914C146.041 257.097 145.928 257.259 145.777 257.38C145.626 257.502 145.443 257.578 145.251 257.599C145.058 257.621 144.864 257.587 144.69 257.502C144.516 257.417 144.369 257.285 144.268 257.12C144.133 256.896 144.09 256.629 144.146 256.374C146.597 247.015 149.333 237.731 152.107 228.461C152.183 228.207 152.356 227.992 152.589 227.864C152.821 227.735 153.095 227.703 153.35 227.774C153.607 227.843 153.826 228.011 153.96 228.241C154.094 228.47 154.133 228.743 154.066 229.001ZM123.217 248.098C126.815 243.314 130.412 238.531 134.005 233.745C134.146 233.517 134.368 233.352 134.627 233.284C134.886 233.216 135.161 233.25 135.395 233.379C135.628 233.516 135.797 233.739 135.865 233.999C135.933 234.26 135.895 234.537 135.759 234.77L125.719 248.13C130.168 249.776 134.681 251.252 139.119 252.939C139.376 253.014 139.594 253.186 139.727 253.42C139.859 253.653 139.895 253.929 139.826 254.188C139.754 254.447 139.583 254.667 139.349 254.8C139.115 254.932 138.838 254.967 138.579 254.896C133.692 253.04 128.709 251.448 123.824 249.591C123.283 249.383 122.787 248.672 123.217 248.098Z" fill="white"/>
<path d="M194.949 265.86C193.653 263.746 191.579 262.226 189.172 261.629C187.271 261.477 185.368 261.887 183.698 262.807C183.341 264.737 183.089 266.683 182.937 268.638C182.832 269.902 183.13 271.167 183.788 272.251C184.446 273.335 185.43 274.183 186.6 274.674C187.966 275.02 189.409 274.902 190.701 274.339C191.994 273.776 193.062 272.8 193.74 271.564C194.533 270.114 195.2 268.599 195.735 267.036C195.483 266.637 195.221 266.245 194.949 265.86Z" fill="white"/>
<path d="M242.071 81.48C240.532 75.9121 238.247 70.5781 235.278 65.6229C233.992 63.1526 232.508 60.7908 230.84 58.5606C230.559 58.1973 230 58.4451 229.885 58.8126C227.641 64.8316 226.507 71.2072 226.535 77.6307C226.753 84.083 228.728 90.3536 232.247 95.7663C234.446 98.9581 237.213 101.719 240.41 103.91C240.473 103.954 240.545 103.984 240.621 103.997C240.697 104.01 240.775 104.006 240.849 103.986C240.923 103.966 240.993 103.93 241.052 103.881C241.111 103.832 241.159 103.77 241.191 103.7C244.385 96.6609 243.967 88.7712 242.071 81.48Z" fill="#D5C4F2"/>
<path d="M139.826 254.188C139.893 253.929 139.856 253.654 139.724 253.421C139.592 253.188 139.375 253.015 139.119 252.939C134.681 251.259 130.168 249.776 125.719 248.13L135.759 234.77C135.894 234.537 135.931 234.26 135.863 234C135.795 233.739 135.627 233.516 135.395 233.379C135.161 233.25 134.886 233.216 134.627 233.284C134.368 233.352 134.146 233.517 134.005 233.745L123.217 248.098C122.797 248.672 123.283 249.383 123.824 249.591C128.711 251.448 133.694 253.04 138.579 254.896C138.838 254.967 139.115 254.932 139.349 254.8C139.583 254.667 139.754 254.447 139.826 254.188Z" fill="#5B2EAA"/>
<path d="M173.613 235.639C170.159 233.425 161.887 227.854 161.887 227.854C160.795 227.13 159.787 228.887 160.862 229.608L171.755 236.84C170.705 238.709 169.537 240.519 168.395 242.327C169.213 242.145 170.056 242.098 170.89 242.189C171.98 240.505 173.012 238.784 173.983 237.029C174.11 236.794 174.142 236.519 174.074 236.261C174.005 236.002 173.84 235.78 173.613 235.639Z" fill="#5B2EAA"/>
<path d="M152.107 228.461C149.331 237.73 146.597 247.015 144.146 256.374C144.106 256.564 144.12 256.76 144.188 256.942C144.255 257.123 144.373 257.282 144.527 257.399C144.681 257.516 144.865 257.587 145.058 257.603C145.251 257.62 145.444 257.581 145.616 257.491C145.847 257.369 146.021 257.162 146.103 256.914C148.877 247.645 151.618 238.363 154.066 229.001C154.118 228.748 154.071 228.485 153.936 228.265C153.801 228.045 153.588 227.884 153.339 227.816C153.09 227.747 152.824 227.776 152.596 227.896C152.367 228.015 152.193 228.217 152.107 228.461Z" fill="#5B2EAA"/>
<path d="M384.953 269.898C367.5 284.939 353.105 315.21 348.18 337.89C348.079 288.261 347.76 268.223 344.373 234.604C359.467 235.066 374.136 229.11 382.28 215.786C382.324 215.723 382.354 215.65 382.367 215.575C382.38 215.499 382.376 215.421 382.355 215.347C382.335 215.272 382.299 215.203 382.25 215.144C382.201 215.085 382.139 215.037 382.07 215.004C378.595 213.372 374.824 212.464 370.986 212.335C367.149 212.206 363.326 212.859 359.749 214.255C356.171 215.648 352.914 217.755 350.176 220.447C347.438 223.139 345.276 226.36 343.823 229.914C342.146 215.973 339.625 202.146 336.273 188.511C331.588 172.708 323.121 158.286 311.606 146.492C298.767 133.262 284.962 124.549 267.611 116.794C265.432 115.767 263.201 114.694 261.017 113.684C273.556 106.224 280.337 84.9808 271.072 67.6936C271.027 67.6196 270.966 67.5568 270.893 67.5095C270.82 67.4623 270.738 67.4319 270.652 67.4206C270.566 67.4091 270.478 67.4173 270.396 67.4446C270.313 67.4719 270.238 67.5175 270.175 67.5781C259.507 77.8807 251.989 89.4769 254.482 104.156C255.091 107.679 256.442 111.033 258.445 113.994C251.202 112.976 243.844 113.104 236.641 114.374C230.762 115.421 225.204 117.808 220.396 121.35C215.589 124.891 211.662 129.493 208.921 134.797C208.883 134.874 208.862 134.958 208.859 135.043C208.857 135.129 208.872 135.214 208.904 135.293C208.936 135.373 208.985 135.444 209.047 135.503C209.109 135.563 209.182 135.608 209.263 135.637C224.624 141.994 241.702 139.581 253.838 126.441C256.765 123.343 259.149 119.773 260.889 115.882C277.803 123.772 289.869 129.112 304.62 142.552C317.701 154.156 327.554 168.95 333.22 185.493C334.994 191.123 336.402 196.862 337.434 202.673C347.048 252.248 345.96 297.532 346.2 355.03C346.213 355.291 346.326 355.536 346.514 355.717C346.703 355.897 346.953 355.999 347.214 356C347.476 356 347.727 355.899 347.916 355.719C348.106 355.538 348.218 355.292 348.23 355.03C347.855 330.288 366.465 287.975 386.396 271.324C387.393 270.497 385.951 269.067 384.953 269.898Z" fill="#D5C4F2"/>
<path d="M293.074 331.613C296.719 327.653 299.836 323.238 302.348 318.478C302.954 317.323 301.201 316.294 300.594 317.453C298.295 321.82 295.464 325.886 292.167 329.559C293.007 331.239 293.097 330.922 292.198 331.892C292.356 331.933 292.521 331.929 292.676 331.879C292.831 331.83 292.969 331.738 293.074 331.613Z" fill="white"/>
<path d="M267.595 277.164C267.666 276.904 267.631 276.627 267.498 276.393C267.365 276.158 267.145 275.986 266.885 275.915C266.625 275.847 266.35 275.884 266.117 276.016C265.884 276.149 265.712 276.367 265.637 276.625C264.004 280.825 262.053 285.253 257.989 287.595C257.856 287.67 257.744 287.776 257.662 287.905C257.58 288.033 257.531 288.18 257.519 288.332C257.71 288.24 257.905 288.154 258.092 288.046C258.18 287.996 258.279 287.97 258.38 287.97C258.481 287.97 258.58 287.996 258.668 288.046C259.031 288.307 259.39 288.574 259.751 288.836C263.76 286.079 265.86 281.61 267.595 277.164Z" fill="white"/>
<path d="M292.761 330.702C288.939 322.75 284.468 315.126 279.394 307.908C273.646 300.174 266.64 293.46 258.667 288.046C258.58 287.996 258.481 287.97 258.38 287.97C258.279 287.97 258.18 287.996 258.092 288.046C252.357 291.343 244.385 288.561 242.319 275.812C240.095 262.097 239.956 247.714 229.908 237.764C226.67 234.469 222.415 232.363 217.831 231.787C210.601 230.989 203.7 234.219 196.976 237.397C197.204 237.529 197.371 237.746 197.442 238C197.513 238.254 197.481 238.526 197.354 238.757C197.27 238.911 197.147 239.039 196.999 239.131C182.694 247.378 177.437 249.57 171.709 254.612C171.561 254.748 171.376 254.838 171.178 254.87C170.98 254.903 170.777 254.877 170.593 254.795C170.41 254.714 170.254 254.581 170.145 254.412C170.036 254.243 169.979 254.047 169.98 253.846C169.989 253.619 170.076 253.403 170.228 253.235C174.691 248.839 182.198 245.341 191.944 239.717C188.323 241.504 184.427 242.668 180.419 243.159C176.009 243.657 173.922 242.529 170.883 242.189C169.935 242.036 168.963 242.109 168.048 242.403C167.134 242.698 166.301 243.204 165.62 243.881C164.938 244.558 164.426 245.387 164.126 246.3C163.826 247.213 163.746 248.184 163.892 249.133C164.348 250.448 165.142 251.619 166.195 252.528C167.249 253.437 168.523 254.052 169.89 254.31C167.832 256.712 164.659 260.61 164.277 263.686C164.158 264.431 164.195 265.192 164.385 265.921C164.575 266.651 164.914 267.333 165.381 267.925C165.848 268.517 166.432 269.005 167.097 269.36C167.762 269.715 168.494 269.928 169.245 269.986C173.966 270.295 176.805 265.938 183.697 262.821C185.367 261.899 187.271 261.49 189.172 261.643C191.578 262.241 193.653 263.761 194.949 265.875C202.543 276.398 198.265 285.68 201.751 304.036C204.162 316.648 210.412 328.208 219.645 337.132C229.158 345.843 241.103 349.249 253.842 349.421C262.303 349.535 271.534 348.228 278.622 343.736C283.601 340.344 288.159 336.371 292.198 331.901C292.574 331.487 293.017 331.191 292.761 330.702ZM232.189 330.88C229.377 330.16 226.632 329.202 223.982 328.018C223.75 327.881 223.581 327.658 223.513 327.398C223.444 327.138 223.482 326.861 223.616 326.628C223.758 326.401 223.981 326.237 224.239 326.169C224.498 326.102 224.772 326.136 225.007 326.264C227.506 327.354 230.089 328.243 232.728 328.921C232.983 328.997 233.197 329.17 233.326 329.402C233.454 329.635 233.487 329.908 233.416 330.164C233.346 330.42 233.178 330.639 232.948 330.772C232.719 330.906 232.446 330.945 232.189 330.88Z" fill="white"/>
<path d="M232.728 328.921C230.088 328.241 227.506 327.352 225.007 326.264C224.772 326.136 224.498 326.102 224.239 326.169C223.981 326.237 223.758 326.401 223.616 326.628C223.482 326.861 223.444 327.138 223.513 327.398C223.581 327.658 223.75 327.881 223.982 328.018C226.632 329.202 229.377 330.16 232.189 330.88C232.381 330.929 232.583 330.921 232.771 330.856C232.959 330.791 233.123 330.673 233.244 330.516C233.365 330.358 233.437 330.169 233.451 329.971C233.466 329.773 233.422 329.575 233.325 329.402C233.196 329.17 232.982 328.997 232.728 328.921Z" fill="#9C74E1"/>
<path d="M185.579 243.314C181.873 245.246 178.266 247.363 174.773 249.656C173.188 250.755 171.671 251.947 170.228 253.226C170.106 253.365 170.026 253.535 169.996 253.717C169.967 253.899 169.989 254.086 170.061 254.256C170.132 254.426 170.251 254.572 170.402 254.678C170.553 254.784 170.731 254.845 170.915 254.854C171.057 254.87 171.201 254.855 171.338 254.812C171.475 254.769 171.601 254.698 171.709 254.604C176.942 249.999 182.238 247.527 188.845 243.837C191.587 242.306 194.279 240.687 196.999 239.123C198.131 238.472 197.047 236.702 195.974 237.371C192.52 239.372 189.055 241.353 185.579 243.314Z" fill="#9C74E1"/>
<path d="M119.177 192.394C117.993 188.208 114.996 178.744 114.82 178.151C114.778 178.006 114.681 177.882 114.55 177.807C114.418 177.733 114.262 177.713 114.116 177.752C109.933 178.937 100.466 181.929 99.8739 182.11C99.7283 182.151 99.6048 182.247 99.5301 182.379C99.4553 182.51 99.4355 182.665 99.4749 182.811C100.838 186.942 103.658 196.461 103.834 197.054C103.875 197.199 103.972 197.323 104.103 197.397C104.234 197.472 104.39 197.492 104.536 197.453C108.719 196.268 118.186 193.271 118.778 193.095C118.923 193.054 119.046 192.957 119.121 192.826C119.196 192.695 119.216 192.539 119.177 192.394Z" fill="#9C74E1"/>
<path d="M143.627 185.886C142.464 184.75 132.869 175.791 132.583 175.65C132.512 175.606 132.431 175.578 132.347 175.569C132.263 175.559 132.178 175.568 132.098 175.595C132.018 175.622 131.944 175.666 131.883 175.724C131.822 175.782 131.774 175.853 131.743 175.932C131.481 176.337 129.043 183.072 126.884 189.355C126.733 189.796 127.191 190.138 127.585 190.056L143.384 186.839C143.479 186.811 143.565 186.758 143.634 186.687C143.702 186.616 143.751 186.528 143.776 186.431C143.8 186.335 143.8 186.235 143.774 186.139C143.748 186.043 143.697 185.956 143.627 185.886Z" fill="#D5C4F2"/>
<path d="M158.561 175.264C157.938 173.818 156.88 172.602 155.534 171.787C154.188 170.971 152.621 170.595 151.051 170.713C149.68 170.792 148.372 171.312 147.322 172.197C146.272 173.081 145.536 174.282 145.226 175.619C143.894 181.694 151.414 186.251 156.372 182.587C157.466 181.756 158.268 180.599 158.661 179.282C159.055 177.966 159.019 176.559 158.561 175.264Z" fill="#9C74E1"/>
<path d="M90.3987 171.232C89.2724 170.347 87.9667 169.718 86.5725 169.39C85.1783 169.061 83.7293 169.04 82.3263 169.329C79.8063 170.087 77.1645 172.689 78.5988 175.449C79.2839 176.485 80.1835 177.361 81.2367 178.02C82.2899 178.678 83.4721 179.102 84.7035 179.264C87.2487 179.749 90.489 179.833 92.2194 177.542C93.9498 175.251 92.3538 172.731 90.3987 171.232Z" fill="#9C74E1"/>
<path d="M65.6607 165.879C65.4927 165.631 66.2382 165.988 51.5739 160.419C50.9754 160.19 50.7129 160.982 51.0195 161.372L57.8634 170.142C57.9532 170.231 58.0695 170.288 58.1947 170.304C58.3198 170.32 58.4469 170.295 58.5564 170.232L65.3646 166.792C65.4598 166.772 65.5479 166.727 65.6202 166.662C65.6925 166.597 65.7464 166.514 65.7764 166.421C65.8064 166.329 65.8115 166.23 65.7912 166.135C65.7709 166.039 65.7259 165.951 65.6607 165.879Z" fill="#D5C4F2"/>
<path d="M83.0193 156.418L76.125 150.958C76.0652 150.866 75.9736 150.798 75.8672 150.767C75.7609 150.737 75.6472 150.747 75.5475 150.795L65.6775 154.636C65.3247 154.774 65.0475 155.293 65.4255 155.591L72.45 161.242C72.5214 161.313 72.6102 161.364 72.7075 161.39C72.8048 161.416 72.9072 161.416 73.0044 161.389L82.7589 157.374C83.1138 157.231 83.3973 156.719 83.0193 156.418Z" fill="#9C74E1"/>
<path d="M409.08 286.807C405.211 285.608 401.149 285.153 397.11 285.466C393.088 285.537 389.083 286.003 385.153 286.858C378.162 288.316 371.975 292.349 367.821 298.158C365.422 301.521 363.421 305.151 361.859 308.975C361.712 309.336 362.069 309.683 362.41 309.697C370.224 310.036 380.05 309.513 387.259 306.566C393.159 303.778 398.536 299.995 403.152 295.382C405.58 293.098 407.687 290.496 409.416 287.645C409.582 287.377 409.5 287.02 409.08 286.807Z" fill="#D5C4F2"/>
<path d="M364.86 267.002C364.795 266.905 364.699 266.831 364.587 266.792C364.533 266.752 364.47 266.725 364.403 266.712C364.337 266.7 364.268 266.702 364.203 266.719C364.137 266.735 364.076 266.766 364.024 266.809C363.971 266.851 363.929 266.905 363.901 266.967L363.873 267.005C363.831 267.068 363.803 267.14 363.791 267.215C361.492 273.155 360.994 279.641 362.359 285.863C362.945 288.171 363.972 290.344 365.383 292.263C365.435 292.347 365.508 292.417 365.594 292.464C365.681 292.512 365.778 292.537 365.877 292.536C365.975 292.536 366.072 292.512 366.158 292.465C366.245 292.417 366.317 292.347 366.37 292.263C370.976 284.97 369.413 273.788 364.86 267.002Z" fill="#D5C4F2"/>
<path d="M203.257 177.29V158.624C203.245 158.362 203.133 158.116 202.944 157.935C202.755 157.754 202.503 157.653 202.242 157.653C201.98 157.653 201.728 157.754 201.539 157.935C201.35 158.116 201.238 158.362 201.226 158.624V177.29C201.238 177.552 201.35 177.798 201.539 177.979C201.728 178.16 201.98 178.261 202.242 178.261C202.503 178.261 202.755 178.16 202.944 177.979C203.133 177.798 203.245 177.552 203.257 177.29Z" fill="#5B2EAA"/>
<path d="M208.83 180.109C209.064 180.239 209.339 180.274 209.598 180.206C209.857 180.137 210.079 179.972 210.218 179.743L224.154 161.49C224.289 161.257 224.327 160.98 224.259 160.72C224.191 160.459 224.023 160.236 223.791 160.1C223.557 159.969 223.281 159.935 223.022 160.003C222.763 160.071 222.54 160.237 222.4 160.465L208.467 178.71C208.398 178.825 208.353 178.953 208.334 179.087C208.315 179.22 208.323 179.355 208.357 179.485C208.391 179.615 208.45 179.737 208.531 179.844C208.612 179.951 208.714 180.041 208.83 180.109Z" fill="#5B2EAA"/>
<path d="M231.945 178.355L215.798 185.231C215.566 185.367 215.398 185.589 215.329 185.849C215.261 186.109 215.298 186.386 215.433 186.619C215.575 186.844 215.798 187.007 216.056 187.075C216.314 187.143 216.588 187.11 216.823 186.984L232.97 180.109C233.202 179.972 233.372 179.75 233.442 179.489C233.476 179.36 233.484 179.226 233.465 179.094C233.447 178.962 233.403 178.835 233.335 178.721C233.267 178.606 233.177 178.506 233.071 178.426C232.964 178.347 232.843 178.289 232.714 178.256C232.454 178.189 232.179 178.224 231.945 178.355Z" fill="#5B2EAA"/>
<path d="M153.523 306.554C154.44 305.624 153.006 304.187 152.086 305.117L141.41 315.939C140.49 316.869 141.924 318.305 142.844 317.373L153.523 306.554Z" fill="#5B2EAA"/>
<path d="M160.297 306.751C160.037 306.681 159.76 306.716 159.526 306.849C159.292 306.982 159.12 307.202 159.048 307.461L156.347 324.586C156.283 324.846 156.321 325.12 156.453 325.352C156.585 325.585 156.801 325.758 157.057 325.836C157.317 325.906 157.594 325.871 157.828 325.738C158.062 325.605 158.234 325.385 158.306 325.126L161.005 308.001C161.068 307.741 161.029 307.468 160.898 307.236C160.767 307.004 160.552 306.831 160.297 306.751Z" fill="#5B2EAA"/>
<path d="M169.701 307.461C169.624 307.205 169.451 306.988 169.219 306.855C168.986 306.723 168.711 306.686 168.452 306.751C168.323 306.786 168.202 306.846 168.097 306.928C167.991 307.01 167.903 307.112 167.837 307.228C167.771 307.344 167.729 307.473 167.713 307.605C167.697 307.738 167.708 307.872 167.744 308.001L173.624 323.07C173.702 323.325 173.875 323.541 174.107 323.673C174.338 323.805 174.612 323.843 174.871 323.78C175 323.745 175.121 323.685 175.226 323.603C175.331 323.521 175.42 323.419 175.486 323.303C175.552 323.187 175.594 323.059 175.61 322.926C175.627 322.794 175.617 322.659 175.581 322.531L169.701 307.461Z" fill="#5B2EAA"/>
<path d="M34.02 261.099C35.9178 254.343 39.5567 248.204 44.5725 243.296C45.5175 242.388 44.079 240.954 43.1361 241.859C37.7752 246.935 33.9398 253.409 32.0628 260.549C32.0226 260.738 32.037 260.935 32.1044 261.117C32.1719 261.298 32.2895 261.457 32.4436 261.574C32.5977 261.691 32.7819 261.762 32.9748 261.778C33.1676 261.795 33.3612 261.756 33.5328 261.666C33.7633 261.543 33.9377 261.337 34.02 261.089V261.099Z" fill="#5B2EAA"/>
<path d="M40.5825 238.033C41.5611 237.164 40.1184 235.723 39.1461 236.599C32.728 242.334 27.6756 249.433 24.36 257.376C24.3237 257.504 24.3133 257.639 24.3293 257.771C24.3453 257.904 24.3875 258.032 24.4533 258.148C24.5191 258.264 24.6073 258.365 24.7128 258.447C24.8183 258.529 24.9389 258.589 25.0677 258.623C25.3285 258.692 25.6057 258.656 25.8408 258.524C26.0759 258.392 26.2505 258.174 26.3277 257.916C29.5447 250.312 34.4141 243.52 40.5825 238.033Z" fill="#5B2EAA"/>
<path d="M99.0571 171.614C99.1937 171.846 99.4167 172.015 99.6772 172.083C99.9377 172.151 100.215 172.113 100.447 171.977C100.676 171.839 100.841 171.616 100.909 171.358C100.977 171.099 100.941 170.824 100.811 170.591L95.8651 159.953C95.7242 159.728 95.5009 159.567 95.2429 159.504C94.9849 159.441 94.7125 159.481 94.4838 159.616C94.2552 159.751 94.0882 159.97 94.0187 160.226C93.9492 160.483 93.9825 160.756 94.1116 160.988L99.0571 171.614Z" fill="#9C74E1"/>
<path d="M103.408 169.76C103.485 170.018 103.659 170.237 103.895 170.369C104.13 170.501 104.407 170.537 104.668 170.468C104.927 170.396 105.148 170.224 105.28 169.99C105.413 169.756 105.447 169.479 105.376 169.22L101.004 158.111C100.925 157.856 100.751 157.641 100.519 157.509C100.287 157.377 100.014 157.339 99.7542 157.401C99.4944 157.473 99.2737 157.645 99.1406 157.879C99.0075 158.113 98.9729 158.391 99.0444 158.651L103.408 169.76Z" fill="#9C74E1"/>
<path d="M85.5981 155.648C85.6772 155.903 85.8503 156.118 86.0824 156.25C86.3145 156.382 86.5881 156.42 86.8476 156.358C86.9762 156.322 87.0966 156.262 87.2017 156.18C87.3069 156.098 87.3949 155.996 87.4607 155.88C87.5264 155.764 87.5686 155.636 87.5848 155.503C87.6011 155.371 87.5911 155.237 87.5553 155.108L83.3259 144.532C83.2469 144.278 83.0737 144.062 82.8416 143.93C82.6095 143.799 82.3359 143.76 82.0764 143.823C81.8166 143.894 81.5959 144.066 81.4628 144.3C81.3297 144.535 81.2951 144.812 81.3666 145.072L85.5981 155.648Z" fill="#9C74E1"/>
<path d="M164.399 181.257C164.52 177.162 164.357 173.067 163.911 168.995C163.902 168.729 163.792 168.476 163.604 168.287C163.415 168.099 163.161 167.989 162.895 167.981C162.626 167.981 162.368 168.088 162.178 168.278C161.987 168.468 161.881 168.726 161.881 168.995C162.317 173.067 162.481 177.164 162.368 181.257C162.38 181.519 162.492 181.765 162.681 181.946C162.87 182.127 163.122 182.228 163.383 182.228C163.645 182.228 163.896 182.127 164.085 181.946C164.274 181.765 164.387 181.519 164.399 181.257Z" fill="#9C74E1"/>
<path d="M67.2484 184.002C79.4284 186.627 87.3685 190.069 92.6185 201.566C95.2302 207.618 97.1628 213.941 98.3809 220.418C98.6644 221.693 100.622 221.153 100.338 219.878C100.097 218.788 99.3784 215.678 99.2692 215.227C93.7441 192.247 85.7053 186.514 71.0725 182.82C49.6021 177.4 22.4134 177.46 18.31 154.787C18.079 153.504 16.126 154.045 16.3528 155.326C20.3092 177.771 46.45 179.523 67.2484 184.002Z" fill="white"/>
<path d="M179.279 200.21C179.525 201.491 181.48 200.949 181.238 199.668C178.036 182.809 174.499 166.433 160.963 155.778C148.548 146.013 131.256 148.806 117.827 142.535C111.063 139.399 105.79 133.749 103.127 126.785C102.801 125.927 102.545 125.047 102.287 124.167C102.205 123.919 102.031 123.712 101.801 123.589C101.571 123.466 101.303 123.436 101.052 123.506C100.8 123.575 100.585 123.738 100.451 123.962C100.316 124.185 100.273 124.452 100.33 124.706C102.26 132.025 106.892 138.34 113.293 142.38C131.916 154.298 156.633 142.664 171.209 171.885C175.602 180.684 177.431 190.525 179.279 200.21Z" fill="white"/>
<path d="M289.726 205.618C291.341 205.556 292.921 205.13 294.348 204.372C295.775 203.614 297.013 202.544 297.969 201.241C298.925 199.938 299.574 198.436 299.869 196.847C300.163 195.258 300.095 193.624 299.67 192.065C298.294 186.17 292.593 182.14 285.749 185.765C275.417 191.267 279.982 205.618 289.726 205.618ZM282.901 191.216C285.898 186.021 292.996 184.815 296.081 188.929C291.719 189.773 287.293 190.54 282.901 191.216ZM281.998 193.499C287.08 192.743 292.141 191.863 297.179 190.859C297.793 192.257 298.066 193.781 297.974 195.304C297.882 196.828 297.429 198.308 296.652 199.622C296.043 200.742 295.164 201.692 294.095 202.386C293.026 203.08 291.801 203.496 290.531 203.598C289.261 203.701 287.985 203.485 286.819 202.971C285.653 202.457 284.634 201.661 283.853 200.654C283.026 199.677 282.43 198.527 282.109 197.288C281.788 196.049 281.75 194.754 281.998 193.499Z" fill="#5B2EAA"/>
<path d="M81.0117 358.819C70.9352 350.932 58.5032 346.653 45.7066 346.67C32.91 346.686 20.4891 350.996 10.4328 358.91C10.2845 359.041 10.1792 359.215 10.1306 359.407C10.082 359.599 10.0924 359.802 10.1603 359.988C10.2282 360.174 10.3506 360.336 10.5115 360.452C10.6725 360.568 10.8645 360.633 11.0628 360.638H80.4825C80.6917 360.629 80.8929 360.555 81.0581 360.426C81.2234 360.297 81.3444 360.12 81.4044 359.92C81.4629 359.718 81.4565 359.504 81.386 359.306C81.3155 359.108 81.1845 358.938 81.0117 358.819ZM77.2989 358.656H14.1204C23.3746 352.162 34.4048 348.679 45.7096 348.679C57.0145 348.679 68.0447 352.162 77.2989 358.656Z" fill="#5B2EAA"/>
<path d="M305.615 217.321C287.849 208.984 269.075 219.774 257.055 235.728C254.837 238.668 252.855 241.77 250.933 244.909C247.743 231.961 241.311 220.037 232.243 210.259C217.867 195.24 195.598 189.933 180.621 195.045C179.346 187.279 177.234 179.675 174.321 172.365C171.523 165.305 166.919 159.105 160.971 154.384C148.558 144.619 131.267 147.41 117.837 141.142C111.074 138.005 105.801 132.355 103.137 125.392C102.825 124.53 102.545 123.656 102.297 122.773C102.215 122.525 102.042 122.319 101.812 122.196C101.582 122.073 101.313 122.043 101.062 122.112C100.811 122.181 100.596 122.345 100.461 122.568C100.327 122.792 100.283 123.058 100.34 123.313C102.27 130.627 106.899 136.94 113.295 140.98C131.916 152.898 156.633 141.264 171.209 170.487C174.845 178.536 177.368 187.042 178.71 195.771C175.966 196.808 173.457 198.382 171.327 200.399C169.198 202.416 167.491 204.837 166.307 207.521C161.954 208.518 150.872 211.08 148.247 211.685C148.226 211.603 148.18 211.53 148.115 211.475C134.062 199.196 111.483 199.295 99.1494 213.338C93.66 190.809 85.6254 185.093 71.0724 181.42C49.1526 175.886 22.3902 175.943 18.3099 153.387C18.0789 152.104 16.128 152.646 16.3527 153.927C21.3612 182.35 62.0466 177.659 80.472 186.827C90.8754 192.006 94.8423 203.919 97.5282 215.303C93.9337 219.966 91.3167 225.305 89.8338 231.003C79.5165 230.913 69.0102 235.887 60.2343 245.073C47.4424 258.511 39.6244 275.916 38.0751 294.404C37.0818 306.347 38.3628 322.183 50.1186 329.82C54.2847 332.447 58.8523 334.374 63.6405 335.526C71.7675 337.305 80.0898 334.287 86.4801 327.248C92.6793 320.421 95.4072 311.668 97.2195 302.993C100.422 323.447 119.244 345.871 140.654 345.871C146.94 345.883 153.053 343.805 158.029 339.963C158.07 339.932 158.104 339.892 158.13 339.848C160.077 341.026 162.059 342.147 164.031 343.277C179.103 351.912 187.375 354.743 196.814 356.782C218.013 361.368 239.977 361.081 261.049 355.942C287.929 348.836 316.909 320.032 325.685 280.794C328.45 268.425 329.509 255.06 325.979 242.733C322.921 232.036 315.861 222.128 305.615 217.321ZM222.369 204.549C234.251 212.701 242.565 225.688 247.107 239.302C244.471 243.405 241.79 247.492 238.873 251.394C234.532 236.123 222.913 226.156 207.726 231.091C205.249 227.376 201.537 224.659 197.247 223.422C193.692 222.299 190.042 221.506 186.341 221.055C183.891 220.734 176.681 219.722 175.113 217.798C174.694 217.229 174.48 216.535 174.505 215.829C174.53 215.123 174.793 214.447 175.251 213.909C176.185 212.802 177.459 212.035 178.874 211.727C181.622 211.336 184.42 211.467 187.12 212.111C187.336 212.162 187.561 212.158 187.774 212.098C187.987 212.038 188.181 211.925 188.338 211.769C188.496 211.612 188.61 211.417 188.67 211.204C188.73 210.99 188.733 210.764 188.681 210.549C188.187 208.377 187.488 206.256 187.032 204.077C186.937 203.756 186.721 203.485 186.431 203.319C186.14 203.154 185.796 203.107 185.472 203.188C179.941 204.516 174.371 205.668 168.827 206.939C178.326 190.04 205.922 193.27 222.369 204.549ZM191.94 259.565C186.9 256.795 181.056 260.405 176.305 263.605C173.29 265.642 171.223 267.144 168.456 266.579C167.691 266.287 167.043 265.751 166.612 265.055C166.181 264.359 165.991 263.54 166.07 262.725C166.446 260.788 167.314 258.981 168.59 257.475C171.291 253.75 179.909 248.038 186.736 243.867C197.074 237.551 197.866 237.135 203.524 234.76C211.392 231.456 218.816 230.289 225.817 235.058C227.678 236.346 229.343 237.897 230.758 239.663C241.996 253.481 237.42 274.084 244.104 283.973C247.464 288.952 253.065 291.101 258.279 288.327C271.719 298.054 279.533 306.597 291.026 329.413C289.311 331.252 287.522 333.022 285.665 334.718C280.031 339.882 275.747 343.011 268.204 344.94C265.222 345.675 262.183 346.15 259.119 346.354C247.08 347.154 234.375 344.73 224.528 337.651C218.568 333.191 213.66 327.478 210.149 320.914C197.339 297.984 204.914 279.074 198.389 266.472C196.982 263.574 194.734 261.168 191.94 259.565ZM147.092 332.097C150.023 334.525 153.118 336.748 156.355 338.75C148.443 344.871 136.405 345.562 126.325 340.455C111.187 332.788 98.7378 313.77 98.7567 297.14C98.7567 296.422 98.7567 295.704 98.7231 294.986C98.6664 293.883 96.9738 293.619 96.768 294.776C94.5882 307.09 91.8729 322.416 79.7202 330.446C77.0434 332.307 73.9562 333.493 70.7219 333.903C67.4876 334.313 64.2021 333.935 61.1457 332.8C57.7019 331.694 54.4096 330.163 51.345 328.241C44.205 323.676 40.4649 315.536 39.9168 303.352C39.5898 292.986 41.31 282.657 44.979 272.957C48.648 263.257 54.1938 254.375 61.299 246.82C76.0956 230.847 92.547 230.994 102.138 235.976C102.226 236.022 102.327 236.034 102.425 236.013C108.679 263.286 111.861 277.827 111.978 278.066C112.157 278.528 112.136 278.608 113.61 279.248C115.412 280.029 119.452 281.649 128.829 285.825C127.848 294.444 129.001 303.172 132.185 311.241C135.37 319.309 140.489 326.471 147.092 332.097ZM100.577 222.597C100.256 222.691 99.984 222.906 99.8189 223.197C99.6539 223.489 99.6088 223.833 99.6933 224.157C100.464 227.307 101.163 230.457 101.877 233.626C98.7159 232.197 95.3268 231.339 91.8666 231.091C95.7117 217.021 105.418 207.292 117.907 205.013C122.822 204.148 127.865 204.344 132.698 205.587C137.531 206.83 142.043 209.091 145.931 212.22C136.313 214.451 106.724 221.232 100.577 222.597ZM116.957 277.917L163.68 264.391C163.962 265.806 164.738 267.074 165.87 267.969C167.001 268.864 168.415 269.327 169.856 269.275C174.201 269.084 176.809 265.726 182.807 262.62C182.597 263.969 182.419 265.325 182.28 266.682C182.085 268.454 182.519 270.238 183.506 271.722C186.068 275.525 191.602 274.662 193.99 271.092C194.777 269.897 195.412 268.609 195.88 267.257C196.337 268.072 196.757 268.904 197.14 269.754C198.557 273.417 199.261 277.314 199.212 281.241C188.097 285.319 169.138 292.18 156.868 295.416C143.417 289.849 130.37 283.623 116.957 277.917ZM184.8 266.837C184.955 264.935 185.277 263.04 185.596 261.167C186.695 260.753 187.873 260.592 189.042 260.697C191.188 261.195 193.058 262.502 194.263 264.347C193.717 265.875 193.087 267.373 192.373 268.83C191.029 271.646 187.421 272.747 185.684 270.443C185.304 269.931 185.03 269.348 184.878 268.729C184.727 268.11 184.7 267.467 184.8 266.837ZM170.94 251.22C169.724 251.142 168.561 250.691 167.61 249.929C166.659 249.167 165.966 248.131 165.625 246.961C165.606 246.143 165.816 245.335 166.232 244.63C166.647 243.925 167.252 243.35 167.977 242.971C169.155 242.471 170.467 242.385 171.7 242.725C173.239 243.13 174.808 243.422 176.389 243.599C178.693 243.83 181.02 243.683 183.275 243.164C183.511 243.164 182.244 243.674 178.786 245.697C176.006 247.29 173.382 249.143 170.95 251.23L170.94 251.22ZM192.396 224.22C197.649 224.88 202.429 227.59 205.693 231.759C202.404 232.992 199.18 234.39 196.033 235.948C194.785 232.055 193.519 228.155 192.406 224.22H192.396ZM184.855 205.925C185.138 207.065 185.464 208.195 185.764 209.329C183.613 208.853 181.394 208.765 179.212 209.07C171.998 210.169 170.167 216.927 173.687 219.978C176.786 222.666 185.495 223.468 189.699 224.022C190.884 228.313 192.272 232.553 193.628 236.79C187.818 239.478 181.377 242.12 174.892 240.843C173.685 240.606 172.479 240.262 171.253 240.092C172.217 238.641 173.143 237.152 173.966 235.629C174.094 235.395 174.127 235.12 174.059 234.862C173.992 234.604 173.829 234.381 173.603 234.239C170.148 232.028 161.876 226.454 161.876 226.454C160.784 225.73 159.776 227.49 160.852 228.208L171.732 235.432C170.833 237.028 169.854 238.582 168.821 240.094C167.835 240.24 166.895 240.607 166.07 241.167C165.246 241.727 164.558 242.465 164.058 243.328C163.56 244.192 163.264 245.157 163.191 246.151C163.117 247.146 163.27 248.144 163.636 249.071C164.711 251.064 166.504 252.574 168.651 253.292C166.37 255.686 164.67 258.573 163.682 261.728L114.108 276.077C113.515 273.456 103.24 228.279 102.427 224.776C122.829 220.251 158.208 211.866 184.865 205.925H184.855ZM325.025 273.322C318.788 313.394 290.602 343.609 266.286 352.143C243.47 360.155 211.686 359.466 189.804 352.864C184.454 351.224 179.265 349.1 174.3 346.52C168.21 343.386 162.185 340.01 156.389 336.368C151.066 333.12 146.275 329.071 142.185 324.365C137.894 319.147 134.679 313.132 132.723 306.666C130.767 300.2 130.109 293.412 130.788 286.691C136.59 289.284 153.199 296.615 155.711 297.663C155.993 297.843 156.314 297.954 156.648 297.987C156.981 298.019 157.318 297.973 157.63 297.852C169.05 294.837 188.532 287.854 199.576 283.807C200.035 296.766 200.915 306.947 206.716 318.73C209.787 325.202 214.042 331.043 219.261 335.95C229.402 345.19 242.754 348.905 256.523 348.485C264.144 348.548 271.656 346.669 278.349 343.025C288.314 336.431 296.545 327.535 302.347 317.088C302.954 315.933 301.201 314.904 300.594 316.063C298.373 320.285 295.651 324.224 292.486 327.794C283.166 309.474 275.908 298.703 260.133 287.182C263.652 284.165 266.24 280.208 267.595 275.775C267.63 275.646 267.64 275.512 267.623 275.38C267.607 275.248 267.564 275.12 267.498 275.004C267.433 274.888 267.345 274.787 267.24 274.705C267.135 274.623 267.015 274.563 266.887 274.528C266.759 274.493 266.625 274.483 266.493 274.5C266.361 274.517 266.234 274.56 266.118 274.626C265.885 274.759 265.713 274.976 265.637 275.233C264.449 279.126 262.232 282.627 259.22 285.366C258.214 286.204 257.035 286.808 255.767 287.136C254.5 287.466 253.176 287.512 251.889 287.268C250.602 287.025 249.386 286.499 248.327 285.729C247.268 284.959 246.392 283.966 245.761 282.818C241.63 276.546 242.35 266.106 239.57 254.084C242.56 250.184 245.293 246.104 247.955 241.977C248.548 243.882 249.06 245.812 249.593 247.736C249.638 247.876 249.711 248.006 249.81 248.115C249.908 248.225 250.028 248.312 250.163 248.372C250.298 248.431 250.444 248.461 250.591 248.46C250.738 248.458 250.884 248.426 251.017 248.364C251.195 248.278 251.345 248.144 251.45 247.977C255.089 241.545 259.48 235.568 264.531 230.173C273.374 221.32 285.266 214.843 297.599 216.899C308.227 218.674 316.735 226.702 321.348 236.19C326.901 247.599 326.951 261.02 325.036 273.322H325.025Z" fill="#5B2EAA"/>
<path d="M231.899 94.5973C234.127 97.8306 236.93 100.627 240.169 102.848C240.282 102.928 240.411 102.982 240.548 103.006C240.684 103.031 240.825 103.025 240.959 102.99C241.093 102.954 241.217 102.89 241.324 102.801C241.43 102.713 241.516 102.602 241.576 102.476C244.423 96.1933 244.726 88.6165 242.476 79.9708C240.929 74.371 238.632 69.006 235.647 64.0213C234.356 61.5283 232.859 59.1471 231.172 56.9023C231.084 56.8049 230.978 56.7259 230.86 56.67C230.741 56.6141 230.612 56.5824 230.481 56.5767C230.35 56.5711 230.22 56.5915 230.097 56.637C229.974 56.6824 229.861 56.7519 229.765 56.8414C229.637 56.9608 229.543 57.1123 229.492 57.2803C227.235 63.3476 226.096 69.7739 226.132 76.2475C226.352 82.7743 228.346 89.1179 231.899 94.5973ZM228.453 69.139C228.978 65.9491 229.748 62.8054 230.763 59.7352C231.617 61.012 232.466 62.4064 233.337 63.973C237.886 72.1357 241.414 79.2043 242.029 89.593C242.248 93.3069 241.647 97.0235 240.269 100.479C235.647 96.8143 232.107 91.9633 230.026 86.4438C227.945 80.9242 227.401 74.9433 228.453 69.139Z" fill="#5B2EAA"/>
<path d="M99.0716 181.527C100.29 185.828 103.272 195.225 103.431 195.773C103.505 196.024 103.673 196.236 103.901 196.364C104.128 196.492 104.397 196.525 104.649 196.458C108.219 195.448 115.435 193.171 118.902 192.096C119.028 192.06 119.145 191.999 119.247 191.917C119.349 191.836 119.434 191.734 119.497 191.619C119.559 191.505 119.599 191.378 119.612 191.248C119.626 191.118 119.614 190.987 119.576 190.861C118.438 187.407 116.254 180.097 115.223 176.63C115.148 176.378 114.977 176.165 114.748 176.038C114.518 175.911 114.247 175.879 113.994 175.949C113.994 175.949 100.344 180.13 99.7541 180.307C99.5034 180.38 99.2917 180.549 99.1641 180.778C99.0365 181.006 99.0033 181.275 99.0716 181.527ZM101.264 181.917L113.612 178.137L117.392 190.485L105.044 194.265L101.264 181.917Z" fill="#5B2EAA"/>
<path d="M127.47 189.089C127.68 189.089 126.378 189.332 143.503 185.842C143.756 185.769 143.97 185.598 144.097 185.367C144.225 185.137 144.256 184.865 144.184 184.612C144.016 184.038 136.756 177.482 133.054 174.07C132.959 173.966 132.844 173.883 132.716 173.826C132.588 173.769 132.449 173.74 132.308 173.74C132.168 173.74 132.029 173.769 131.901 173.826C131.772 173.883 131.657 173.966 131.563 174.07C131.038 174.651 127.249 185.62 126.498 187.823C126.452 187.972 126.443 188.13 126.471 188.284C126.499 188.437 126.563 188.582 126.658 188.706C126.753 188.83 126.876 188.929 127.017 188.996C127.159 189.062 127.314 189.094 127.47 189.089ZM128.94 186.789C130.128 183.317 131.375 179.865 132.68 176.434L141.145 184.303L128.94 186.789Z" fill="#5B2EAA"/>
<path d="M152.407 182.921C153.594 182.933 154.764 182.638 155.803 182.064C156.842 181.49 157.714 180.657 158.336 179.645C158.957 178.634 159.307 177.48 159.35 176.294C159.393 175.107 159.128 173.93 158.581 172.877C155.318 167.255 146.668 167.627 144.913 173.717C144.639 174.834 144.628 176 144.881 177.122C145.134 178.244 145.644 179.292 146.37 180.184C147.096 181.076 148.019 181.787 149.067 182.262C150.115 182.737 151.258 182.963 152.407 182.921ZM146.737 174.521C147.607 170.348 153.441 169.674 156.227 172.95C156.925 173.777 157.325 174.814 157.363 175.895C157.401 176.976 157.075 178.039 156.437 178.912C155.662 179.836 154.605 180.48 153.429 180.748C152.253 181.015 151.022 180.891 149.923 180.393C148.824 179.896 147.918 179.053 147.343 177.993C146.768 176.933 146.555 175.713 146.737 174.521Z" fill="#5B2EAA"/>
<path d="M82.2381 167.52C81.3414 167.765 80.5072 168.198 79.7913 168.791C79.0754 169.383 78.4941 170.122 78.0864 170.957C77.8579 171.487 77.7537 172.062 77.7817 172.638C77.8097 173.215 77.9693 173.777 78.2481 174.282C78.9644 175.363 79.904 176.279 81.0037 176.967C82.1034 177.656 83.3378 178.1 84.6237 178.272C87.5343 178.826 90.762 178.767 92.5554 176.392C95.8314 172.06 88.6557 165.999 82.2381 167.52ZM88.9581 170.741C90.6129 171.76 92.1774 173.549 91.0035 175.174C90.0459 176.501 88.0866 176.903 85.1466 176.363C84.1116 176.252 83.1128 175.919 82.2181 175.387C81.3233 174.855 80.5537 174.136 79.9617 173.28C79.1217 171.674 80.9466 170.048 82.5279 169.5C83.6252 169.228 84.7686 169.198 85.8786 169.413C86.9887 169.627 88.0408 170.08 88.9581 170.741Z" fill="#5B2EAA"/>
<path d="M57.5399 169.004C57.6335 169.108 57.7478 169.191 57.8755 169.248C58.0032 169.305 58.1415 169.334 58.2812 169.334C58.6025 169.334 58.1027 169.544 65.5115 165.798C65.6678 165.754 65.8109 165.672 65.928 165.56C66.0451 165.447 66.1326 165.308 66.1827 165.153C66.2328 164.999 66.2439 164.834 66.2151 164.675C66.1863 164.515 66.1185 164.365 66.0176 164.237C65.8643 163.925 65.1902 163.717 51.7376 158.628C50.7485 158.255 50.1248 159.494 50.7023 160.235L57.5399 169.004ZM54.3899 161.751L62.8109 164.947L58.5584 167.093L54.3899 161.751Z" fill="#5B2EAA"/>
<path d="M65.1693 154.514C72.8385 160.693 72.3597 160.422 72.8574 160.422C73.1661 160.422 72.6096 160.598 79.905 157.616C82.9668 156.356 83.1537 156.287 83.3007 156.096C83.4191 155.989 83.5088 155.854 83.5619 155.703C83.615 155.553 83.6296 155.391 83.6046 155.234C83.5796 155.076 83.5157 154.927 83.4186 154.801C83.3216 154.674 83.1944 154.573 83.0487 154.508C75.8478 148.798 76.1187 148.815 75.3438 149.019C75.1338 149.073 75.3102 149.031 65.5305 152.841C65.3663 152.895 65.2191 152.991 65.1035 153.12C64.9879 153.249 64.9078 153.405 64.8714 153.574C64.8349 153.743 64.8432 153.919 64.8954 154.084C64.9477 154.249 65.0421 154.397 65.1693 154.514ZM67.7859 154.094L75.5307 151.06L80.682 155.144L73.0254 158.294L67.7859 154.094Z" fill="#5B2EAA"/>
<path d="M409.206 285.006C406.285 284.087 403.238 283.627 400.176 283.643C385.203 283.723 374.346 286.134 366.505 297.892C364.512 300.891 362.823 304.081 361.465 307.415C361.417 307.563 361.404 307.72 361.428 307.873C361.451 308.026 361.51 308.172 361.6 308.298C361.689 308.425 361.808 308.529 361.944 308.601C362.081 308.674 362.234 308.714 362.389 308.717C370.203 309.056 380.138 308.531 387.414 305.555C393.355 302.732 398.773 298.922 403.439 294.286C405.918 291.995 408.052 289.358 409.775 286.455C409.849 286.325 409.892 286.181 409.903 286.032C409.914 285.883 409.892 285.734 409.838 285.594C409.784 285.455 409.698 285.33 409.588 285.229C409.48 285.126 409.349 285.05 409.206 285.006ZM407.4 286.51C402.211 293.597 395.422 299.359 387.584 303.325C384.186 304.809 380.581 305.767 376.893 306.166C372.576 306.712 368.223 306.916 363.873 306.775C365.908 301.742 368.966 297.187 372.853 293.398C380.077 286.43 391.257 285.586 400.153 285.628C402.597 285.607 405.033 285.903 407.4 286.51Z" fill="#5B2EAA"/>
<path d="M266.37 196.733L277.147 194.769C278.431 194.536 277.889 192.577 276.608 192.812L265.831 194.776C264.547 195.009 265.091 196.966 266.37 196.733Z" fill="#5B2EAA"/>
<path d="M386.4 269.935C387.404 269.095 385.955 267.658 384.964 268.498C378.076 274.681 372.17 281.877 367.45 289.838C371.309 282.302 369.472 271.705 365.219 265.367C364.545 264.365 363.292 265.189 363.411 265.67C361.084 271.691 360.58 278.264 361.962 284.57C362.559 286.917 363.603 289.128 365.037 291.08C365.112 291.204 365.215 291.31 365.336 291.39C365.458 291.47 365.596 291.522 365.74 291.542C365.884 291.562 366.03 291.551 366.169 291.51C366.309 291.469 366.437 291.398 366.547 291.302C358.123 305.324 351.927 320.568 348.18 336.49C348.1 297.825 348.073 266.258 344.381 233.613C359.921 234.092 374.432 227.943 382.637 214.606C382.712 214.492 382.763 214.364 382.786 214.23C382.806 214.095 382.797 213.957 382.76 213.826C382.724 213.695 382.659 213.572 382.572 213.468C382.483 213.364 382.374 213.281 382.25 213.224C378.772 211.585 375 210.662 371.159 210.509C367.317 210.356 363.483 210.977 359.886 212.334C356.289 213.691 353.001 215.757 350.217 218.409C347.433 221.061 345.211 224.245 343.682 227.773C342.058 214.077 339.585 200.496 336.277 187.106C331.664 171.273 323.188 156.833 311.611 145.088C295.123 128.145 281.192 121.715 261.49 112.512C276.753 102.714 279.34 79.9875 271.442 66.0856C271.328 65.8875 271.149 65.7351 270.935 65.6543C270.721 65.5735 270.486 65.5693 270.27 65.6424C270.126 65.6899 269.996 65.7697 269.888 65.8755C256.763 78.6036 251.884 90.0003 254.073 102.836C254.627 106.116 255.828 109.253 257.605 112.065C250.609 111.157 243.515 111.327 236.571 112.569C230.618 113.597 224.985 115.997 220.12 119.58C215.256 123.163 211.292 127.829 208.545 133.21C208.477 133.338 208.437 133.479 208.428 133.624C208.42 133.769 208.443 133.914 208.495 134.049C208.548 134.184 208.629 134.306 208.733 134.407C208.838 134.508 208.962 134.585 209.099 134.634C218.032 138.341 227.957 138.915 237.258 136.261C242.534 134.509 247.389 131.684 251.52 127.964C255.651 124.244 258.968 119.71 261.261 114.646C278.798 122.836 289.697 127.754 304.613 141.169C317.73 152.742 327.59 167.546 333.213 184.11C335.001 189.736 336.409 195.475 337.428 201.29C341.708 224.327 344.524 245.348 345.565 282.274C346.195 304.767 346.195 353.42 346.195 353.647C346.209 353.908 346.322 354.154 346.511 354.334C346.7 354.515 346.951 354.616 347.212 354.617C347.473 354.617 347.724 354.516 347.913 354.335C348.102 354.155 348.214 353.908 348.226 353.647C347.85 328.581 366.752 286.3 386.4 269.935ZM365.82 288.662C362.179 282.516 362.735 274.309 364.604 268.234C366.345 271.323 367.358 274.769 367.566 278.309C367.774 281.85 367.171 285.391 365.803 288.662H365.82ZM259.52 111.343C251.775 98.9526 256.408 85.0296 263.382 76.0626C265.509 73.3023 267.82 70.6888 270.299 68.2401C278.506 85.4475 271.32 104.558 259.52 111.343ZM259.213 114.365C255.594 121.842 249.695 127.977 242.365 131.887C240.557 132.884 238.659 133.71 236.695 134.354C228.178 136.825 219.082 136.403 210.829 133.155C214.067 127.219 218.887 122.296 224.755 118.934C236.909 111.979 249.48 113.642 259.213 114.365ZM344.505 231.221C345.614 227.674 347.451 224.397 349.9 221.601C352.347 218.803 355.351 216.547 358.721 214.978C362.091 213.409 365.751 212.562 369.468 212.491C373.183 212.419 376.873 213.123 380.302 214.558C367.578 233.97 344.36 231.593 344.148 231.629L344.133 231.513C344.217 231.507 344.298 231.477 344.364 231.425C344.43 231.372 344.479 231.301 344.505 231.221Z" fill="#5B2EAA"/>
<path d="M123.824 248.189C128.711 250.048 133.694 251.639 138.579 253.496C138.773 253.546 138.977 253.54 139.167 253.477C139.357 253.414 139.525 253.297 139.65 253.141C139.731 253.035 139.791 252.915 139.826 252.786C139.894 252.527 139.858 252.252 139.726 252.019C139.593 251.786 139.376 251.614 139.119 251.539C134.681 249.859 130.168 248.376 125.719 246.73L135.759 233.369C135.895 233.137 135.933 232.86 135.865 232.599C135.797 232.339 135.628 232.116 135.395 231.979C135.162 231.848 134.886 231.812 134.626 231.881C134.367 231.949 134.144 232.115 134.005 232.345L123.217 246.698C122.787 247.271 123.28 247.983 123.824 248.189Z" fill="#5B2EAA"/>
<path d="M144.9 256.199C145.15 256.258 145.414 256.221 145.637 256.094C145.861 255.967 146.028 255.759 146.105 255.514C148.877 246.245 151.618 236.96 154.069 227.601C154.109 227.411 154.094 227.215 154.027 227.033C153.96 226.852 153.842 226.693 153.688 226.576C153.534 226.459 153.349 226.388 153.157 226.372C152.964 226.355 152.77 226.394 152.599 226.484C152.368 226.606 152.194 226.813 152.111 227.061C149.335 236.33 146.601 245.615 144.148 254.974C144.116 255.104 144.11 255.239 144.131 255.371C144.151 255.503 144.198 255.63 144.268 255.744C144.338 255.858 144.43 255.957 144.538 256.035C144.647 256.113 144.77 256.169 144.9 256.199Z" fill="#5B2EAA"/>
<path d="M223.982 326.62C226.632 327.804 229.377 328.762 232.189 329.482C232.381 329.531 232.583 329.523 232.771 329.458C232.959 329.393 233.123 329.275 233.244 329.118C233.365 328.96 233.437 328.771 233.451 328.573C233.466 328.375 233.422 328.177 233.325 328.004C233.196 327.772 232.982 327.599 232.728 327.523C230.088 326.843 227.506 325.954 225.007 324.867C224.772 324.738 224.498 324.704 224.239 324.772C223.981 324.839 223.758 325.003 223.616 325.23C223.482 325.463 223.444 325.74 223.513 326C223.581 326.261 223.75 326.483 223.982 326.62Z" fill="#5B2EAA"/>
<path d="M202.276 176.871C202.533 176.863 202.778 176.758 202.96 176.576C203.142 176.394 203.248 176.15 203.257 175.892V157.226C203.245 156.964 203.133 156.718 202.944 156.537C202.755 156.356 202.503 156.255 202.242 156.255C201.98 156.255 201.728 156.356 201.539 156.537C201.35 156.718 201.238 156.964 201.226 157.226V175.892C201.236 176.161 201.352 176.415 201.549 176.599C201.746 176.782 202.007 176.88 202.276 176.871Z" fill="#5B2EAA"/>
<path d="M223.791 158.696C223.557 158.564 223.281 158.529 223.022 158.597C222.762 158.665 222.539 158.831 222.4 159.061L208.465 177.318C208.33 177.551 208.292 177.828 208.36 178.089C208.429 178.349 208.598 178.572 208.83 178.709C209.064 178.839 209.339 178.874 209.598 178.805C209.857 178.737 210.079 178.572 210.218 178.343C211.787 176.291 223.576 160.844 224.154 160.086C224.222 159.971 224.266 159.843 224.284 159.711C224.302 159.579 224.293 159.444 224.259 159.315C224.226 159.186 224.167 159.065 224.087 158.958C224.006 158.852 223.906 158.763 223.791 158.696Z" fill="#5B2EAA"/>
<path d="M215.433 185.219C215.573 185.446 215.796 185.611 216.055 185.679C216.314 185.747 216.589 185.712 216.823 185.582L232.97 178.709C233.202 178.572 233.37 178.349 233.439 178.089C233.507 177.828 233.47 177.551 233.335 177.318C233.197 177.089 232.974 176.923 232.715 176.855C232.456 176.787 232.18 176.823 231.947 176.955L215.798 183.828C215.566 183.965 215.398 184.188 215.329 184.448C215.261 184.709 215.298 184.986 215.433 185.219Z" fill="#5B2EAA"/>
<path d="M152.086 303.717L141.408 314.539C140.49 315.469 141.924 316.905 142.844 315.975L153.523 305.154C154.44 304.223 153.006 302.785 152.086 303.717Z" fill="#5B2EAA"/>
<path d="M160.295 305.351C160.036 305.281 159.759 305.316 159.525 305.449C159.291 305.582 159.12 305.802 159.048 306.061L156.347 323.186C156.283 323.446 156.321 323.72 156.453 323.952C156.585 324.185 156.801 324.358 157.057 324.436C157.317 324.506 157.594 324.471 157.828 324.338C158.062 324.205 158.234 323.985 158.306 323.726L161.005 306.601C161.068 306.341 161.03 306.067 160.898 305.835C160.766 305.603 160.55 305.43 160.295 305.351Z" fill="#5B2EAA"/>
<path d="M169.701 306.061C169.621 305.807 169.448 305.592 169.216 305.46C168.984 305.328 168.711 305.29 168.451 305.351C168.192 305.424 167.973 305.596 167.84 305.83C167.707 306.064 167.673 306.341 167.744 306.601L173.624 321.67C173.7 321.927 173.872 322.143 174.105 322.276C174.337 322.408 174.612 322.445 174.871 322.38C175 322.345 175.12 322.285 175.226 322.203C175.331 322.121 175.42 322.019 175.485 321.903C175.551 321.787 175.594 321.659 175.61 321.526C175.627 321.394 175.617 321.259 175.581 321.131L169.701 306.061Z" fill="#5B2EAA"/>
<path d="M32.8083 260.384C33.0586 260.446 33.3231 260.409 33.5473 260.282C33.7715 260.154 33.9384 259.946 34.0137 259.699C35.9114 252.943 39.5503 246.804 44.5662 241.895C45.5112 240.988 44.0726 239.554 43.1319 240.459C37.7698 245.535 33.9336 252.008 32.0565 259.149C32.023 259.28 32.0161 259.415 32.036 259.549C32.0559 259.682 32.1022 259.81 32.1722 259.925C32.2423 260.04 32.3346 260.14 32.4439 260.219C32.5531 260.297 32.677 260.354 32.8083 260.384Z" fill="#5B2EAA"/>
<path d="M39.1461 235.199C32.7277 240.933 27.6747 248.032 24.3579 255.974C24.3213 256.102 24.3106 256.237 24.3265 256.37C24.3423 256.502 24.3844 256.63 24.4502 256.747C24.5161 256.863 24.6044 256.965 24.7101 257.047C24.8157 257.129 24.9365 257.189 25.0656 257.223C25.3264 257.293 25.6041 257.258 25.8395 257.126C26.0749 256.994 26.2493 256.775 26.3256 256.516C29.5469 248.911 34.4205 242.12 40.593 236.633C41.5611 235.763 40.11 234.329 39.1461 235.199Z" fill="#5B2EAA"/>
<path d="M99.057 170.214C99.1937 170.446 99.4166 170.615 99.6771 170.683C99.9377 170.751 100.215 170.713 100.447 170.577C100.677 170.439 100.843 170.216 100.911 169.957C100.979 169.698 100.943 169.422 100.811 169.189L95.865 158.553C95.7267 158.322 95.5029 158.156 95.2425 158.09C94.9822 158.024 94.7062 158.064 94.4748 158.2C94.2454 158.338 94.0792 158.561 94.0113 158.82C93.9435 159.079 93.9794 159.355 94.1115 159.588L99.057 170.214Z" fill="#5B2EAA"/>
<path d="M103.408 168.36C103.485 168.618 103.659 168.837 103.895 168.969C104.13 169.101 104.407 169.137 104.668 169.068C104.928 168.995 105.148 168.823 105.28 168.589C105.413 168.355 105.447 168.078 105.376 167.818L101.004 156.709C100.924 156.454 100.751 156.24 100.519 156.108C100.287 155.977 100.013 155.939 99.7542 156.001C99.4944 156.073 99.2737 156.245 99.1406 156.479C99.0075 156.713 98.9729 156.991 99.0444 157.251L103.408 168.36Z" fill="#5B2EAA"/>
<path d="M85.5981 154.248C85.6772 154.503 85.8503 154.718 86.0824 154.85C86.3145 154.982 86.5881 155.02 86.8476 154.958C87.107 154.885 87.3272 154.713 87.4599 154.479C87.5926 154.245 87.6269 153.968 87.5553 153.708L83.3259 143.132C83.2469 142.877 83.0737 142.662 82.8416 142.53C82.6095 142.398 82.3359 142.36 82.0764 142.423C81.817 142.495 81.5968 142.667 81.4642 142.901C81.3315 143.135 81.2972 143.413 81.3687 143.672L85.5981 154.248Z" fill="#5B2EAA"/>
<path d="M163.42 180.836C163.676 180.826 163.92 180.72 164.102 180.539C164.283 180.357 164.389 180.114 164.399 179.857C164.52 175.762 164.357 171.667 163.911 167.595C163.902 167.329 163.792 167.076 163.604 166.887C163.415 166.699 163.161 166.589 162.895 166.581C162.626 166.581 162.368 166.688 162.178 166.878C161.987 167.068 161.881 167.326 161.881 167.595C162.317 171.667 162.481 175.764 162.368 179.857C162.378 180.126 162.495 180.38 162.692 180.564C162.889 180.747 163.151 180.845 163.42 180.836Z" fill="#5B2EAA"/>
</svg>
