<svg id="downvoteT" width="24" height="17" viewBox="0 0 24 17" xmlns="http://www.w3.org/2000/svg">
<path d="M0.252186 3.21466L11.2522 15.6847C11.3512 15.7894 11.4706 15.8728 11.603 15.9298C11.7354 15.9868 11.878 16.0162 12.0222 16.0162C12.1663 16.0162 12.309 15.9868 12.4414 15.9298C12.5737 15.8728 12.6931 15.7894 12.7922 15.6847L23.7922 3.21466C23.9555 3.00841 24.0309 2.74614 24.0022 2.48466C23.9913 2.35142 23.9539 2.22171 23.8921 2.1032C23.8302 1.98468 23.7453 1.87977 23.6422 1.79466L21.7922 0.244655C21.6911 0.157242 21.5736 0.090967 21.4465 0.0497456C21.3194 0.00852417 21.1853 -0.00680765 21.0522 0.00465538C20.9197 0.0142406 20.7904 0.0501278 20.672 0.110221C20.5535 0.170315 20.4482 0.253411 20.3622 0.354655L12.1922 9.80466C12.1416 9.85473 12.0733 9.88282 12.0022 9.88282C11.931 9.88282 11.8627 9.85473 11.8122 9.80466L3.64219 0.354655C3.48053 0.161567 3.25198 0.0365767 3.00219 0.00465538C2.86974 -0.00816924 2.73607 0.00556803 2.609 0.0450621C2.48193 0.0845561 2.36403 0.149013 2.26219 0.234655L0.362186 1.79466C0.259108 1.87977 0.174141 1.98468 0.112307 2.1032C0.0504733 2.22171 0.0130285 2.35142 0.00218648 2.48466C-0.0065681 2.61683 0.0110238 2.74942 0.0539406 2.87474C0.0968574 3.00006 0.164244 3.1156 0.252186 3.21466Z" fill="#6272D6"/>
</svg>
