<svg xmlns="http://www.w3.org/2000/svg" viewBox="0 0 24 24" height="24" width="24"><desc>Github Logo 1 Streamline Icon: https://streamlinehq.com</desc><path d="M12 0.28a12 12 0 0 0 -3.72 23.41l0.28 0a1 1 0 0 0 0.7 -0.24 1.05 1.05 0 0 0 0.36 -0.82v-0.21l0 -1.09a0.49 0.49 0 0 0 -0.19 -0.33 0.5 0.5 0 0 0 -0.41 -0.1c-2.69 0.58 -3.26 -1.1 -3.29 -1.21A4.64 4.64 0 0 0 4 17.5l-0.15 -0.11a0.73 0.73 0 0 1 0.38 -0.07 1.48 1.48 0 0 1 1.14 0.88 3 3 0 0 0 4 1.16 0.53 0.53 0 0 0 0.3 -0.36 2 2 0 0 1 0.56 -1.22 0.5 0.5 0 0 0 0.15 -0.53 0.49 0.49 0 0 0 -0.42 -0.35c-2.37 -0.27 -4.8 -1.1 -4.8 -5.19a4 4 0 0 1 1.06 -2.78 0.49 0.49 0 0 0 0.09 -0.52A3.56 3.56 0 0 1 6.32 6a5.57 5.57 0 0 1 2.52 1.15 0.48 0.48 0 0 0 0.42 0.06A10.66 10.66 0 0 1 12 6.85a10.31 10.31 0 0 1 2.75 0.36 0.46 0.46 0 0 0 0.41 -0.06A5.53 5.53 0 0 1 17.68 6a3.54 3.54 0 0 1 0 2.38 0.48 0.48 0 0 0 0.1 0.52 4 4 0 0 1 1.05 2.75c0 4.1 -2.43 4.92 -4.81 5.18a0.49 0.49 0 0 0 -0.42 0.35 0.49 0.49 0 0 0 0.15 0.52 2.23 2.23 0 0 1 0.61 1.75v3.18a1.06 1.06 0 0 0 0.37 0.82 1.18 1.18 0 0 0 1.06 0.19A12 12 0 0 0 12 0.28Z" fill="#ffffff" stroke-width="1"></path></svg>