<svg width="450" height="450" viewBox="0 0 450 450" fill="none" xmlns="http://www.w3.org/2000/svg">
<path d="M335.221 248.031L334.195 248.112C332.444 248.038 330.707 247.763 329.02 247.295C328.235 247.151 327.465 246.994 326.698 246.782C326.297 246.672 325.37 245.968 325.546 246.35L324.457 246.992C323.897 246.175 323.318 245.313 322.763 244.447C319.388 239.195 316.463 233.422 316.982 231.595C317.502 229.768 319.523 228.51 320.393 226.777C321.487 224.059 321.912 221.117 321.631 218.2C321.347 215.284 320.369 212.478 318.776 210.019C314.912 204.619 310.75 208.703 309.404 213.185C306.216 214.85 304.817 215.57 303.172 216.308C301.716 214.548 299.315 211.059 298.386 209.875L298.195 209.412C283.826 215.487 265.48 215.698 254.372 204.302C252.056 210.001 251.75 216.319 253.508 222.214C254.923 226.958 257.96 230.089 259.508 234.443C262.85 243.841 261.023 249.968 272.248 257.971C275.216 260.257 278.813 261.578 282.555 261.756C286.297 261.934 290.003 260.959 293.173 258.964C294.298 259.913 295.313 260.986 296.197 262.163L296.069 262.276C294.404 264.389 296.519 268.54 296.699 268.828C298.413 270.659 299.513 272.979 299.849 275.465L300.105 275.578C304.232 267.253 313.407 261.533 321.919 263.797C323.903 264.163 325.71 265.176 327.058 266.677C330.05 264.665 332.408 261.844 333.853 258.541C335.3 255.24 335.774 251.593 335.221 248.031Z" fill="white"/>
<path d="M397.705 329.198C398.653 326.248 397.798 312.215 397.577 309.125C399.301 316.69 400.489 324.369 401.13 332.102L397.705 329.198Z" fill="white"/>
<path d="M397.211 373.77C397.53 373.835 398.394 373.995 398.25 374.508C397.589 375.151 396.846 375.705 396.041 376.155C393.791 377.629 382.52 384.457 378.578 386.239C376.328 386.703 338.825 384.03 338.742 383.614C338.65 383.15 345.717 378.828 347.481 377.539L347.353 377.059C351.387 376.114 355.19 374.373 358.54 371.936L358.877 372.368C361.019 372.411 395.622 373.453 397.211 373.77Z" fill="white"/>
<path d="M398.25 374.506C398.394 373.993 397.53 373.828 397.211 373.765C395.624 373.448 361.022 372.416 358.877 372.357L358.54 371.925C364.208 367.682 365.886 363.728 372.161 356.85C375.937 360.275 379.827 363.782 382.309 366.102L382.534 365.859C384.784 362.068 387.173 357.489 389.43 352.64L390.038 353.169L402.683 348.669L403.002 346.923C403.547 349.085 404.127 351.259 404.602 353.446C406.229 361.022 407.831 371.052 408.616 378.758L402.316 378.158C402.595 377.84 403.423 376.688 403.423 376.688C403.423 376.688 398.221 376.425 396.248 376.479L396.041 376.16C396.846 375.707 397.589 375.149 398.25 374.506Z" fill="white"/>
<path d="M390.886 288.158L388.469 301.345L375.827 305.842L365.614 297.135L368.046 283.948L380.675 279.466L390.886 288.158Z" fill="#4A569C"/>
<path d="M401.13 332.1L394.889 326.786L382.262 331.286L379.829 344.475L390.038 353.165L402.683 348.665L403.002 346.919C401.744 342.081 401.114 337.1 401.13 332.1Z" fill="#4A569C"/>
<path d="M383.625 383.58C387.643 381.33 393.053 378.106 396.045 376.155L396.252 376.477C398.738 376.411 401.227 376.537 403.695 376.855C400.772 379.579 397.523 381.931 394.02 383.854C392.947 384.104 383.598 383.695 383.67 383.663L383.625 383.58Z" fill="white"/>
<path d="M368.687 252.452L367.616 258.246L354.987 262.746L344.776 254.041L345.8 248.486C353.504 249.327 361.15 250.652 368.687 252.452Z" fill="#4A569C"/>
<path d="M344.925 304.787L332.298 309.287L329.864 322.477L340.088 331.166L352.703 326.666L355.138 313.477L344.925 304.787Z" fill="#4A569C"/>
<path d="M342.504 337.165C351.18 336.854 357.451 342.79 363.519 348.784C365.614 350.852 368.831 353.81 372.161 356.852C365.794 363.827 364.084 367.839 358.54 371.927C355.196 374.377 351.392 376.119 347.353 377.051C347.281 377.08 347.204 377.102 347.128 377.114C335.999 379.856 326.09 378.137 313.828 377.595C298.989 376.938 295.193 377.476 294.669 377.161C298.195 371.387 299.592 362.718 296.919 357.091C296.51 356.378 295.916 355.788 295.202 355.383C294.487 354.978 293.675 354.771 292.853 354.787V354.755C302.515 354.461 312.14 353.455 321.653 351.745C339.163 348.525 342.279 337.36 342.504 337.165Z" fill="white"/>
<path d="M433.929 389.406C433.797 385.64 431.08 382.485 427.359 381.891C422.088 381.05 415.227 380.029 410.02 379.267C405.117 378.549 400.238 380.132 396.003 382.702C395.663 382.909 395.321 383.111 394.976 383.309C394.338 383.675 393.642 383.912 392.907 383.926C390.29 383.979 384.267 383.715 383.701 383.665C383.675 383.663 383.647 383.639 383.634 383.617C383.622 383.595 383.594 383.588 383.573 383.601C382.119 384.482 380.619 385.283 379.079 386.001C378.741 386.158 378.406 386.267 378.033 386.28C372.909 386.455 338.812 384.006 338.733 383.609C338.643 383.159 345.31 379.067 347.308 377.652C347.408 377.581 347.451 377.456 347.42 377.338C347.378 377.181 347.217 377.088 347.06 377.127C343.99 377.893 340.855 378.36 337.697 378.522C337.282 378.543 337.007 378.966 337.163 379.351C337.287 379.658 337.137 380.008 336.829 380.13L317.769 387.706C311.866 390.053 305.218 389.602 299.686 386.48L290.179 381.114C290.174 381.111 290.17 381.107 290.167 381.101C290.161 381.087 290.144 381.081 290.13 381.088C289.682 381.301 289.215 381.467 288.736 381.586C287.965 381.777 287.343 382.417 287.329 383.211C287.271 386.365 286.871 389.489 284.139 391.16C282.083 392.162 279.846 392.742 277.562 392.873C272.471 393.516 267.325 393.606 262.213 393.145C259.22 392.873 255.49 392.648 254.657 389.192C254.473 388.188 253.62 387.386 252.601 387.446L192.999 390.985C190.681 391.123 188.355 391.058 186.049 390.792L111.007 382.144C110.482 382.084 110.241 382.169 109.981 381.71C109.669 381.159 108.84 380.448 108.209 380.497L23.6705 387.051C19.3401 387.387 15.9787 390.966 15.9158 395.309C15.8595 399.195 18.475 402.613 22.2408 403.575L152.087 436.729C157.306 438.061 162.739 438.326 168.062 437.507L427.076 397.682C431.128 397.059 434.072 393.503 433.929 389.406Z" fill="white"/>
<path d="M323.1 244.238C327.436 246.713 326.797 241.886 326.812 238.7C326.812 238.315 326.396 235.85 326.86 235.692C327.388 235.512 328.466 236.34 328.909 236.556C330.3 237.231 332.847 238.187 334.255 237.069L334.287 237.1C336.368 238.241 338.17 239.834 339.559 241.762C340.945 243.688 341.885 245.903 342.308 248.24C343.84 256.511 339.919 265.97 336.368 270.711C335.243 272.23 333.751 273.519 332.543 274.986C328.959 279.331 327.469 289.188 319.961 291.121C318.649 291.465 317.27 291.479 315.952 291.157C314.633 290.835 313.414 290.189 312.408 289.28C307.244 284.569 310.036 275.398 315.466 272.169C318.026 270.648 320.947 271.078 323.307 269.192C325.782 267.212 336.676 262.816 335.232 248.042L334.206 248.123C332.455 248.049 330.718 247.775 329.031 247.307C328.246 247.163 327.476 247.005 326.709 246.793C326.308 246.683 325.381 245.979 325.557 246.362L324.468 247.003C323.91 246.186 323.343 245.322 322.774 244.458L323.1 244.238Z" fill="#4A569C"/>
<path d="M310.252 297.711C319.214 299.248 330.419 291.694 330.914 277.657L330.851 277.625C331.306 276.68 331.87 275.794 332.532 274.984L334.213 275.08C334.838 287.309 331.877 302.366 318.431 306.306C308.621 309.181 298.786 304.67 294.871 298.049C294.806 297.936 293.848 296.287 293.992 295.936L291.494 295.056C293.206 295.045 294.88 294.545 296.318 293.614C297.756 292.684 298.897 291.361 299.608 289.804L300.296 289.453C301.196 291.512 302.564 293.33 304.294 294.763C306.022 296.199 308.063 297.207 310.252 297.711Z" fill="white"/>
<path d="M312.797 328.585L310.381 341.775L297.738 346.27L287.525 337.581L289.96 324.391L302.587 319.896L312.797 328.585Z" fill="#4A569C"/>
<path d="M330.851 277.625C328.826 281.466 327.42 285.653 324.175 288.781C322.645 290.349 320.573 291.276 318.384 291.368C316.195 291.461 314.053 290.711 312.397 289.278C307.233 284.553 310.025 275.393 315.454 272.167C318.013 270.646 320.915 271.094 323.296 269.19C323.971 268.643 325.424 267.878 327.073 266.677C325.73 265.169 323.921 264.157 321.934 263.797C318.685 262.951 315.252 263.176 312.14 264.438C302.344 268.328 295.315 279.083 300.168 289.188C301.052 291.305 302.429 293.182 304.182 294.662C305.935 296.143 308.016 297.185 310.252 297.702C319.214 299.239 330.419 291.686 330.914 277.648L330.851 277.625Z" fill="white"/>
<path d="M296.087 262.278C294.424 264.391 296.537 268.542 296.717 268.83C295.625 267.46 294.154 266.443 292.487 265.905C290.176 265.34 287.737 265.667 285.653 266.816C286.243 264.857 287.008 262.955 287.942 261.135C289.773 260.631 291.537 259.907 293.191 258.975C294.316 259.925 295.331 260.998 296.215 262.175L296.087 262.278Z" fill="#4A569C"/>
<path d="M290.165 381.083C292.01 380.234 293.571 378.873 294.665 377.161C295.29 377.537 298.123 376.9 313.823 377.595C321.633 377.939 329.236 378.907 336.854 378.554L337.399 379.904L308.446 391.412L290.183 381.105L290.165 381.083Z" fill="white"/>
<path d="M293.557 361.746C294.228 363.217 294.464 364.851 294.233 366.453C293.96 370.485 292.432 375.64 288.216 377.127H287.368C287.368 373.367 287.336 368.692 287.24 364.291H287.606C288.292 361.955 291.845 358.609 293.557 361.746Z" fill="white"/>
<path d="M280.066 272.664C283.817 265.43 292.149 263.072 296.716 268.839C298.431 270.671 299.531 272.99 299.867 275.476L300.123 275.589C298.46 279.074 298.139 283.052 299.223 286.76C299.5 287.689 299.858 288.594 300.294 289.46L299.606 289.811C298.908 291.379 297.769 292.709 296.329 293.643C294.889 294.574 293.209 295.067 291.492 295.063C281.144 294.887 275.098 282.242 280.066 272.664Z" fill="white"/>
<path d="M274.977 287.257L272.545 300.447L259.918 304.927L254.927 300.703C255.955 295.204 258.905 290.252 263.252 286.731C264.629 285.606 266.805 283.977 269.14 282.265C269.325 282.492 268.825 282.01 274.977 287.257Z" fill="#4A569C"/>
<path d="M260.413 319.896L250.826 323.305C249.336 327.609 247.16 332.573 245.288 337.55C245.513 337.66 244.908 337.203 255.564 346.27L268.209 341.77C268.25 341.545 270.785 327.703 270.626 328.581L260.413 319.896Z" fill="#4A569C"/>
<path d="M396.585 299.169C395.091 288.938 392.038 278.998 387.527 269.694C385.594 265.068 382.709 260.901 379.06 257.465C376.022 255.035 372.479 253.325 368.687 252.457L367.616 258.25L354.987 262.75L344.776 254.045L345.8 248.49C342.425 248.06 343.472 248.04 342.297 248.251C343.897 256.509 339.908 265.981 336.357 270.722C335.232 272.241 333.734 273.523 332.532 274.997L334.213 275.094C334.838 287.323 331.877 302.38 318.431 306.319C308.619 309.195 298.787 304.681 294.872 298.062C294.806 297.949 293.848 296.3 293.992 295.949L291.494 295.069C281.846 294.696 276.377 284.452 278.915 275.589L278.514 275.479C276.417 277.015 272.608 279.736 269.15 282.28C269.321 282.505 268.826 282.026 274.977 287.273L272.545 300.463L259.918 304.942L254.927 300.719C253.352 307.89 253.728 315.36 250.826 323.318L260.413 319.91L270.626 328.599L268.2 341.775L255.555 346.275C245.012 337.302 245.504 337.664 245.279 337.554C243.819 341.111 242.71 344.803 241.967 348.579C241.913 348.86 251.838 351.304 253.922 354.654L254.435 354.67C254.453 353.583 254.54 350.035 254.626 349.18C255.004 345.375 274.221 346.601 278.17 346.986C280.091 347.184 281.972 347.681 283.741 348.46C284.774 348.842 285.676 349.506 286.349 350.379C286.74 351.911 286.936 353.489 286.925 355.07C298.564 354.762 310.169 353.655 321.655 351.756C339.154 348.534 342.27 337.372 342.495 337.176C351.189 336.863 357.478 342.841 363.51 348.795C365.603 350.863 379.818 363.793 382.3 366.12L382.525 365.879C384.775 362.086 387.164 357.509 389.421 352.661L379.82 344.497L382.253 331.308L394.88 326.808L397.697 329.211C398.925 325.519 397.456 304.974 396.585 299.169ZM310.381 341.775L297.738 346.275L287.525 337.585L289.96 324.396L302.587 319.896L312.797 328.585L310.381 341.775ZM352.699 326.666L340.083 331.166L329.859 322.477L332.294 309.287L344.921 304.787L355.133 313.479L352.699 326.666ZM388.474 301.345L375.831 305.845L365.618 297.137L368.051 283.95L380.68 279.468L390.89 288.16L388.474 301.345Z" fill="white"/>
<path d="M335.509 231.75C335.171 224.948 330.253 222.3 327.681 216.735C325.26 211.504 326.308 204.797 325.633 199.21C325.037 194.504 323.275 190.021 320.503 186.169C317.734 182.318 314.044 179.221 309.771 177.16C302.461 173.652 294.401 171.988 286.299 172.315C278.197 172.641 270.297 174.947 263.293 179.032C249.455 186.891 247.059 203.465 246.951 203.697C242.883 211.891 244.861 222.687 248.839 230.022C251.003 233.881 252.634 238.016 253.69 242.314C255.253 249.016 253.049 265.977 264.62 267.514C268.639 268.045 266.157 264.105 267.77 262.906C268.67 262.231 273.098 266.026 275.404 261.144L275.724 260.039C274.513 259.452 273.357 258.761 272.266 257.976C260.973 249.921 262.89 243.911 259.526 234.448C257.972 230.069 254.941 226.962 253.526 222.219C251.768 216.323 252.074 210.005 254.389 204.306C265.709 215.689 283.784 215.511 298.213 209.416C301.646 214.427 302.573 215.586 303.19 216.312C303.64 216.876 304.211 217.332 304.862 217.646C305.51 217.961 306.221 218.126 306.943 218.13C307.472 218.133 307.98 217.934 308.365 217.574C308.752 217.215 308.986 216.722 309.022 216.195L309.159 214.218C310.039 209.367 314.636 204.216 318.794 210.024C320.389 212.482 321.37 215.288 321.651 218.205C321.932 221.122 321.507 224.064 320.411 226.782C319.54 228.514 317.534 229.743 317 231.599C316.467 233.455 319.435 239.186 322.78 244.451L323.1 244.242C327.436 246.717 326.797 241.891 326.812 238.705C326.812 238.32 326.396 235.854 326.86 235.696C327.388 235.516 328.464 236.344 328.91 236.56C330.784 237.474 333.599 238.318 334.719 236.56C335.453 235.071 335.727 233.395 335.509 231.75Z" fill="#4A569C"/>
<path d="M254.378 358.162C245.734 359.809 246.01 359.874 243.207 359.874L243.189 359.073C243.974 356.944 244.69 354.838 245.335 352.64C245.41 352.381 245.702 350.415 245.974 350.302L246.071 350.046C249.066 351.151 252.763 352.768 253.93 354.64L254.443 354.656C254.412 355.723 254.394 356.897 254.378 358.162Z" fill="white"/>
<path d="M246.807 161.748C243.994 163.755 240.682 164.944 237.235 165.182C233.788 165.42 230.344 164.699 227.281 163.098C226.672 162.796 225.297 161.595 225.2 161.595V161.122L246.8 160.884L246.807 161.748Z" fill="white"/>
<path d="M232.628 249.311C226.899 248.308 224.96 254.432 220.334 256.275C218.131 257.152 213.743 255.343 211.516 255.346C207.569 255.373 203.749 256.738 200.68 259.22C200.504 259.267 206.114 274.284 208.922 275.96C211.347 277.407 215.035 272.63 217.037 271.512C221.04 269.275 223.616 271.885 227.282 271.24C230.117 270.74 232.533 267.712 235.427 266.87C236.518 266.553 242.006 266.677 242.309 265.237C242.613 263.797 237.238 250.119 232.628 249.311Z" fill="white"/>
<path d="M285.397 157.428C283.257 153.378 279.495 146.126 277.506 142.335C276.646 140.702 275.364 139.331 273.791 138.366C262.858 131.616 266.879 133.53 256.426 130.41C255.595 130.161 254.846 129.697 254.252 129.064C253.66 128.432 253.246 127.654 253.051 126.81C251.449 119.85 247.396 101.967 246.249 96.961C246.163 96.5848 245.952 96.2494 245.648 96.0102C245.344 95.7713 244.969 95.643 244.584 95.6471C241.222 95.7011 232.499 95.872 228.098 95.9665C227.351 95.9821 226.631 96.2501 226.055 96.7268C225.481 97.2036 225.083 97.8611 224.93 98.5923C223.636 104.753 220.381 120.296 218.992 126.969C218.795 127.913 218.352 128.787 217.708 129.503C217.064 130.22 216.242 130.754 215.325 131.051C205.54 134.235 209.88 132.156 198 139.117C196.538 139.972 195.376 141.257 194.672 142.798C192.676 147.172 188.482 156.35 186.829 160.02C186.754 160.187 186.723 160.37 186.737 160.552C186.752 160.735 186.812 160.911 186.912 161.064C187.013 161.217 187.15 161.342 187.312 161.428C187.473 161.514 187.654 161.558 187.837 161.556C192.816 161.529 277.243 160.51 283.581 160.454C283.936 160.452 284.285 160.359 284.593 160.184C284.902 160.008 285.158 159.756 285.34 159.452C285.523 159.148 285.624 158.802 285.635 158.447C285.644 158.092 285.563 157.741 285.397 157.428Z" fill="white"/>
<path d="M219.247 358.501C211.878 359.05 204.704 361.13 198.182 364.604L197.8 363.863C198.664 362.758 199.6 361.703 200.567 360.679L200.329 360.454C196.655 361.024 193.317 362.918 190.949 365.785C189.569 367.911 188.766 371.122 186.644 372.668C185.681 373.367 184.77 372.906 184.419 371.835C184.043 370.215 184.132 368.523 184.676 366.952C185.146 365.533 185.702 364.144 186.341 362.792C187.965 359.347 188.055 360.029 187.691 359.75C187.034 360.182 183.929 362.45 183.305 362.936C181.422 364.403 179.858 366.241 178.711 368.336L178.103 368.383C177.287 366.752 176.438 365.056 175.559 363.325L176.407 362.893C182.504 351.099 199.456 350.968 210.643 350.539C214.596 350.381 221.414 348.617 228.744 351.531C232.898 353.549 236.702 356.218 240.012 359.437L239.996 359.869C229.829 359.608 225.324 358.202 219.247 358.501Z" fill="white"/>
<path d="M195.766 220.57C195.766 223.465 196.891 232.92 193.622 234.718C191.412 235.93 189.414 234.558 189.268 231.932C188.998 227.018 190.546 220.754 188.548 216.535C186.347 211.885 180.623 217.809 181.042 198.178C181.089 195.984 181.139 193.777 181.298 191.552C181.442 190.649 181.695 189.767 182.05 188.926C189.236 186.863 186.206 200.464 187.477 205.621C188.298 208.964 191.693 208.604 193.574 210.571C195.696 212.78 195.775 217.096 195.766 220.57Z" fill="white"/>
<path d="M254.378 358.164C247.815 359.921 240.973 360.401 234.227 359.573C225.479 359.015 217.076 356.159 202.104 362.822C199.112 363.962 196.281 365.49 193.685 367.367C192.591 368.224 189.844 371.567 193.01 371.624C195.108 371.354 197.097 370.53 198.772 369.239C198.95 369.131 201.155 367.943 201.317 367.943C201.332 368.327 200.192 369.11 199.955 369.335C197.673 371.322 195.588 373.525 193.73 375.914C192.47 377.676 190.895 381.434 193.073 381.483C193.986 381.503 194.839 380.583 195.442 380.012C197.107 378.437 198.693 376.796 200.275 375.145C200.628 374.778 201.526 373.462 202.1 373.37C202.469 373.309 201.823 373.678 200.387 375.674C199.373 377.087 197.521 379.148 197.912 381.074C197.989 381.449 198.347 384.363 205.083 377.825C208.726 380.718 216.214 373.066 224.307 373.23C230.805 373.365 236.615 377.217 243.065 377.84C246.89 378.209 250.459 376.715 254.203 376.319C254.457 376.313 254.041 377.003 254.378 358.164Z" fill="white"/>
<path d="M254.475 387.34C254.322 384.548 254.266 379.386 254.266 376.315C251.84 376.315 247.239 378.239 243.063 377.836C236.612 377.213 230.803 373.361 224.305 373.226C216.254 373.061 208.705 380.7 205.081 377.82L204.649 378.155C203.749 378.956 198.533 384.174 197.899 381.069C197.514 379.15 199.366 377.089 200.374 375.669C200.729 375.174 201.096 374.695 201.463 374.229C201.688 373.941 202.439 373.309 202.086 373.365C201.512 373.455 200.614 374.774 200.261 375.14C198.686 376.792 197.093 378.439 195.428 380.007C194.825 380.574 193.972 381.499 193.059 381.479C190.881 381.429 192.456 377.672 193.716 375.91C195.573 373.52 197.658 371.318 199.942 369.331C200.18 369.106 201.319 368.323 201.303 367.938C201.141 367.938 198.936 369.126 198.758 369.234C197.084 370.528 195.095 371.351 192.996 371.619C189.826 371.563 192.573 368.219 193.671 367.362C195.064 366.278 196.573 365.348 198.171 364.597L197.788 363.857C198.652 362.752 199.588 361.697 200.556 360.673L200.317 360.448C196.644 361.017 193.306 362.914 190.937 365.778C189.558 367.904 188.755 371.115 186.633 372.661C185.67 373.361 184.759 372.899 184.408 371.828C184.032 370.211 184.121 368.519 184.664 366.946C185.475 364.487 186.547 362.12 187.864 359.888L187.672 359.744C187.015 360.176 183.91 362.444 183.287 362.93C181.404 364.399 179.841 366.237 178.693 368.33L178.114 368.451C163.591 339.467 139.828 292.041 135.4 283.199C134.788 281.975 133.803 280.976 132.586 280.346C131.369 279.716 129.985 279.486 128.63 279.693C114.158 281.916 70.4227 288.693 60.2302 290.239C59.9917 290.277 59.7656 290.372 59.5712 290.513C59.377 290.657 59.2204 290.846 59.1149 291.062C59.0094 291.28 58.9583 291.519 58.9655 291.762C58.9729 292.003 59.0386 292.239 59.157 292.448C66.132 304.29 110.167 382.061 110.167 382.061L189.592 391.196L254.475 387.34Z" fill="#4A569C"/>
<path d="M181.141 236.729C182.117 239.449 186.395 247.979 183.926 250.783C182.264 252.673 179.917 252.049 178.884 249.631C176.951 245.106 176.281 238.709 172.978 235.402C169.351 231.768 165.933 239.256 159.703 220.676C158.999 218.581 158.31 216.484 157.703 214.337C157.536 213.446 157.468 212.539 157.5 211.633C163.575 207.232 165.31 221.06 168.273 225.495C170.177 228.344 173.255 226.863 175.682 228.071C178.436 229.439 179.969 233.464 181.141 236.729Z" fill="white"/>
<path d="M179.233 266.357L182.929 281.659L157.162 283.387L153.898 266.998L179.233 266.357Z" fill="white"/>
<path d="M186.356 283.995C186.356 283.995 182.263 263.988 182.225 263.745C182.101 262.892 156.697 263.824 149.911 264.033C149.911 263.999 154.345 286.533 154.345 286.533L163.163 298.937C163.163 298.937 172.546 297.259 200.455 292.295L186.356 283.995ZM157.162 283.388L153.9 266.999L179.235 266.357L182.932 281.657L157.162 283.388Z" fill="#4A569C"/>
<path d="M168.48 160.161C166.352 156.082 162.565 148.859 160.574 145.068C159.712 143.438 158.431 142.067 156.861 141.099C146.205 134.5 149.947 136.275 139.5 133.145C138.671 132.895 137.922 132.431 137.329 131.799C136.737 131.166 136.321 130.389 136.125 129.545C134.51 122.591 130.462 104.71 129.321 99.6968C129.237 99.3202 129.026 98.984 128.723 98.7451C128.42 98.5061 128.044 98.3788 127.658 98.3851L111.173 98.7046C110.425 98.7183 109.705 98.9851 109.129 99.461C108.553 99.9371 108.155 100.595 108 101.326C106.709 107.471 103.48 123.032 102.078 129.703C101.879 130.647 101.434 131.522 100.787 132.239C100.141 132.956 99.3161 133.489 98.3972 133.784C88.0067 137.159 92.887 134.909 81.0835 141.853C79.6219 142.708 78.4591 143.994 77.7535 145.534C69.2305 164.222 69.811 162.859 69.8155 163.217C69.8197 163.505 69.9383 163.781 70.1453 163.983C70.3525 164.184 70.6311 164.296 70.9202 164.292C75.8972 164.227 160.324 163.237 166.68 163.187C167.033 163.18 167.377 163.083 167.681 162.906C167.986 162.728 168.24 162.477 168.42 162.174C168.6 161.871 168.7 161.527 168.711 161.175C168.721 160.823 168.642 160.474 168.48 160.161Z" fill="white"/>
<path d="M111.868 227.574C120.766 229.414 124.769 225.43 126.081 220.5L126.736 220.741C128.498 219.857 130.418 219.329 132.385 219.188C137.711 218.833 135.373 224.609 133.027 226.982C128.392 231.664 123.642 233.42 117.502 235.593C114.939 236.493 109.201 238.275 106.76 236.25C105.484 235.188 105.561 230.44 110.619 227.639L110.956 227.111C111.25 227.284 111.554 227.439 111.868 227.574Z" fill="white"/>
<path d="M129.872 164.477C127.064 166.486 123.753 167.676 120.309 167.915C116.864 168.153 113.42 167.43 110.362 165.827C109.753 165.523 108.378 164.321 108.281 164.321V163.858L129.857 163.617L129.872 164.477Z" fill="white"/>
<path d="M102.762 213.318C103.394 209.443 116.876 203.384 120.206 204.244C121.171 204.51 122.067 204.981 122.834 205.624C123.601 206.267 124.22 207.068 124.65 207.972C126.596 211.848 127.107 216.288 126.09 220.504C124.785 225.436 120.775 229.419 111.877 227.579C107.496 225.689 101.947 218.306 102.762 213.318Z" fill="white"/>
<path d="M107.435 134.401C106.668 134.32 105.799 134.23 105.635 133.332C105.599 133.111 105.627 132.885 105.715 132.679C105.803 132.473 105.948 132.297 106.133 132.172C106.318 132.046 106.534 131.975 106.758 131.968C106.982 131.961 107.202 132.018 107.395 132.133C114.965 133.433 122.716 133.245 130.214 131.579C130.506 131.517 130.811 131.574 131.061 131.737C131.311 131.9 131.487 132.156 131.548 132.448C131.61 132.74 131.553 133.044 131.39 133.295C131.228 133.545 130.972 133.72 130.68 133.782C123.044 135.485 115.151 135.695 107.435 134.401Z" fill="#1C3B67"/>
<path d="M109.861 166.836C109.218 166.448 108.607 166.012 108.031 165.531C107.819 165.465 107.63 165.338 107.489 165.166C107.328 165.007 107.218 164.803 107.172 164.582C107.126 164.36 107.147 164.13 107.232 163.92C107.316 163.71 107.461 163.529 107.648 163.401C107.834 163.273 108.055 163.203 108.281 163.2C108.711 163.2 108.909 163.355 109.566 163.875C109.978 164.218 110.412 164.534 110.864 164.822C113.74 166.332 116.979 167.015 120.219 166.793C123.46 166.572 126.576 165.456 129.22 163.569C129.34 163.477 129.477 163.411 129.623 163.374C129.769 163.337 129.921 163.329 130.07 163.352C130.219 163.374 130.362 163.426 130.49 163.505C130.619 163.584 130.73 163.688 130.817 163.811C130.905 163.934 130.967 164.073 130.999 164.22C131.032 164.367 131.035 164.519 131.007 164.668C130.98 164.816 130.923 164.957 130.841 165.083C130.758 165.209 130.65 165.317 130.525 165.4C127.55 167.526 124.044 168.786 120.396 169.04C116.748 169.293 113.101 168.53 109.861 166.836Z" fill="#1C3B67"/>
<path d="M87.7615 143.252C87.6139 143.254 87.4672 143.227 87.3299 143.172C87.1924 143.117 87.0673 143.036 86.9614 142.933C86.8554 142.83 86.7708 142.707 86.7125 142.572C86.654 142.436 86.623 142.29 86.6207 142.142C86.6187 141.995 86.6457 141.848 86.7004 141.711C86.755 141.573 86.8363 141.448 86.9391 141.342C87.0421 141.236 87.165 141.152 87.3007 141.093C87.4363 141.035 87.5824 141.004 87.73 141.002L147.15 139.276C147.444 139.283 147.725 139.398 147.939 139.599C148.153 139.801 148.285 140.074 148.309 140.367C148.313 140.515 148.289 140.662 148.236 140.801C148.184 140.939 148.104 141.066 148.003 141.173C147.901 141.281 147.779 141.367 147.644 141.428C147.509 141.489 147.364 141.522 147.215 141.526L87.7615 143.252Z" fill="#1C3B67"/>
<path d="M119.475 98.149C119.177 98.149 118.891 98.0305 118.68 97.8194C118.469 97.6086 118.35 97.3224 118.35 97.024V13.9878C118.35 13.6894 118.469 13.4033 118.68 13.1923C118.891 12.9813 119.177 12.8628 119.475 12.8628C119.773 12.8628 120.06 12.9813 120.271 13.1923C120.482 13.4033 120.6 13.6894 120.6 13.9878V97.024C120.6 97.3224 120.482 97.6086 120.271 97.8194C120.06 98.0305 119.773 98.149 119.475 98.149Z" fill="#A7A9B2"/>
<path d="M224.363 131.665C223.38 131.525 222.723 131.44 222.563 130.596C222.529 130.376 222.557 130.15 222.646 129.945C222.735 129.74 222.88 129.565 223.065 129.439C223.249 129.313 223.466 129.243 223.689 129.235C223.912 129.228 224.133 129.284 224.325 129.397C226.829 129.737 228.976 130.072 231.379 130.184C236.671 130.414 241.967 129.964 247.144 128.846C247.437 128.784 247.741 128.841 247.99 129.004C248.242 129.166 248.418 129.422 248.479 129.714C248.539 130.006 248.483 130.311 248.321 130.561C248.157 130.811 247.903 130.987 247.61 131.048C239.96 132.649 232.087 132.858 224.363 131.665Z" fill="#1C3B67"/>
<path d="M226.778 164.096C226.118 163.696 225.491 163.244 224.901 162.746C224.636 162.65 224.413 162.462 224.273 162.217C224.157 162.048 224.089 161.851 224.076 161.646C224.064 161.441 224.108 161.237 224.203 161.055C224.299 160.873 224.442 160.721 224.618 160.615C224.794 160.509 224.995 160.453 225.2 160.453C225.628 160.453 225.826 160.608 226.483 161.128C226.895 161.47 227.329 161.785 227.779 162.073C230.659 163.583 233.901 164.266 237.143 164.045C240.388 163.823 243.506 162.707 246.155 160.82C246.274 160.729 246.411 160.662 246.557 160.625C246.704 160.588 246.857 160.58 247.005 160.603C247.154 160.625 247.298 160.677 247.426 160.756C247.554 160.835 247.664 160.939 247.752 161.062C247.84 161.185 247.901 161.324 247.934 161.471C247.968 161.618 247.97 161.77 247.943 161.919C247.914 162.067 247.858 162.208 247.775 162.334C247.691 162.46 247.586 162.568 247.46 162.651C244.483 164.778 240.973 166.039 237.323 166.294C233.672 166.549 230.022 165.788 226.778 164.096Z" fill="#1C3B67"/>
<path d="M204.696 140.514C204.398 140.518 204.11 140.404 203.896 140.195C203.682 139.988 203.56 139.703 203.555 139.405C203.551 139.106 203.666 138.818 203.874 138.605C204.082 138.391 204.366 138.268 204.665 138.264L264.065 136.534C264.359 136.537 264.641 136.652 264.857 136.854C265.07 137.056 265.201 137.331 265.221 137.625C265.226 137.773 265.201 137.92 265.149 138.058C265.095 138.196 265.016 138.323 264.915 138.431C264.814 138.538 264.692 138.625 264.557 138.685C264.422 138.746 264.278 138.779 264.13 138.784L204.696 140.514Z" fill="#1C3B67"/>
<path d="M236.412 95.4112C236.113 95.4112 235.827 95.2927 235.616 95.0818C235.406 94.8708 235.287 94.5846 235.287 94.2862V11.25C235.287 10.9516 235.406 10.6655 235.616 10.4545C235.827 10.2435 236.113 10.125 236.412 10.125C236.711 10.125 236.997 10.2435 237.209 10.4545C237.418 10.6655 237.537 10.9516 237.537 11.25V94.2862C237.537 94.5846 237.418 94.8708 237.209 95.0818C236.997 95.2927 236.711 95.4112 236.412 95.4112Z" fill="#A7A9B2"/>
<path d="M318.15 220.669C317.367 219.717 316.411 218.922 315.331 218.327C315.718 217.386 316.19 216.482 316.742 215.627C316.823 215.504 316.879 215.366 316.908 215.221C316.935 215.075 316.935 214.926 316.906 214.781C316.874 214.636 316.818 214.499 316.735 214.377C316.651 214.254 316.546 214.149 316.422 214.068C316.298 213.986 316.161 213.93 316.015 213.902C315.871 213.874 315.72 213.875 315.576 213.905C315.432 213.935 315.295 213.992 315.171 214.075C315.05 214.158 314.944 214.264 314.863 214.387C313.225 216.887 312.185 219.732 311.827 222.699C311.812 223.131 311.877 223.563 312.016 223.972C312.113 224.255 312.318 224.487 312.586 224.618C312.856 224.749 313.164 224.768 313.445 224.671C313.729 224.574 313.96 224.369 314.091 224.101C314.224 223.833 314.242 223.523 314.145 223.241C314.104 223.12 314.078 222.995 314.069 222.868C314.159 222.052 314.325 221.246 314.57 220.462C314.876 220.624 315.076 220.759 316.559 222.262C316.771 222.467 317.057 222.581 317.351 222.578C317.646 222.576 317.927 222.457 318.137 222.249C318.346 222.04 318.463 221.758 318.465 221.463C318.467 221.168 318.355 220.884 318.15 220.672V220.669Z" fill="#1C3B67"/>
<path d="M293.029 206.219C291.652 206.219 286.328 206.095 285.748 204.842C285.642 204.615 285.613 204.359 285.667 204.113C285.718 203.868 285.853 203.648 286.045 203.486C286.236 203.324 286.477 203.231 286.726 203.219C286.978 203.208 287.226 203.28 287.431 203.424C288.385 203.636 291.879 203.953 292.381 203.966C296.05 204.025 299.718 203.757 303.34 203.165C303.635 203.117 303.937 203.188 304.18 203.362C304.42 203.536 304.585 203.799 304.634 204.093C304.681 204.388 304.612 204.689 304.436 204.932C304.263 205.174 304 205.338 303.705 205.386C300.175 205.952 296.604 206.23 293.029 206.219Z" fill="#1C3B67"/>
<path d="M300.17 290.322C299.959 290.322 299.749 290.263 299.569 290.151C299.389 290.036 299.245 289.876 299.153 289.685C298.042 287.413 297.461 284.917 297.454 282.388C297.445 279.859 298.012 277.362 299.108 275.083C299.236 274.808 299.468 274.592 299.752 274.484C300.035 274.376 300.35 274.383 300.629 274.502C300.762 274.556 300.881 274.64 300.982 274.743C301.084 274.847 301.162 274.968 301.214 275.103C301.266 275.236 301.291 275.38 301.286 275.524C301.282 275.668 301.248 275.81 301.187 275.94C300.22 277.929 299.716 280.111 299.716 282.323C299.716 284.535 300.22 286.72 301.187 288.709C301.27 288.88 301.309 289.071 301.297 289.26C301.286 289.451 301.228 289.636 301.126 289.796C301.023 289.958 300.883 290.09 300.715 290.183C300.548 290.275 300.361 290.322 300.17 290.322Z" fill="#1C3B67"/>
<path d="M290.324 292.788C290.095 292.786 289.87 292.716 289.681 292.588C285.071 289.37 281.324 281.844 283.352 272.288C283.379 272.14 283.435 271.998 283.518 271.874C283.601 271.748 283.707 271.64 283.833 271.557C283.957 271.474 284.096 271.415 284.245 271.386C284.393 271.359 284.544 271.359 284.69 271.39C284.839 271.422 284.976 271.483 285.1 271.568C285.224 271.654 285.329 271.764 285.408 271.89C285.489 272.018 285.543 272.16 285.568 272.306C285.593 272.455 285.588 272.608 285.552 272.754C283.752 281.257 287.096 288.038 290.97 290.741C291.166 290.876 291.314 291.074 291.391 291.299C291.467 291.526 291.472 291.771 291.4 292C291.328 292.228 291.184 292.428 290.99 292.57C290.797 292.712 290.563 292.788 290.324 292.788Z" fill="#1C3B67"/>
<path d="M264.474 268.625C251.874 266.962 254.077 248.931 252.594 242.572C251.392 237.982 249.615 233.566 247.3 229.428C244.705 223.802 241.094 212.962 245.95 203.194C246.087 202.937 246.321 202.743 246.6 202.654C246.879 202.565 247.18 202.589 247.441 202.719C247.705 202.849 247.905 203.076 248.002 203.352C248.098 203.627 248.085 203.93 247.963 204.196C243.531 213.121 246.922 223.231 249.338 228.465C251.728 232.747 253.559 237.316 254.79 242.064C256.329 248.632 254.176 264.996 264.773 266.393C265.63 266.506 265.842 266.337 265.842 266.337C266.292 265.961 265.43 263.243 267.086 262.001C268.972 260.586 272.401 264.856 274.381 260.651C274.522 260.406 274.752 260.224 275.02 260.14C275.29 260.057 275.582 260.077 275.836 260.199C276.091 260.32 276.291 260.534 276.397 260.795C276.502 261.058 276.505 261.349 276.406 261.614C274.349 265.964 270.706 264.764 268.958 264.188C268.758 264.125 268.508 264.044 268.326 263.993C268.072 264.96 269.066 269.212 264.474 268.625Z" fill="#1C3B67"/>
<path d="M309.209 213.525C309.141 213.392 309.051 213.275 308.939 213.179C308.826 213.082 308.696 213.009 308.556 212.963C308.414 212.916 308.268 212.898 308.12 212.909C307.973 212.92 307.829 212.96 307.697 213.027C304.56 214.602 295.097 218.526 291.101 220.203C289.733 217.883 287.552 216.155 284.981 215.354C279.036 213.597 270.254 218.157 270.477 224.617C270.502 225.018 270.549 225.419 270.623 225.815C269.465 225.434 268.211 225.464 267.073 225.9C265.937 226.337 264.983 227.153 264.377 228.211C263.149 226.859 261.639 225.792 259.952 225.086C258.266 224.381 256.446 224.054 254.621 224.129C253.145 224.157 251.701 224.563 250.425 225.308C249.149 226.053 248.087 227.113 247.338 228.386C243.133 235.681 250.63 247.664 260.118 244.433C261.923 243.853 263.621 242.984 265.149 241.862C266.724 245.264 270.857 242.149 272.322 241.691C273.94 241.18 275.51 241.88 277.299 239.717C277.4 239.605 277.477 239.472 277.524 239.328C277.574 239.186 277.592 239.033 277.58 238.882C277.569 238.732 277.529 238.585 277.459 238.45C277.389 238.318 277.292 238.198 277.175 238.102C277.061 238.005 276.926 237.933 276.779 237.89C276.635 237.847 276.482 237.834 276.332 237.85C276.183 237.868 276.037 237.915 275.906 237.989C275.774 238.064 275.659 238.163 275.567 238.284C274.469 239.607 273.641 238.912 271.645 239.544C270.414 239.931 267.962 241.49 267.341 241.146C267.233 241.088 267.032 240.766 266.958 239.96C266.958 239.814 266.958 239.67 266.942 239.614C267.354 234.99 270.054 233.226 269.393 229.624C269.339 229.329 269.17 229.07 268.922 228.902C268.677 228.733 268.373 228.67 268.081 228.724C267.788 228.778 267.527 228.947 267.359 229.192C267.19 229.439 267.127 229.741 267.181 230.035C267.269 230.629 267.219 231.235 267.039 231.809C266.711 231.183 266.339 230.582 265.928 230.008C266.202 229.387 266.63 228.845 267.167 228.434C267.692 228.002 268.351 227.772 269.03 227.783C269.708 227.795 270.36 228.047 270.871 228.494C271.06 228.656 271.298 228.748 271.546 228.76C272.889 231.856 275.051 234.527 277.799 236.489C279.025 237.384 280.451 237.971 281.954 238.198C283.457 238.423 284.992 238.284 286.43 237.789C287.867 237.292 289.161 236.457 290.205 235.352C291.249 234.247 292.01 232.906 292.424 231.444C293.369 228.422 293.258 225.169 292.111 222.219C295.936 220.617 305.494 216.663 308.696 215.046C308.831 214.98 308.95 214.889 309.049 214.777C309.148 214.665 309.224 214.534 309.272 214.393C309.319 214.251 309.337 214.101 309.328 213.952C309.317 213.803 309.276 213.658 309.209 213.525ZM261.259 241.562C260.21 242.172 259.04 242.543 257.832 242.654C256.624 242.762 255.407 242.606 254.266 242.194C247.358 239.458 245.491 226.978 254.783 226.375C259.612 225.977 264.407 230.164 265.912 234.83C265.376 236.077 265.014 237.393 264.834 238.739C264.465 239.126 264.632 240.014 261.259 241.551V241.562ZM290.302 230.738C290 231.865 289.427 232.902 288.635 233.759C287.84 234.614 286.85 235.265 285.748 235.652C284.645 236.039 283.466 236.151 282.312 235.978C281.158 235.804 280.062 235.352 279.122 234.661C277.407 233.514 275.951 232.022 274.849 230.276C273.746 228.533 273.024 226.577 272.725 224.536C272.579 220.29 278.096 217.21 282.296 217.21C283.815 217.26 285.291 217.724 286.567 218.551C287.843 219.378 288.869 220.537 289.535 221.904C290.918 224.636 291.193 227.797 290.302 230.726V230.738Z" fill="#1C3B67"/>
<path d="M271.778 250.243C271.49 250.168 271.244 249.984 271.091 249.727C270.941 249.473 270.896 249.167 270.968 248.879C271.04 248.591 271.222 248.344 271.476 248.191C271.73 248.038 272.036 247.99 272.324 248.06C274.201 248.229 276.091 247.952 277.841 247.255C279.59 246.555 281.149 245.452 282.393 244.037C282.492 243.927 282.614 243.839 282.746 243.778C282.881 243.715 283.025 243.679 283.174 243.673C283.322 243.666 283.469 243.691 283.608 243.74C283.745 243.792 283.874 243.868 283.984 243.967C284.092 244.069 284.18 244.188 284.243 244.323C284.306 244.456 284.339 244.602 284.346 244.748C284.353 244.897 284.33 245.043 284.279 245.182C284.229 245.322 284.15 245.448 284.051 245.558C282.542 247.279 280.634 248.605 278.494 249.421C276.356 250.236 274.05 250.519 271.778 250.243Z" fill="#1C3B67"/>
<path d="M277.598 253.381C277.301 253.372 277.018 253.244 276.813 253.028C276.611 252.81 276.5 252.52 276.509 252.223C276.527 251.928 276.656 251.649 276.872 251.446C277.088 251.244 277.371 251.131 277.668 251.131C279.104 251.194 280.535 250.924 281.849 250.342C282.123 250.225 282.434 250.22 282.71 250.333C282.987 250.443 283.208 250.659 283.325 250.933C283.444 251.208 283.446 251.518 283.336 251.795C283.223 252.072 283.007 252.295 282.733 252.412C281.113 253.105 279.36 253.435 277.598 253.381Z" fill="#1C3B67"/>
<path d="M270.833 217.256C270.601 217.257 270.374 217.185 270.185 217.051C269.993 216.918 269.852 216.729 269.773 216.51C269.694 216.291 269.685 216.054 269.748 215.83C269.809 215.607 269.939 215.408 270.119 215.261C270.963 214.569 271.917 214.025 272.943 213.652C275.659 212.243 278.645 211.432 281.7 211.274C281.849 211.264 281.997 211.285 282.137 211.334C282.276 211.383 282.407 211.459 282.515 211.559C282.625 211.659 282.715 211.779 282.778 211.914C282.839 212.048 282.875 212.194 282.879 212.342C282.893 212.64 282.789 212.931 282.589 213.152C282.389 213.372 282.107 213.505 281.81 213.519C279.032 213.671 276.32 214.42 273.857 215.715C273.022 216.015 272.243 216.453 271.553 217.011C271.348 217.174 271.094 217.261 270.833 217.256Z" fill="#1C3B67"/>
<path d="M254.097 223.31C253.836 223.303 253.586 223.207 253.388 223.038C253.19 222.868 253.055 222.636 253.008 222.38C252.961 222.124 253.001 221.859 253.125 221.629C253.251 221.4 253.449 221.22 253.69 221.12C253.879 221.017 254.317 220.745 254.47 220.65C255.591 220.123 256.774 219.745 257.994 219.525C258.14 219.492 258.293 219.489 258.442 219.516C258.59 219.544 258.732 219.6 258.858 219.683C258.984 219.766 259.092 219.873 259.175 219.999C259.258 220.124 259.317 220.266 259.344 220.414C259.373 220.562 259.371 220.714 259.339 220.862C259.308 221.009 259.245 221.148 259.159 221.272C259.072 221.395 258.961 221.499 258.833 221.579C258.705 221.659 258.561 221.711 258.412 221.735C257.431 221.92 256.475 222.212 255.559 222.608C254.808 223.082 254.446 223.31 254.097 223.31Z" fill="#1C3B67"/>
<path d="M262.334 233.471C262.148 233.473 261.963 233.426 261.797 233.339C261.632 233.249 261.493 233.12 261.389 232.963C261.05 232.517 260.757 232.038 260.516 231.529C259.351 230.276 261.74 228.427 262.573 230.612C262.771 230.978 262.971 231.269 263.275 231.737C263.385 231.908 263.446 232.103 263.453 232.304C263.462 232.506 263.414 232.706 263.318 232.884C263.223 233.062 263.079 233.21 262.908 233.314C262.735 233.417 262.537 233.471 262.334 233.471Z" fill="#1C3B67"/>
<path d="M278.851 228.415C277.85 228.415 277.816 227.466 276.482 225.801C276.334 225.698 276.214 225.56 276.131 225.4C276.05 225.241 276.007 225.063 276.01 224.882C276.005 224.63 276.084 224.384 276.235 224.181C276.383 223.979 276.597 223.832 276.84 223.764C277.083 223.695 277.342 223.71 277.576 223.804C277.81 223.899 278.005 224.068 278.131 224.286C278.737 225.043 279.292 225.842 279.79 226.674C279.9 226.843 279.963 227.039 279.972 227.241C279.981 227.444 279.936 227.646 279.839 227.824C279.742 228.001 279.601 228.15 279.427 228.256C279.252 228.359 279.054 228.415 278.851 228.415Z" fill="#1C3B67"/>
<path d="M337.03 269.811C336.791 269.631 336.492 269.554 336.195 269.597C335.9 269.638 335.635 269.795 335.455 270.036C334.82 270.846 334.138 271.615 333.412 272.344C331.191 274.507 329.481 277.135 328.403 280.042C326.322 284.418 324.162 288.877 319.669 290.025C318.496 290.32 317.268 290.315 316.098 290.009C314.928 289.705 313.852 289.111 312.973 288.281C312.093 287.451 311.436 286.414 311.062 285.264C310.689 284.112 310.612 282.888 310.837 281.7C311.013 279.976 311.569 278.314 312.466 276.831C313.364 275.35 314.579 274.086 316.026 273.134C317.059 272.587 318.172 272.207 319.322 272.009C321.525 271.624 323.584 270.659 325.291 269.217C325.987 268.78 326.826 268.249 327.73 267.597C335.493 261.999 337.705 254.135 335.905 244.926C335.842 244.638 335.668 244.386 335.423 244.224C335.178 244.062 334.876 244.003 334.588 244.06C334.298 244.116 334.044 244.285 333.877 244.528C333.711 244.771 333.646 245.07 333.697 245.36C333.801 245.891 333.855 246.427 333.922 246.962C332.692 246.809 328.448 246.08 324.763 245.441C324.409 244.917 324.052 244.386 323.705 243.85C319.385 237.112 317.803 232.814 318.062 231.925C318.418 231.057 318.953 230.276 319.637 229.635C320.326 228.94 320.913 228.154 321.388 227.299C322.382 224.963 322.893 222.45 322.886 219.911C322.879 217.373 322.357 214.862 321.352 212.532C320.078 209.218 317.41 205.698 313.904 206.441C310.156 207.246 307.478 212.831 307.928 216.665C307.838 216.69 307.75 216.726 307.667 216.773C307.21 217.082 306.675 217.254 306.124 217.268C304.627 216.87 303.997 215.572 299.808 209.924C300.679 209.537 301.556 209.159 302.391 208.738C302.647 208.598 302.841 208.364 302.926 208.085C303.014 207.806 302.989 207.504 302.857 207.243C302.724 206.982 302.497 206.782 302.22 206.687C301.943 206.591 301.642 206.607 301.376 206.731C285.59 214.689 264.656 215.43 253.471 201.66C252.673 200.685 251.993 199.617 251.446 198.48C251.305 198.235 251.077 198.052 250.805 197.967C250.535 197.883 250.243 197.904 249.986 198.026C249.732 198.148 249.532 198.362 249.426 198.625C249.322 198.888 249.32 199.181 249.421 199.446C250.348 201.349 251.588 203.083 253.091 204.576C250.92 210.337 250.688 216.651 252.434 222.556C253.226 224.966 254.322 227.266 255.697 229.399C258.246 233.482 259.922 238.05 260.617 242.815C261.238 246.109 262.534 249.239 264.424 252.009C266.314 254.779 268.758 257.128 271.6 258.907C273.622 260.473 275.94 261.619 278.413 262.269C280.888 262.919 283.468 263.063 286 262.692C285.451 263.934 284.976 265.205 284.575 266.503C284.533 266.643 284.519 266.791 284.535 266.94C284.548 267.086 284.593 267.228 284.663 267.358C284.733 267.489 284.827 267.604 284.942 267.698C285.057 267.79 285.19 267.86 285.331 267.903C285.471 267.946 285.619 267.959 285.768 267.946C285.914 267.93 286.056 267.885 286.186 267.815C286.317 267.745 286.432 267.651 286.526 267.536C286.618 267.421 286.688 267.289 286.731 267.149C287.26 265.394 287.937 263.686 288.756 262.048C290.212 261.603 291.622 261.029 292.972 260.329C293.629 260.941 294.248 261.596 294.822 262.289C293.4 265.178 295.722 269.386 295.742 269.431C295.843 269.593 295.983 269.725 296.149 269.82C296.316 269.912 296.503 269.962 296.694 269.964C296.894 269.964 297.09 269.912 297.261 269.813C297.434 269.714 297.578 269.57 297.677 269.397C297.776 269.226 297.828 269.028 297.826 268.83C297.823 268.63 297.769 268.436 297.668 268.265C297.074 267.124 296.703 265.88 296.579 264.6C297.344 265.664 298.1 266.755 298.762 267.797C298.84 267.921 298.944 268.029 299.065 268.114C299.187 268.198 299.322 268.258 299.466 268.29C299.612 268.324 299.761 268.326 299.907 268.301C300.051 268.274 300.19 268.22 300.316 268.141C300.44 268.063 300.548 267.959 300.634 267.838C300.717 267.716 300.778 267.581 300.809 267.437C300.843 267.291 300.845 267.142 300.82 266.996C300.793 266.852 300.739 266.713 300.661 266.589C299.043 263.92 297.148 261.432 295.009 259.164C301.291 254.916 306.682 249.48 310.878 243.166C311.038 242.921 311.094 242.622 311.038 242.336C310.981 242.05 310.815 241.796 310.574 241.63C310.336 241.463 310.041 241.398 309.751 241.443C309.463 241.49 309.204 241.648 309.031 241.884C301.14 253.231 288.643 265.059 276.194 259.04C275.044 258.475 273.942 257.816 272.9 257.071C270.29 255.454 268.047 253.312 266.31 250.783C264.575 248.251 263.385 245.385 262.818 242.37C260.129 228.847 256.635 228.787 254.583 221.908C253.073 216.798 253.168 211.348 254.857 206.295C266.258 216.615 283.189 216.521 297.675 210.815C302.094 216.597 304.058 221.327 308.542 218.82C308.707 219.025 308.938 219.166 309.195 219.218C309.451 219.27 309.719 219.23 309.951 219.106C310.183 218.982 310.363 218.781 310.462 218.538C310.561 218.295 310.57 218.024 310.491 217.774C309.141 214.267 311.917 209.166 314.388 208.635C318.301 207.795 322.938 219.21 319.385 226.287C318.604 227.844 316.525 229.113 315.9 231.3C314.928 234.691 321.541 244.678 323.518 247.63C325.075 249.995 326.835 252.22 328.779 254.281C328.986 254.495 329.269 254.621 329.566 254.628C329.866 254.635 330.154 254.522 330.37 254.317C330.586 254.11 330.709 253.827 330.716 253.528C330.723 253.231 330.613 252.94 330.406 252.727C328.97 251.212 327.645 249.597 326.439 247.894C327.224 248.107 328.014 248.269 328.716 248.393C330.484 248.884 332.305 249.172 334.138 249.253C334.458 252.448 333.909 255.67 332.548 258.579C331.186 261.488 329.065 263.977 326.407 265.781C325.111 266.713 324.745 266.839 322.27 268.54C321.986 268.402 321.691 268.288 321.392 268.195C309.967 265.27 298.982 281.261 306.45 291.078C307.249 292.176 308.304 293.067 309.523 293.67C310.741 294.275 312.088 294.574 313.447 294.545C316.006 294.484 318.496 293.722 320.647 292.338C320.78 292.243 320.888 292.12 320.967 291.978C325.867 290.333 328.167 285.743 330.417 281.027C331.391 278.338 332.964 275.906 335.018 273.919C335.808 273.125 336.55 272.284 337.239 271.399C337.331 271.28 337.399 271.145 337.437 271.001C337.475 270.859 337.486 270.709 337.466 270.56C337.448 270.412 337.399 270.27 337.324 270.142C337.248 270.013 337.149 269.901 337.03 269.811ZM308.25 289.699C305.446 286.018 305.586 281.101 308.63 276.219C309.571 274.66 310.831 273.316 312.327 272.277C313.823 271.24 315.522 270.531 317.311 270.196C307.44 273.017 304.816 289.006 315.227 292.09C313.958 292.41 312.622 292.356 311.382 291.931C310.144 291.505 309.055 290.729 308.25 289.699Z" fill="#1C3B67"/>
<path d="M353.644 287.404C353.349 287.386 353.056 287.483 352.829 287.674C352.604 287.863 352.458 288.135 352.426 288.428C351.943 293.978 351.094 299.858 349.893 306.245C348.833 302.78 348.102 299.219 347.715 295.614C347.701 295.466 347.656 295.319 347.584 295.184C347.512 295.052 347.416 294.935 347.296 294.84C347.179 294.748 347.042 294.678 346.898 294.638C346.752 294.597 346.599 294.586 346.45 294.604C346.3 294.624 346.156 294.674 346.025 294.75C345.895 294.827 345.782 294.928 345.692 295.049C345.602 295.171 345.537 295.31 345.501 295.457C345.465 295.603 345.46 295.756 345.485 295.904C345.969 300.834 347.17 305.667 349.049 310.25L349.087 310.289C348.397 313.52 347.4 316.676 346.113 319.718C342.796 325.289 341.896 325.262 339.086 330.642C338.958 330.905 338.935 331.209 339.028 331.488C339.118 331.767 339.316 331.999 339.574 332.136C339.835 332.271 340.139 332.3 340.418 332.217C340.699 332.132 340.938 331.94 341.08 331.684C343.845 326.387 344.644 326.61 348.111 320.744C349.636 317.194 350.782 313.49 351.529 309.697C352.969 302.738 354.017 295.7 354.667 288.621C354.692 288.324 354.6 288.029 354.409 287.802C354.215 287.573 353.941 287.431 353.644 287.404Z" fill="#1C3B67"/>
<path d="M253.931 355.77C252.241 355.77 254.52 354.353 245.684 351.108C241.679 349.632 240.624 349.688 240.869 348.374C242.793 338.06 249.044 327.065 251.028 318.726C252.578 312.19 252.621 306.423 253.825 300.483C254.954 294.746 258.039 289.577 262.553 285.858C266.074 283.007 273.857 277.481 277.853 274.556C277.972 274.468 278.107 274.405 278.251 274.369C278.395 274.333 278.543 274.329 278.69 274.351C278.836 274.374 278.975 274.423 279.104 274.5C279.23 274.576 279.34 274.678 279.425 274.797C279.513 274.916 279.576 275.051 279.612 275.195C279.648 275.339 279.655 275.488 279.632 275.634C279.61 275.78 279.558 275.92 279.482 276.048C279.405 276.174 279.304 276.284 279.185 276.372C275.537 279.043 267.379 284.843 263.975 287.608C253.721 295.913 256.246 306.508 253.222 319.241C251.291 327.37 245.246 338.427 243.263 347.881C246.69 349.024 253.067 351.124 254.889 354.047C254.997 354.217 255.056 354.413 255.06 354.613C255.067 354.816 255.017 355.014 254.921 355.192C254.822 355.367 254.678 355.513 254.504 355.615C254.331 355.718 254.133 355.77 253.931 355.77Z" fill="#1C3B67"/>
<path d="M254.086 375.196C249.646 375.759 246.589 377.057 243.169 376.715C236.675 376.09 231.223 372.242 224.327 372.101C216.279 371.995 208.753 378.889 205.888 377.051C205.87 376.846 206.273 376.06 207.621 374.949C210.426 372.676 213.855 371.308 217.453 371.025C217.752 370.998 218.028 370.856 218.221 370.627C218.414 370.397 218.508 370.102 218.483 369.803C218.457 369.504 218.315 369.23 218.086 369.036C217.857 368.843 217.561 368.748 217.262 368.775C213.209 369.094 209.348 370.638 206.192 373.203C204.914 374.256 203.344 375.874 203.697 377.478C200.772 380.158 199.298 381.051 199.015 380.819C198.79 379.663 199.966 378.099 200.815 376.954C201.415 376.153 202.165 375.091 202.581 374.666C202.997 374.24 203.593 373.635 203.184 372.843C203.056 372.627 202.868 372.456 202.642 372.346C202.417 372.238 202.165 372.199 201.917 372.233C200.808 372.411 199.879 373.903 199.458 374.341C197.483 376.517 195.372 378.565 193.14 380.477C193.191 379.379 193.531 378.315 194.125 377.392C194.934 376.11 195.878 374.917 196.942 373.84C197.912 372.836 200.317 370.492 200.936 369.997C201.836 369.274 202.48 368.712 202.444 367.902C202.431 367.612 202.307 367.337 202.097 367.137C201.888 366.937 201.609 366.824 201.319 366.826C200.026 367.24 198.8 367.839 197.676 368.6C196.423 369.369 194.202 370.777 192.685 370.478C193.074 369.619 193.653 368.861 194.377 368.26C195.711 367.229 197.152 366.347 198.675 365.627C218.133 356.249 223.396 360.544 239.96 360.997C241.693 361.042 244.127 361.035 245.833 360.914C246.44 360.869 252.983 359.586 254.383 359.3C254.533 359.302 254.682 359.278 254.824 359.224C254.963 359.167 255.091 359.086 255.199 358.981C255.307 358.877 255.393 358.751 255.451 358.612C255.51 358.474 255.539 358.324 255.539 358.175C255.532 358.009 255.492 357.844 255.418 357.696C255.343 357.545 255.238 357.415 255.107 357.309C254.977 357.205 254.826 357.129 254.666 357.088C254.504 357.046 254.335 357.039 254.171 357.07C254.171 357.07 246.105 358.621 245.673 358.668C244.132 358.783 241.623 358.794 240.023 358.747C223.65 358.297 217.654 353.975 197.698 363.6C196.039 364.406 194.464 365.373 192.996 366.491C192.964 366.516 189.799 369.164 190.521 371.315C191.095 373.039 193.507 372.964 195.228 372.384C194.082 373.558 193.064 374.854 192.193 376.247C192.109 376.389 190.154 379.726 191.171 381.562C191.359 381.892 191.635 382.167 191.967 382.354C192.3 382.54 192.678 382.63 193.059 382.619C194.449 382.664 195.739 381.312 196.742 380.347C196.653 380.905 196.753 381.476 197.027 381.971C197.3 382.466 197.732 382.853 198.252 383.076C199.827 383.582 201.892 382.248 205.209 379.186C207.711 380.378 210.546 378.898 213.984 377.341C222.253 373.617 224.543 373.381 233.955 376.636C242.442 379.561 244.494 379.438 250.274 378.173C251.608 377.851 252.961 377.609 254.324 377.444C254.621 377.413 254.893 377.266 255.08 377.035C255.269 376.803 255.357 376.506 255.328 376.211C255.316 376.06 255.274 375.914 255.206 375.782C255.136 375.649 255.04 375.532 254.925 375.437C254.808 375.343 254.673 375.271 254.529 375.23C254.385 375.187 254.234 375.176 254.086 375.196Z" fill="#1C3B67"/>
<path d="M204.73 372.271C204.471 372.271 204.219 372.184 204.018 372.019C203.817 371.857 203.678 371.63 203.625 371.376C203.572 371.122 203.608 370.859 203.727 370.627C203.847 370.397 204.042 370.215 204.28 370.114C205.383 368.95 206.558 367.859 207.797 366.842C207.906 366.736 208.037 366.653 208.179 366.599C208.322 366.545 208.474 366.52 208.627 366.527C208.779 366.534 208.929 366.57 209.066 366.637C209.204 366.703 209.326 366.797 209.427 366.912C209.527 367.027 209.603 367.162 209.649 367.306C209.696 367.452 209.713 367.605 209.698 367.758C209.684 367.909 209.639 368.057 209.566 368.19C209.492 368.325 209.393 368.442 209.273 368.537C208.415 369.286 207.563 370.048 206.719 370.822C206.384 371.131 205.616 372.271 204.73 372.271Z" fill="#1C3B67"/>
<path d="M176.4 364.012C176.207 364.012 176.018 363.962 175.849 363.865C175.681 363.771 175.541 363.636 175.441 363.469C175.341 363.305 175.285 363.118 175.278 362.925C175.271 362.731 175.315 362.54 175.403 362.369C181.593 350.395 197.417 349.904 210.593 349.405C214.443 349.258 221.497 347.431 229.156 350.476C233.447 352.55 237.375 355.3 240.793 358.621C240.899 358.724 240.984 358.848 241.043 358.983C241.099 359.12 241.13 359.266 241.133 359.413C241.135 359.561 241.108 359.71 241.052 359.847C240.998 359.984 240.914 360.108 240.813 360.214C240.71 360.322 240.586 360.405 240.449 360.463C240.314 360.522 240.167 360.553 240.019 360.553C239.87 360.556 239.724 360.529 239.587 360.475C239.45 360.418 239.324 360.337 239.218 360.234C235.994 357.097 232.288 354.496 228.242 352.532C221.306 349.78 214.661 351.499 210.677 351.655C198.45 352.127 183.029 352.51 177.397 363.402C177.303 363.584 177.16 363.739 176.984 363.845C176.808 363.953 176.606 364.012 176.4 364.012Z" fill="#1C3B67"/>
<path d="M204.912 356.627C204.136 355.815 203.364 356.481 202.473 357.25C201.946 357.7 201.44 358.184 200.941 358.684C200.005 359.617 200.452 359.273 200.106 359.359C196.134 359.98 192.535 362.054 190.006 365.179C188.656 367.276 187.785 370.451 185.98 371.765C185.909 371.824 185.824 371.864 185.733 371.884C185.429 371.16 185.273 370.384 185.273 369.601C185.273 368.815 185.429 368.039 185.733 367.317C186.518 364.948 187.549 362.668 188.809 360.515C189.467 359.521 190.4 358.74 191.493 358.265C191.766 358.144 191.979 357.919 192.086 357.64C192.194 357.361 192.186 357.052 192.064 356.78C191.943 356.506 191.719 356.292 191.44 356.186C191.162 356.078 190.852 356.087 190.579 356.209C189.331 356.764 188.235 357.613 187.384 358.684C187.269 358.711 187.158 358.756 187.056 358.819C186.354 359.282 183.195 361.593 182.599 362.054C180.594 363.611 178.93 365.564 177.709 367.792C177.638 367.92 177.593 368.062 177.576 368.21C177.56 368.356 177.573 368.505 177.614 368.647C177.655 368.788 177.724 368.921 177.816 369.036C177.908 369.153 178.022 369.247 178.152 369.319C178.281 369.391 178.423 369.436 178.57 369.452C178.717 369.468 178.866 369.457 179.008 369.416C179.15 369.373 179.282 369.306 179.398 369.214C179.513 369.121 179.609 369.007 179.68 368.878C180.96 366.552 182.777 364.565 184.979 363.085C183.367 365.827 182.787 369.058 183.341 372.193C183.478 372.728 183.784 373.205 184.213 373.556C184.643 373.905 185.173 374.107 185.726 374.132C188.795 374.132 190.566 368.433 191.884 366.403C193.317 364.549 195.279 363.172 197.509 362.459C197.314 362.698 197.1 362.941 196.915 363.179C196.82 363.294 196.748 363.429 196.705 363.573C196.661 363.717 196.647 363.868 196.664 364.016C196.68 364.167 196.726 364.311 196.799 364.444C196.872 364.574 196.971 364.689 197.09 364.783C197.209 364.876 197.344 364.943 197.49 364.981C197.635 365.022 197.787 365.031 197.936 365.011C198.085 364.99 198.228 364.939 198.357 364.862C198.487 364.786 198.599 364.682 198.688 364.563C200.426 362.356 202.375 360.326 204.507 358.501C204.676 358.423 204.825 358.308 204.942 358.162C205.058 358.018 205.14 357.847 205.179 357.664C205.218 357.482 205.215 357.293 205.168 357.113C205.122 356.933 205.034 356.767 204.912 356.627Z" fill="#1C3B67"/>
<path d="M278.577 348.037C278.35 348.037 278.129 347.967 277.942 347.839C277.753 347.71 277.609 347.53 277.528 347.319C274.207 338.769 275.279 332.761 276.516 325.807C277.031 322.913 277.445 320.458 278.118 317.38C278.159 316.712 278.296 316.053 278.525 315.425C278.572 315.281 278.647 315.151 278.744 315.036C278.843 314.923 278.962 314.831 279.097 314.764C279.232 314.698 279.378 314.66 279.526 314.651C279.677 314.642 279.826 314.662 279.967 314.712C280.109 314.761 280.24 314.84 280.35 314.939C280.462 315.04 280.553 315.162 280.616 315.299C280.679 315.434 280.712 315.583 280.719 315.731C280.723 315.882 280.701 316.03 280.647 316.172C280.474 316.66 280.37 317.171 280.341 317.691C279.637 320.985 279.268 323.181 278.732 326.203C277.508 333.097 276.534 338.537 279.632 346.504C279.697 346.675 279.722 346.86 279.702 347.042C279.679 347.224 279.614 347.398 279.511 347.548C279.405 347.699 279.265 347.823 279.103 347.908C278.941 347.994 278.761 348.037 278.577 348.037Z" fill="#1C3B67"/>
<path d="M267.327 336.737C267.127 336.737 266.929 336.683 266.756 336.582C266.582 336.481 266.438 336.335 266.342 336.159C264.159 332.233 257.231 319.041 257.231 319.041C256.95 318.497 256.525 317.673 257.31 317.079C257.474 316.962 257.668 316.89 257.868 316.87C258.068 316.849 258.273 316.879 258.458 316.96C258.644 317.039 258.804 317.167 258.928 317.327C259.052 317.486 259.13 317.675 259.16 317.876C262.31 324.176 267.887 334.301 268.308 335.063C268.405 335.234 268.452 335.428 268.452 335.624C268.45 335.819 268.396 336.013 268.297 336.182C268.198 336.35 268.056 336.49 267.885 336.589C267.716 336.686 267.523 336.737 267.327 336.737Z" fill="#1C3B67"/>
<path d="M269.485 328.705C269.233 328.703 268.987 328.617 268.789 328.462C268.591 328.307 268.452 328.088 268.393 327.843C268.339 327.618 266.143 318.335 266.074 317.507C265.925 317.306 265.846 317.063 265.849 316.816C265.851 316.568 265.936 316.328 266.087 316.132C266.238 315.943 266.44 315.803 266.67 315.725C266.899 315.648 267.145 315.639 267.379 315.698C268.389 315.997 268.263 317.194 268.346 317.626C268.531 318.447 270.004 324.907 270.58 327.319C270.621 327.483 270.621 327.656 270.585 327.821C270.549 327.987 270.475 328.142 270.369 328.277C270.263 328.41 270.128 328.518 269.975 328.592C269.822 328.667 269.656 328.705 269.485 328.705Z" fill="#1C3B67"/>
<path d="M404.1 346.635C402.865 341.861 402.246 336.944 402.262 332.01C401.618 324.272 400.432 316.591 398.709 309.017C398.421 305.057 398.034 301.124 397.71 298.996C396.2 288.65 393.111 278.597 388.55 269.188C386.543 264.42 383.553 260.127 379.775 256.588C376.605 254.061 372.908 252.275 368.959 251.357C360.49 249.406 351.916 247.948 343.278 246.987C343.129 246.958 342.974 246.956 342.826 246.985C342.677 247.016 342.536 247.075 342.41 247.16C342.284 247.248 342.178 247.358 342.097 247.487C342.013 247.615 341.959 247.759 341.935 247.91C341.91 248.058 341.917 248.213 341.955 248.36C341.991 248.508 342.056 248.648 342.148 248.769C342.241 248.888 342.355 248.992 342.488 249.066C342.621 249.143 342.767 249.19 342.918 249.206C351.495 250.16 360.011 251.606 368.422 253.541C371.668 254.311 374.733 255.715 377.435 257.672C372.877 260.622 368.82 264.278 365.411 268.504C364.459 269.645 363.476 270.824 362.576 272.068C362.491 272.189 362.428 272.324 362.394 272.468C362.36 272.612 362.354 272.761 362.378 272.907C362.401 273.053 362.452 273.193 362.531 273.319C362.608 273.445 362.709 273.553 362.83 273.641C362.95 273.726 363.085 273.789 363.229 273.823C363.373 273.857 363.521 273.863 363.668 273.839C363.814 273.816 363.953 273.764 364.079 273.686C364.205 273.609 364.315 273.508 364.401 273.386C365.301 272.147 366.399 270.83 367.409 269.624C370.809 265.568 374.776 262.019 379.19 259.094C382.268 262.33 384.748 266.085 386.518 270.182C390.978 279.385 394 289.217 395.476 299.336C396.335 305.066 397.777 323.453 396.601 328.939C393.534 341.395 388.645 353.329 382.09 364.354C380.556 362.912 366.086 349.745 364.243 347.929C357.759 341.532 351.632 335.815 342.457 336.044C342.16 336.056 341.881 336.184 341.678 336.4C341.476 336.618 341.365 336.906 341.374 337.201C336.514 346.842 327.69 349.495 321.455 350.642C310.03 352.55 298.483 353.653 286.902 353.941C286.603 353.95 286.319 354.074 286.115 354.29C285.908 354.506 285.797 354.796 285.804 355.093C285.811 355.392 285.937 355.676 286.153 355.883C286.369 356.087 286.657 356.2 286.956 356.191C286.956 356.191 291.814 355.934 292.9 355.883C302.611 355.538 312.289 354.53 321.863 352.861C325.719 352.15 337.367 349.985 343.321 338.326C351.293 338.362 357.129 344.072 362.723 349.591C364.394 351.243 366.937 353.619 370.568 356.931C364.37 363.575 360.513 372.823 347.089 375.959C335.551 378.745 326.999 377.057 313.864 376.479C305.264 376.094 303.788 376.139 294.815 376.139C294.516 376.139 294.23 376.259 294.019 376.47C293.81 376.682 293.69 376.967 293.69 377.264C293.69 377.564 293.81 377.849 294.019 378.061C294.23 378.272 294.516 378.389 294.815 378.389C303.912 378.389 305.726 378.367 313.765 378.727C325.424 379.233 336.112 381.006 347.29 378.234C347.4 378.227 347.51 378.198 347.612 378.153C361.919 374.8 366.212 364.878 372.24 358.443C373.214 359.325 379.192 364.707 380.81 366.228C382.039 367.382 383.119 367.094 383.51 366.44C385.63 362.853 387.965 358.376 390.456 353.133C394.069 345.591 396.859 337.68 398.781 329.54C399.073 328.039 399.224 326.513 399.231 324.981C400.952 338.423 399.528 338.328 401.92 347.227C404.487 357.343 406.278 367.637 407.279 378.023C407.306 378.322 407.45 378.596 407.682 378.79C407.911 378.981 408.209 379.073 408.508 379.046C408.805 379.019 409.079 378.875 409.273 378.644C409.464 378.414 409.556 378.117 409.529 377.818C408.514 367.301 406.699 356.877 404.1 346.635Z" fill="#1C3B67"/>
<path d="M316.096 201.686C315.927 201.686 315.758 201.648 315.607 201.575C315.454 201.502 315.319 201.395 315.214 201.263C312.032 197.306 308.11 194.008 303.667 191.554C301.795 190.442 299.839 189.479 297.817 188.676C297.142 188.426 296.278 188.116 296.408 187.169C296.44 186.965 296.525 186.774 296.656 186.615C296.786 186.455 296.957 186.333 297.151 186.261C297.342 186.189 297.551 186.17 297.754 186.204C297.956 186.239 298.147 186.327 298.305 186.46C300.539 187.321 302.699 188.368 304.758 189.59C309.456 192.186 313.603 195.675 316.964 199.861C317.095 200.026 317.178 200.224 317.2 200.433C317.225 200.642 317.189 200.854 317.099 201.044C317.009 201.234 316.867 201.395 316.69 201.508C316.512 201.622 316.307 201.683 316.096 201.686Z" fill="#1C3B67"/>
<path d="M321.327 206.485C321.062 206.485 320.807 206.391 320.605 206.221C320.402 206.05 320.265 205.814 320.22 205.553C319.545 201.668 318.13 193.588 314.627 190.357C314.512 190.259 314.417 190.138 314.35 190.002C314.282 189.867 314.242 189.719 314.233 189.568C314.224 189.416 314.246 189.265 314.298 189.122C314.348 188.98 314.429 188.849 314.53 188.738C314.633 188.626 314.757 188.537 314.897 188.475C315.034 188.413 315.182 188.379 315.335 188.376C315.486 188.373 315.637 188.401 315.776 188.457C315.918 188.514 316.044 188.598 316.152 188.705C320.216 192.449 321.66 200.72 322.436 205.166C322.466 205.328 322.457 205.494 322.414 205.653C322.371 205.811 322.295 205.958 322.189 206.084C322.083 206.21 321.95 206.311 321.802 206.38C321.653 206.449 321.491 206.485 321.327 206.485Z" fill="#1C3B67"/>
<path d="M403.83 375.737C402.194 375.527 400.567 375.428 398.952 375.381L399.035 375.311C399.24 375.084 399.364 374.796 399.388 374.492C399.413 374.188 399.339 373.883 399.172 373.626C398.963 373.356 398.7 373.131 398.401 372.967C398.101 372.803 397.771 372.699 397.431 372.665C395.552 372.287 358.65 371.237 358.877 371.237C358.578 371.234 358.292 371.349 358.078 371.558C357.973 371.662 357.887 371.783 357.831 371.921C357.772 372.056 357.741 372.202 357.741 372.35C357.739 372.497 357.766 372.643 357.82 372.78C357.876 372.917 357.957 373.043 358.06 373.149C358.27 373.363 358.553 373.484 358.852 373.487C361.327 373.541 390.37 374.425 396.103 374.798C393.878 376.265 382.045 383.414 378.261 385.148C375.847 385.373 349.74 383.708 341.471 382.871C342.544 382.14 347.524 378.898 348.147 378.439C348.354 378.252 348.484 377.993 348.511 377.716C348.541 377.437 348.464 377.161 348.298 376.936C348.131 376.711 347.886 376.556 347.614 376.502C347.339 376.448 347.056 376.495 346.815 376.639C346.21 377.089 344.97 377.89 343.615 378.769C337.765 382.57 337.441 382.856 337.639 383.846C337.702 384.145 337.878 384.406 338.13 384.577C339.851 385.715 378.229 387.412 378.808 387.351C380.569 386.575 382.282 385.693 383.935 384.709C385.774 385.015 387.634 385.148 389.497 385.103C391.993 385.103 394.222 384.973 394.263 384.961C397.361 383.314 400.275 381.346 402.961 379.089C403.569 378.661 404.111 378.146 404.572 377.564C404.701 377.408 404.782 377.219 404.813 377.021C404.842 376.821 404.818 376.618 404.741 376.432C404.665 376.245 404.541 376.081 404.381 375.959C404.221 375.838 404.03 375.761 403.83 375.737ZM393.761 382.757C393.169 382.867 389.977 382.795 387.355 382.705C397.568 376.74 395.559 377.566 396.279 377.6C397.874 377.559 399.472 377.597 401.062 377.719C398.781 379.609 396.337 381.294 393.761 382.757Z" fill="#1C3B67"/>
<path d="M433.915 381.866C427.228 380.574 403.841 377.408 402.653 377.161C400.835 376.936 400.939 378.961 402.246 379.296C403.756 379.685 415.955 381.301 426.235 382.876L162.31 416.133L24.192 388.15L108.675 381.697C109.138 382.514 109.327 383.094 110.045 383.177C193.198 392.827 189.144 392.333 190.001 392.297L253.966 388.496C254.263 388.478 254.542 388.343 254.74 388.118C254.938 387.895 255.04 387.603 255.022 387.306C255.017 387.155 254.983 387.009 254.92 386.874C254.857 386.739 254.767 386.618 254.657 386.519C254.545 386.42 254.414 386.345 254.272 386.298C254.131 386.253 253.98 386.235 253.831 386.251L190.199 390.031L189.124 387.884L254.347 385.106C254.495 385.099 254.639 385.063 254.774 385C254.907 384.939 255.028 384.849 255.127 384.741C255.229 384.631 255.305 384.505 255.357 384.365C255.406 384.226 255.429 384.077 255.422 383.931C255.402 383.634 255.269 383.36 255.051 383.159C254.833 382.959 254.547 382.849 254.25 382.856L188.017 385.677C178.117 365.9 141.984 293.807 136.42 282.692C135.705 281.25 134.549 280.073 133.12 279.333C131.691 278.593 130.063 278.327 128.473 278.577C128.473 278.577 66.5977 288.14 60.0727 289.125C59.652 289.188 59.2533 289.355 58.911 289.607C58.5688 289.861 58.2934 290.194 58.1087 290.576C57.924 290.959 57.8353 291.382 57.8506 291.807C57.8657 292.232 57.9845 292.649 58.1962 293.018C64.2982 303.379 99.2385 365.035 107.451 379.53L15.9412 386.523C15.6836 386.554 15.4448 386.674 15.2653 386.861C15.0857 387.047 14.9765 387.292 14.9561 387.551C14.9357 387.81 15.0054 388.067 15.1534 388.28C15.3013 388.494 15.5185 388.649 15.768 388.721C28.0372 391.457 149.344 418.396 162.268 418.396C162.493 418.396 151.339 419.783 433.717 384.197C433.998 384.176 434.263 384.057 434.466 383.859C434.668 383.661 434.792 383.398 434.815 383.117C434.839 382.833 434.761 382.554 434.596 382.325C434.432 382.095 434.189 381.931 433.915 381.866ZM60.1312 291.866C60.1058 291.814 60.093 291.758 60.0934 291.699C60.0939 291.643 60.1078 291.587 60.1341 291.535C60.1602 291.483 60.1983 291.44 60.2446 291.407C60.291 291.373 60.3447 291.35 60.4012 291.341C66.9262 290.354 128.801 280.791 128.801 280.791C129.921 280.616 131.066 280.802 132.072 281.324C133.078 281.846 133.892 282.674 134.395 283.689C140.321 295.524 180.893 376.493 187.578 389.833L110.853 380.997C107.08 374.319 66.7372 303.095 60.1312 291.875V291.866Z" fill="black"/>
<path d="M243.189 360.198C243.009 360.198 242.829 360.155 242.669 360.07C242.509 359.987 242.37 359.865 242.266 359.717C242.163 359.568 242.098 359.397 242.075 359.219C242.05 359.039 242.071 358.857 242.134 358.686C242.584 357.469 244.078 353.255 244.321 351.981C244.631 350.357 244.811 349.565 245.547 349.261C245.779 349.166 246.037 349.151 246.278 349.218C246.521 349.286 246.733 349.432 246.881 349.634C247.032 349.837 247.108 350.084 247.099 350.334C247.093 350.586 247 350.827 246.841 351.02C246.735 351.333 246.591 352.096 246.532 352.402C246.265 353.81 244.759 358.07 244.246 359.462C244.168 359.678 244.021 359.865 243.832 359.998C243.643 360.128 243.418 360.198 243.189 360.198Z" fill="#1C3B67"/>
<path d="M106.074 215.178C105.776 215.193 105.484 215.089 105.262 214.888C105.041 214.687 104.909 214.407 104.894 214.108C104.879 213.81 104.984 213.518 105.184 213.297C105.385 213.075 105.665 212.943 105.964 212.928C107.138 212.81 108.282 212.48 109.339 211.954C112.652 210.958 115.768 209.395 118.548 207.335C118.666 207.246 118.801 207.182 118.944 207.145C119.087 207.108 119.236 207.1 119.382 207.121C119.528 207.142 119.669 207.191 119.796 207.267C119.923 207.342 120.034 207.442 120.123 207.56C120.212 207.678 120.276 207.812 120.313 207.956C120.35 208.099 120.358 208.248 120.337 208.394C120.316 208.54 120.266 208.681 120.191 208.808C120.116 208.935 120.016 209.046 119.898 209.135C116.965 211.318 113.673 212.974 110.171 214.029C108.89 214.667 107.5 215.057 106.074 215.178Z" fill="#1C3B67"/>
<path d="M136.424 219.966C135.106 217.072 130.383 218.031 127.492 219.187C127.557 218.778 127.593 218.364 127.631 217.945C127.754 217.935 127.875 217.904 127.987 217.853C129.888 216.793 131.343 215.083 132.087 213.038C132.831 210.992 132.813 208.747 132.037 206.713C131.753 205.811 131.228 205.003 130.518 204.379C129.808 203.754 128.94 203.336 128.009 203.169C127.227 203.165 126.46 203.391 125.805 203.819C125.151 204.248 124.636 204.859 124.326 205.577C123.316 204.406 121.979 203.562 120.487 203.154C116.575 202.161 102.415 208.455 101.65 213.137C100.901 217.736 104.859 224.058 109.136 227.241C108.016 227.936 107.063 228.868 106.343 229.972C105.623 231.077 105.155 232.326 104.971 233.633C104.663 236.954 106.758 238.313 110.104 238.313C112.768 238.189 115.394 237.629 117.877 236.659C123.79 234.565 128.902 232.756 133.825 227.779C135.526 226.06 137.529 222.384 136.424 219.966ZM127.696 205.395C128.219 205.503 128.702 205.752 129.093 206.116C129.484 206.479 129.768 206.942 129.915 207.456C130.45 208.838 130.52 210.358 130.114 211.784C129.708 213.21 128.848 214.464 127.665 215.358C127.6 212.765 126.972 210.218 125.824 207.892C125.926 207.001 126.826 205.289 127.696 205.395ZM103.871 213.495C103.975 212.86 104.956 211.611 107.399 210.016C111.881 207.091 118.253 204.877 119.925 205.329C120.733 205.558 121.482 205.957 122.122 206.501C122.762 207.044 123.277 207.719 123.633 208.479C125.454 212.113 125.932 216.274 124.983 220.227C123.964 224.072 120.919 228.276 112.198 226.51C108.245 224.711 103.165 217.83 103.871 213.497V213.495ZM132.221 226.195C127.658 230.805 122.771 232.533 117.121 234.535C112.365 236.216 108.846 236.527 107.476 235.386C107.197 234.916 107.102 234.358 107.21 233.824C107.39 232.699 107.844 231.635 108.533 230.728C109.222 229.822 110.124 229.099 111.159 228.625C111.197 228.595 111.233 228.564 111.267 228.532C112.8 228.953 114.382 229.162 115.972 229.156C118.336 229.318 120.688 228.688 122.655 227.365C124.622 226.042 126.092 224.102 126.835 221.851C126.973 221.841 127.109 221.805 127.235 221.745C128.865 220.926 130.64 220.437 132.46 220.308C133.195 220.256 134.116 220.308 134.379 220.893C134.86 221.957 133.776 224.63 132.226 226.197L132.221 226.195Z" fill="#1C3B67"/>
<path d="M225.776 269.019C225.549 269.019 225.329 268.951 225.142 268.823C224.955 268.695 224.811 268.515 224.728 268.306C224.037 266.533 223.261 264.805 222.478 263.074C221.114 260.077 220.903 259.911 220.903 259.409C220.902 259.132 221.003 258.867 221.185 258.66C221.367 258.453 221.619 258.32 221.893 258.289C222.167 258.255 222.443 258.322 222.669 258.48C222.896 258.637 223.057 258.871 223.121 259.141C223.29 259.569 225.333 263.641 226.838 267.482C226.906 267.653 226.931 267.838 226.908 268.022C226.888 268.204 226.823 268.38 226.717 268.533C226.611 268.684 226.472 268.807 226.307 268.893C226.143 268.978 225.961 269.021 225.776 269.019Z" fill="#1C3B67"/>
<path d="M207.963 263.943C207.694 263.943 207.434 263.844 207.232 263.668C207.028 263.491 206.895 263.248 206.856 262.982C206.817 262.717 206.874 262.444 207.018 262.217C207.162 261.99 207.382 261.821 207.639 261.743C210.591 260.856 213.712 260.68 216.745 261.229C217.038 261.283 217.298 261.452 217.468 261.697C217.638 261.943 217.703 262.246 217.649 262.539C217.595 262.834 217.427 263.092 217.182 263.263C216.936 263.432 216.633 263.497 216.34 263.443C213.546 262.971 210.681 263.142 207.963 263.943Z" fill="#1C3B67"/>
<path d="M209.752 268.891C209.516 268.891 209.286 268.817 209.094 268.679C208.902 268.542 208.759 268.346 208.685 268.121C208.61 267.898 208.608 267.656 208.678 267.431C208.749 267.206 208.888 267.008 209.077 266.866C211.754 265.451 214.71 264.636 217.735 264.483C217.883 264.472 218.032 264.492 218.173 264.539C218.314 264.586 218.443 264.661 218.554 264.76C218.665 264.859 218.755 264.98 218.818 265.115C218.882 265.248 218.917 265.394 218.923 265.543C218.94 265.842 218.837 266.132 218.638 266.355C218.44 266.578 218.161 266.713 217.863 266.728C215.476 266.888 213.134 267.453 210.938 268.4C210.314 268.742 210.125 268.891 209.752 268.891Z" fill="#1C3B67"/>
<path d="M225.718 258.662C225.335 257.832 225.963 257.299 226.57 256.781C228.6 255.384 230.814 254.272 233.147 253.483C233.426 253.397 233.73 253.422 233.991 253.557C234.252 253.69 234.45 253.919 234.542 254.198C234.637 254.475 234.619 254.779 234.493 255.042C234.367 255.307 234.142 255.512 233.867 255.613C231.694 256.349 229.639 257.395 227.765 258.721C227.664 258.907 227.513 259.063 227.329 259.168C227.146 259.274 226.935 259.326 226.723 259.321C226.512 259.315 226.305 259.249 226.127 259.132C225.949 259.018 225.808 258.853 225.718 258.662Z" fill="#1C3B67"/>
<path d="M228.74 263.306C228.49 263.306 228.245 263.225 228.047 263.072C227.849 262.917 227.707 262.703 227.644 262.46C227.581 262.217 227.603 261.958 227.705 261.729C227.804 261.499 227.979 261.31 228.2 261.191C229.889 260.291 231.712 259.666 233.6 259.342C233.746 259.303 233.897 259.294 234.045 259.315C234.194 259.335 234.338 259.387 234.468 259.463C234.596 259.542 234.709 259.643 234.797 259.765C234.887 259.886 234.95 260.024 234.983 260.172C235.019 260.318 235.024 260.469 234.997 260.617C234.972 260.766 234.918 260.908 234.837 261.034C234.756 261.162 234.65 261.27 234.527 261.355C234.403 261.441 234.263 261.499 234.115 261.531C232.281 261.988 230.486 262.582 228.74 263.306Z" fill="#1C3B67"/>
<path d="M157.16 284.512C156.901 284.512 156.65 284.425 156.449 284.26C156.248 284.096 156.11 283.867 156.058 283.613L152.793 267.223C152.76 267.064 152.763 266.897 152.801 266.738C152.84 266.576 152.913 266.427 153.015 266.299C153.118 266.171 153.248 266.065 153.395 265.991C153.542 265.919 153.704 265.878 153.869 265.874L179.204 265.232C179.466 265.205 179.728 265.28 179.938 265.439C180.147 265.601 180.287 265.835 180.329 266.094L184.025 281.394C184.064 281.554 184.067 281.72 184.034 281.88C184.002 282.04 183.935 282.193 183.839 282.323C183.742 282.456 183.617 282.566 183.474 282.645C183.33 282.724 183.172 282.769 183.008 282.78L157.16 284.512ZM155.261 268.088L158.072 282.197L181.523 280.622L178.353 267.503L155.261 268.088Z" fill="#1C3B67"/>
<path d="M201.026 291.319C188.626 284.058 190.226 284.974 190.001 284.843C189.893 284.783 187.076 283.129 186.973 283.043C186.858 282.958 186.727 282.899 186.589 282.868C186.45 282.836 186.307 282.832 186.167 282.859C186.027 282.884 185.894 282.938 185.776 283.019C185.658 283.097 185.558 283.201 185.481 283.32C185.314 283.581 185.252 283.894 185.309 284.2C185.365 284.504 185.535 284.776 185.785 284.958L186.172 285.183L184.126 285.498L182.412 284.285C182.183 284.15 181.913 284.099 181.65 284.144C181.388 284.189 181.149 284.324 180.978 284.528C180.806 284.731 180.712 284.99 180.713 285.255C180.713 285.521 180.808 285.779 180.981 285.982L177.46 286.526L175.286 284.814C175.17 284.72 175.037 284.65 174.894 284.607C174.75 284.564 174.6 284.553 174.452 284.569C174.303 284.585 174.16 284.632 174.029 284.704C173.899 284.776 173.784 284.875 173.692 284.992C173.599 285.109 173.531 285.244 173.492 285.388C173.452 285.532 173.441 285.683 173.46 285.829C173.479 285.977 173.527 286.121 173.602 286.25C173.677 286.38 173.777 286.493 173.896 286.583L174.42 286.994L170.512 287.597L168.016 285.152C167.911 285.048 167.786 284.967 167.649 284.911C167.511 284.857 167.365 284.828 167.217 284.83C166.918 284.834 166.633 284.956 166.424 285.167C166.216 285.381 166.1 285.669 166.103 285.968C166.106 286.265 166.228 286.551 166.441 286.76L167.733 288.025L163.946 288.61L161.426 285.795C161.227 285.572 160.947 285.437 160.649 285.422C160.351 285.406 160.058 285.507 159.835 285.707C159.613 285.908 159.478 286.187 159.462 286.484C159.446 286.783 159.548 287.075 159.748 287.298L161.291 289.019L157.948 289.535L155.41 285.919C155.238 285.674 154.977 285.507 154.683 285.455C154.389 285.404 154.087 285.471 153.842 285.642C153.598 285.815 153.432 286.076 153.38 286.369C153.328 286.664 153.396 286.965 153.567 287.21L162.243 299.565C162.347 299.714 162.484 299.833 162.644 299.916C162.805 300.002 162.982 300.044 163.163 300.044C163.388 300.044 162.038 300.299 200.655 293.384C200.878 293.342 201.082 293.231 201.242 293.069C201.401 292.907 201.508 292.703 201.548 292.48C201.589 292.255 201.56 292.025 201.467 291.818C201.374 291.611 201.22 291.436 201.026 291.319ZM189.238 286.997L191.713 288.457L188.966 288.932L186.768 287.377L189.238 286.997ZM183.573 287.872L185.836 289.472L182.023 290.131L179.878 288.441L183.573 287.872ZM186.475 293.636L184.403 292.005L188.435 291.308L190.685 292.883L186.475 293.636ZM170.921 296.406L169.31 294.606L173.666 293.855L175.444 295.596L170.921 296.406ZM176.402 293.387L181.424 292.518L183.512 294.163L178.112 295.126C177.948 294.885 178.396 295.342 176.4 293.387H176.402ZM176.839 288.909L179.041 290.644L174.42 291.443L172.516 289.575L176.839 288.909ZM169.738 290.005L171.686 291.915L167.537 292.631L165.737 290.621L169.738 290.005ZM163.082 291.031L164.92 293.083L160.918 293.774L159.39 291.6L163.082 291.031ZM162.349 295.812L166.693 295.063L168.313 296.863L163.672 297.689L162.349 295.812ZM193.786 292.334L191.569 290.759L194.719 290.214L197.257 291.706L193.786 292.334Z" fill="#1C3B67"/>
<path d="M296.919 357.093C296.509 356.38 295.915 355.79 295.202 355.383C294.487 354.978 293.674 354.773 292.853 354.789V354.758C290.9 354.868 286.931 355.061 286.931 355.061C286.942 353.479 286.749 351.902 286.355 350.37C284.749 348.282 280.694 347.22 278.176 346.977C272.484 346.421 260.786 345.971 256.378 347.618C254.558 348.293 254.61 348.919 254.578 350.26C254.398 353.999 254.083 377.078 254.482 387.344C254.5 387.965 254.565 388.586 254.673 389.201C255.505 392.657 259.236 392.882 262.228 393.154C267.34 393.615 272.486 393.523 277.578 392.882C279.862 392.751 282.098 392.168 284.155 391.169C287.374 389.201 287.327 385.243 287.329 381.818L287.692 381.805C289.118 381.575 290.479 381.042 291.683 380.241C292.887 379.44 293.904 378.389 294.667 377.163C298.228 371.457 299.565 362.673 296.919 357.093ZM294.23 366.458C293.958 370.49 292.43 375.644 288.214 377.132H287.314C287.314 372.591 287.284 367.02 287.237 364.475C288.274 362.122 291.962 358.821 293.553 361.751C294.226 363.222 294.46 364.856 294.23 366.458Z" fill="white"/>
<path d="M261.835 394.245C258.768 393.966 254.569 393.592 253.573 389.461C253.447 388.775 253.372 388.08 253.348 387.385C253.348 387.385 253.147 379.19 253.138 376.315C253.123 370.222 253.492 349.283 253.512 349.063C253.622 347.974 254.452 347.134 255.987 346.561C261.009 344.686 273.789 345.418 278.291 345.854C280.318 346.064 282.303 346.585 284.17 347.404C285.39 347.859 286.456 348.649 287.251 349.682C287.345 349.801 287.413 349.94 287.451 350.089C287.865 351.713 288.07 353.387 288.061 355.066C288.558 363.551 288.45 383.774 288.445 384.01C288.569 385.565 288.292 387.128 287.644 388.548C286.994 389.97 285.995 391.201 284.737 392.128C282.521 393.224 280.105 393.86 277.636 394.002C272.394 394.659 267.095 394.74 261.835 394.245ZM256.774 348.669C255.874 349.002 255.753 349.286 255.753 349.286C255.505 351.914 255.193 385.853 255.773 388.994C256.333 391.313 258.723 391.705 262.035 392.004C267.16 392.488 272.322 392.407 277.429 391.763C279.592 391.646 281.707 391.1 283.655 390.157C286.256 388.555 286.222 384.883 286.222 381.803C286.222 374.913 286.204 361.991 285.811 355.124C285.822 353.693 285.66 352.269 285.327 350.881C284.8 350.258 284.123 349.783 283.358 349.502C281.677 348.764 279.893 348.291 278.068 348.095C273.22 347.625 261.128 347.045 256.774 348.669Z" fill="#1C3B67"/>
<path d="M262.843 352.852C261.232 352.764 259.639 352.474 258.1 351.985C257.013 351.643 256.525 351.328 256.32 350.827C256.257 350.665 256.226 350.491 256.232 350.318C256.237 350.145 256.277 349.974 256.349 349.816C256.435 349.643 256.565 349.497 256.725 349.389C256.885 349.279 257.069 349.213 257.261 349.198C257.454 349.182 257.648 349.216 257.823 349.294C257.999 349.375 258.149 349.499 258.264 349.654C259.778 350.203 261.365 350.523 262.973 350.606C269.361 350.975 275.765 350.917 282.143 350.431C282.44 350.413 282.733 350.512 282.958 350.705C283.183 350.901 283.322 351.175 283.349 351.47C283.372 351.767 283.275 352.062 283.079 352.289C282.886 352.514 282.609 352.654 282.312 352.676C275.834 353.167 269.33 353.225 262.843 352.852Z" fill="#1C3B67"/>
</svg>
