<svg width="32" height="26" viewBox="0 0 32 26" fill="none" xmlns="http://www.w3.org/2000/svg">
<path d="M2.65577 14.6067H14.0889C15.1111 14.6067 15.7499 13.5001 15.2388 12.6149C15.0016 12.2041 14.5632 11.951 14.0889 11.951H3.31971C2.95305 11.951 2.65577 11.6537 2.65577 11.287V3.31971C2.65672 3.14289 2.72284 2.9727 2.84168 2.84167C2.9727 2.72284 3.14289 2.65672 3.31971 2.65577H28.5495C28.9162 2.65577 29.2135 2.95305 29.2135 3.31971V7.96731C29.2135 8.98951 30.3201 9.62839 31.2053 9.11729C31.6161 8.88003 31.8693 8.44169 31.8693 7.96731V2.65577C31.8693 1.18913 30.6801 0 29.2135 0H2.65577C1.189 0 0 1.189 0 2.65577V11.951C0 13.4177 1.189 14.6067 2.65577 14.6067Z" fill="#4A569C"/>
<path d="M10.6231 5.29827C10.3261 4.86684 9.74577 4.7392 9.29523 5.00613L9.13589 5.12564C9.02844 5.18472 8.89809 5.18472 8.79064 5.12564C8.6859 5.06521 8.62045 4.95437 8.61801 4.83351V4.6476C8.61801 3.88095 7.78808 3.40183 7.12414 3.78516C6.81602 3.96306 6.62618 4.29178 6.62618 4.6476V4.82023C6.62374 4.94109 6.5583 5.05193 6.45356 5.11236C6.34611 5.17144 6.21576 5.17144 6.10831 5.11236L5.96224 5.00613C5.32336 4.58189 4.46485 5.00844 4.41688 5.77373C4.39466 6.12901 4.56362 6.46911 4.8601 6.66599L5.31158 7.01124C5.50046 7.14918 5.50046 7.43101 5.31158 7.56895L4.76714 7.92748C4.32989 8.22043 4.20103 8.80592 4.47501 9.25537C4.66267 9.53422 4.9754 9.70305 5.31158 9.70685C5.50439 9.70549 5.69287 9.65021 5.85601 9.5475L6.01536 9.44127C6.1205 9.37352 6.25546 9.37352 6.36061 9.44127C6.46738 9.49967 6.5335 9.61173 6.53323 9.73341V9.93259C6.53323 10.6992 7.36316 11.1784 8.0271 10.795C8.33523 10.6171 8.52506 10.2884 8.52506 9.93259V9.75996C8.52167 9.63747 8.58874 9.52392 8.69768 9.46783C8.80283 9.40008 8.93779 9.40008 9.04293 9.46783L9.189 9.56078C9.34821 9.67324 9.53845 9.73354 9.73343 9.73341C10.4999 9.74695 10.9937 8.92556 10.6222 8.25498C10.5426 8.11149 10.4289 7.98995 10.2911 7.90092L9.75999 7.54239C9.66054 7.48494 9.59956 7.37844 9.60065 7.26354C9.6043 7.15338 9.6646 7.05297 9.75999 6.99796L10.3044 6.63943C10.7529 6.35001 10.8934 5.75856 10.6231 5.29827Z" fill="#4A569C"/>
<path d="M16.3728 10.9551C16.9198 10.9479 17.3615 10.5062 17.3687 9.95915V9.78652C17.3653 9.66403 17.4324 9.55048 17.5413 9.49439C17.6465 9.42664 17.7814 9.42664 17.8866 9.49439L18.0327 9.58734C18.1911 9.70143 18.3818 9.76186 18.5771 9.75996C19.3436 9.77351 19.8374 8.95212 19.4658 8.28154C19.3863 8.13805 19.2726 8.0165 19.1348 7.92748L18.5904 7.58223C18.4959 7.52153 18.4405 7.41557 18.4443 7.30338C18.4425 7.19525 18.4981 7.09417 18.5904 7.0378L19.1348 6.67927C19.7788 6.26017 19.7276 5.30111 19.0427 4.95288C18.7248 4.79137 18.3448 4.81169 18.0459 5.00613L17.8733 5.12564C17.7706 5.18499 17.6441 5.18499 17.5413 5.12564C17.4366 5.06521 17.3712 4.95437 17.3687 4.83351V4.6476C17.3687 3.88095 16.5388 3.40183 15.8748 3.78516C15.5667 3.96306 15.3769 4.29178 15.3769 4.6476V4.82023C15.3745 4.94109 15.309 5.05193 15.2043 5.11236C15.0968 5.17144 14.9665 5.17144 14.859 5.11236L14.7129 5.00613C14.2657 4.73649 13.6861 4.8583 13.3851 5.28499C13.1085 5.73105 13.2313 6.31573 13.6639 6.61287L14.1951 6.9714C14.2892 7.034 14.3482 7.13739 14.3544 7.25026C14.3428 7.3615 14.2849 7.46259 14.1951 7.52912L13.6506 7.88765C13.0169 8.31907 13.0878 9.27474 13.7783 9.60793C13.9124 9.67257 14.0594 9.70644 14.2084 9.70685C14.4012 9.70549 14.5896 9.65021 14.7528 9.5475L14.9121 9.44127C15.0173 9.37352 15.1522 9.37352 15.2574 9.44127C15.3642 9.49967 15.4303 9.61173 15.43 9.73341V9.93259C15.4148 10.4727 15.8332 10.9265 16.3728 10.9551Z" fill="#4A569C"/>
<path d="M30.0898 14.7395C29.9303 14.7084 29.8142 14.57 29.811 14.4076V13.0797C29.811 9.50197 25.938 7.26584 22.8396 9.05469C21.4017 9.88489 20.5158 11.4193 20.5158 13.0797V14.4076C20.5125 14.57 20.3964 14.7084 20.2369 14.7395C19.2834 14.9074 18.5886 15.7365 18.5903 16.7048V24.0082C18.5903 25.1083 19.4821 26 20.5822 26H29.8774C30.9773 26 31.8692 25.1082 31.8692 24.0082V16.7048C31.8615 15.6928 31.096 14.8474 30.0898 14.7395ZM26.5576 21.0204C26.5576 22.0426 25.451 22.6815 24.5658 22.1704C23.6806 21.6593 23.6806 20.3816 24.5658 19.8705C24.7677 19.7539 24.9967 19.6925 25.2298 19.6925C25.9631 19.6925 26.5576 20.2871 26.5576 21.0204ZM23.2379 13.0531C23.2379 11.5198 24.8978 10.5614 26.2257 11.3281C26.8419 11.6839 27.2216 12.3415 27.2216 13.0531V14.381C27.2216 14.5643 27.0729 14.713 26.8896 14.713H23.5035C23.3202 14.713 23.1715 14.5643 23.1715 14.381L23.2379 13.0531Z" fill="#4A569C"/>
</svg>
