<svg width="24" height="24" viewBox="0 0 24 24" fill="none" xmlns="http://www.w3.org/2000/svg">
    <path d="M8.71171 19.5409C8.61874 19.4472 8.50814 19.3728 8.38628 19.322C8.26443 19.2713 8.13372 19.2451 8.00171 19.2451C7.8697 19.2451 7.739 19.2713 7.61714 19.322C7.49528 19.3728 7.38468 19.4472 7.29172 19.5409L6.00172 20.8709L4.71173 19.5409C4.535 19.3639 4.29832 19.2595 4.0484 19.2484C3.79849 19.2373 3.55348 19.3202 3.36174 19.4809L0.361758 21.9809C0.2605 22.0648 0.176799 22.1679 0.115447 22.2843C0.0540953 22.4006 0.0162992 22.5279 0.00422342 22.6589C-0.00785237 22.7899 0.00602939 22.922 0.0450736 23.0476C0.0841179 23.1732 0.147557 23.2898 0.231759 23.3909C0.315708 23.4921 0.418808 23.5759 0.535154 23.6372C0.6515 23.6986 0.778807 23.7363 0.909783 23.7484C1.04076 23.7605 1.17283 23.7466 1.29843 23.7076C1.42404 23.6685 1.5407 23.6051 1.64175 23.5209L3.94174 21.6009L5.29173 22.9509C5.38469 23.0446 5.49529 23.119 5.61715 23.1698C5.73901 23.2206 5.86971 23.2467 6.00172 23.2467C6.13373 23.2467 6.26444 23.2206 6.3863 23.1698C6.50816 23.119 6.61876 23.0446 6.71172 22.9509L8.00171 21.6609L8.79171 22.4509C8.97868 22.6392 9.2328 22.7455 9.49817 22.7464C9.76353 22.7474 10.0184 22.6429 10.2067 22.4559C10.395 22.2689 10.5013 22.0148 10.5023 21.7494C10.5032 21.4841 10.3987 21.2292 10.2117 21.0409L8.71171 19.5409Z" fill="white"/>
    <path d="M15.0017 14.6312C14.7503 14.4863 14.4725 14.393 14.1846 14.3568C13.8967 14.3207 13.6045 14.3423 13.3251 14.4206C13.0457 14.4988 12.7847 14.632 12.5575 14.8125C12.3302 14.9929 12.1413 15.2168 12.0017 15.4712C11.5017 16.3512 11.6817 19.1912 11.7517 20.0812C11.7534 20.1103 11.7626 20.1384 11.7784 20.1629C11.7941 20.1875 11.8159 20.2075 11.8417 20.2212C11.8675 20.2361 11.8968 20.2439 11.9267 20.2439C11.9565 20.2439 11.9858 20.2361 12.0117 20.2212C12.8117 19.8112 15.3117 18.4812 15.8117 17.5912C16.0941 17.0907 16.1674 16.4989 16.0157 15.9445C15.864 15.3902 15.4996 14.9182 15.0017 14.6312ZM14.4217 16.7812C14.3869 16.8436 14.3401 16.8985 14.2841 16.9428C14.2281 16.9871 14.1639 17.0199 14.0952 17.0394C13.9564 17.0788 13.8077 17.0615 13.6817 16.9912C13.5557 16.9209 13.4628 16.8035 13.4234 16.6647C13.384 16.5259 13.4014 16.3772 13.4717 16.2512C13.542 16.1252 13.6594 16.0323 13.7982 15.9929C13.937 15.9536 14.0857 15.9709 14.2117 16.0412C14.3377 16.1115 14.4305 16.2289 14.4699 16.3677C14.5093 16.5065 14.492 16.6552 14.4217 16.7812Z" fill="white"/>
    <path d="M22.8816 0.521148C22.5238 0.323563 22.1177 0.230085 21.7095 0.251292C21.3013 0.272499 20.9071 0.407545 20.5716 0.641147C20.5221 0.583607 20.4649 0.533137 20.4016 0.491148L20.0816 0.311149C19.5137 -0.00535089 18.8436 -0.0841417 18.2177 0.0919988C17.5918 0.268139 17.0612 0.684885 16.7417 1.25114L14.0817 6.00111C14.0179 6.11601 13.9775 6.24234 13.9626 6.37288C13.9477 6.50343 13.9586 6.63563 13.9948 6.76193C14.0311 6.88823 14.0918 7.00616 14.1736 7.10897C14.2555 7.21178 14.3567 7.29746 14.4717 7.36111C14.5866 7.42485 14.7129 7.46533 14.8434 7.48023C14.974 7.49513 15.1062 7.48416 15.2325 7.44794C15.3588 7.41172 15.4767 7.35097 15.5795 7.26915C15.6823 7.18733 15.768 7.08605 15.8317 6.97111L18.4817 2.23114C18.5107 2.17881 18.55 2.13282 18.5971 2.09586C18.6442 2.05889 18.6982 2.0317 18.7559 2.01587C18.8137 2.00004 18.874 1.99588 18.9334 2.00366C18.9927 2.01143 19.0499 2.03097 19.1016 2.06114L19.4216 2.23114L14.1017 11.7411C13.9639 11.9952 13.9306 12.2931 14.0091 12.5714C14.0875 12.8496 14.2714 13.0863 14.5217 13.2311L16.4317 14.2911C16.5562 14.3617 16.6935 14.4069 16.8356 14.424C16.9777 14.4411 17.1218 14.4298 17.2595 14.3907C17.3973 14.3517 17.5258 14.2856 17.6378 14.1964C17.7497 14.1072 17.8428 13.9966 17.9117 13.8711L23.7216 3.49113C23.8618 3.24104 23.9513 2.96576 23.9849 2.68104C24.0186 2.39632 23.9957 2.10777 23.9177 1.83189C23.8397 1.55601 23.708 1.29824 23.5302 1.07332C23.3524 0.848402 23.132 0.660764 22.8816 0.521148Z" fill="white"/>
</svg>