<svg width="28" height="29" viewBox="0 0 28 29" fill="none" xmlns="http://www.w3.org/2000/svg">
<path fill-rule="evenodd" clip-rule="evenodd" d="M14 0C14.6724 0 15.2174 0.545044 15.2174 1.21739V6.08696C15.2174 6.7593 14.6724 7.30435 14 7.30435C13.3276 7.30435 12.7826 6.7593 12.7826 6.08696V1.21739C12.7826 0.545044 13.3276 0 14 0ZM22.3059 18.1575L14.5885 11.804C14.1642 11.4014 13.5723 11.5196 13.2313 11.6908C12.8333 11.8908 12.4623 12.2858 12.3453 12.837C12.3413 12.8559 12.3381 12.8749 12.3359 12.894L11.195 22.8329C11.1934 22.847 11.1922 22.8613 11.1916 22.8755C11.1677 23.4166 11.3903 23.9261 11.8103 24.2307C12.24 24.5424 12.804 24.5861 13.328 24.3284L15.1352 23.5198L16.885 27.8382L16.8858 27.8403C17.0384 28.2217 17.3567 28.4823 17.6753 28.6195C17.9945 28.757 18.4035 28.8092 18.7862 28.657L18.7889 28.6559L21.2477 27.6633L21.2492 27.6627C21.631 27.5102 21.8919 27.1917 22.0291 26.8729C22.1665 26.5537 22.2187 26.1447 22.0666 25.7622L22.0651 25.7587L20.303 21.4099L21.9337 20.728C22.4918 20.5272 22.8019 20.053 22.8569 19.5525C22.9108 19.062 22.7253 18.5464 22.3338 18.1819C22.3248 18.1735 22.3155 18.1653 22.3059 18.1575ZM5.837 4.11562C5.35331 3.64862 4.58263 3.66214 4.11562 4.14584C3.64862 4.62953 3.66214 5.40023 4.14584 5.86723L7.67627 9.27583C8.15995 9.74283 8.93065 9.72931 9.39765 9.24561C9.86465 8.76192 9.85113 7.99122 9.36744 7.52422L5.837 4.11562ZM0 14C0 13.3276 0.545044 12.7826 1.21739 12.7826H6.08696C6.7593 12.7826 7.30435 13.3276 7.30435 14C7.30435 14.6724 6.7593 15.2174 6.08696 15.2174H1.21739C0.545044 15.2174 0 14.6724 0 14ZM9.36744 20.4759C9.85113 20.0089 9.86465 19.2382 9.39765 18.7545C8.93065 18.2709 8.15995 18.2573 7.67627 18.7243L4.14584 22.1329C3.66214 22.5999 3.64862 23.3706 4.11562 23.8543C4.58263 24.338 5.35331 24.3515 5.837 23.8845L9.36744 20.4759ZM20.6957 14C20.6957 13.3276 21.2407 12.7826 21.913 12.7826H26.7826C27.455 12.7826 28 13.3276 28 14C28 14.6724 27.455 15.2174 26.7826 15.2174H21.913C21.2407 15.2174 20.6957 14.6724 20.6957 14ZM23.9762 5.86723C24.4598 5.40023 24.4733 4.62953 24.0063 4.14584C23.5394 3.66214 22.7686 3.64862 22.285 4.11562L18.7545 7.52422C18.2709 7.99122 18.2573 8.76192 18.7243 9.24561C19.1913 9.72931 19.9621 9.74283 20.4457 9.27583L23.9762 5.86723Z" fill="white"/>
</svg>
