<svg width="50" height="50" viewBox="0 0 50 50" fill="none" xmlns="http://www.w3.org/2000/svg">
<path d="M39.1667 0H10.8333C7.96015 0 5.20465 1.14137 3.17301 3.17301C1.14137 5.20465 0 7.96015 0 10.8333L0 39.1667C0 42.0398 1.14137 44.7953 3.17301 46.827C5.20465 48.8586 7.96015 50 10.8333 50H39.1667C42.0398 50 44.7953 48.8586 46.827 46.827C48.8586 44.7953 50 42.0398 50 39.1667V10.8333C50 7.96015 48.8586 5.20465 46.827 3.17301C44.7953 1.14137 42.0398 0 39.1667 0ZM25 10C26.4834 10 27.9334 10.4399 29.1668 11.264C30.4001 12.0881 31.3614 13.2594 31.9291 14.6299C32.4967 16.0003 32.6453 17.5083 32.3559 18.9632C32.0665 20.418 31.3522 21.7544 30.3033 22.8033C29.2544 23.8522 27.918 24.5665 26.4632 24.8559C25.0083 25.1453 23.5003 24.9968 22.1299 24.4291C20.7594 23.8614 19.5881 22.9001 18.764 21.6668C17.9399 20.4334 17.5 18.9834 17.5 17.5C17.5 15.5109 18.2902 13.6032 19.6967 12.1967C21.1032 10.7902 23.0109 10 25 10ZM38.3333 39.55C38.2385 39.6841 38.1139 39.7945 37.9693 39.8726C37.8248 39.9506 37.6642 39.9942 37.5 40H12.5583C12.3871 40.0006 12.2183 39.96 12.0661 39.8815C11.9139 39.8031 11.7828 39.6892 11.6839 39.5495C11.5851 39.4097 11.5213 39.2482 11.4979 39.0786C11.4746 38.909 11.4925 38.7363 11.55 38.575C12.5337 35.794 14.3553 33.3863 16.764 31.6833C19.1728 29.9804 22.0501 29.066 25 29.066C27.9499 29.066 30.8272 29.9804 33.236 31.6833C35.6447 33.3863 37.4663 35.794 38.45 38.575C38.5101 38.735 38.5308 38.907 38.5105 39.0767C38.4902 39.2464 38.4295 39.4087 38.3333 39.55Z" fill="#6272D6"/>
</svg>
